<svg width="44" height="44" viewBox="0 0 44 44" fill="none" xmlns="http://www.w3.org/2000/svg">
<rect width="44" height="44" rx="22" fill="black"/>
<g filter="url(#filter0_d_475_6581)">
<path d="M28.2111 22.6262C28.2005 20.8229 29.0175 19.4639 30.6675 18.4617C29.7447 17.1397 28.3486 16.4125 26.5083 16.2724C24.7658 16.1349 22.8594 17.2877 22.1613 17.2877C21.4236 17.2877 19.7366 16.32 18.4093 16.32C15.67 16.3623 12.7588 18.504 12.7588 22.8616C12.7588 24.1492 12.9941 25.4792 13.4648 26.8489C14.0941 28.6522 16.3627 33.0705 18.7292 32.9991C19.9667 32.9701 20.8419 32.1213 22.4522 32.1213C24.0148 32.1213 24.8239 32.9991 26.2042 32.9991C28.5918 32.9648 30.6437 28.9483 31.2412 27.1398C28.0392 25.63 28.2111 22.7188 28.2111 22.6262ZM25.4321 14.5616C26.7727 12.9699 26.651 11.5209 26.6114 11C25.4268 11.0687 24.0572 11.8065 23.2771 12.7134C22.4178 13.6864 21.9128 14.8895 22.0212 16.2459C23.3009 16.3438 24.4696 15.6854 25.4321 14.5616Z" fill="white"/>
</g>
<defs>
<filter id="filter0_d_475_6581" x="7.25879" y="9.9" width="29.4824" height="33" filterUnits="userSpaceOnUse" color-interpolation-filters="sRGB">
<feFlood flood-opacity="0" result="BackgroundImageFix"/>
<feColorMatrix in="SourceAlpha" type="matrix" values="0 0 0 0 0 0 0 0 0 0 0 0 0 0 0 0 0 0 127 0" result="hardAlpha"/>
<feOffset dy="4.4"/>
<feGaussianBlur stdDeviation="2.75"/>
<feComposite in2="hardAlpha" operator="out"/>
<feColorMatrix type="matrix" values="0 0 0 0 0 0 0 0 0 0 0 0 0 0 0 0 0 0 0.15 0"/>
<feBlend mode="normal" in2="BackgroundImageFix" result="effect1_dropShadow_475_6581"/>
<feBlend mode="normal" in="SourceGraphic" in2="effect1_dropShadow_475_6581" result="shape"/>
</filter>
</defs>
</svg>
