<svg width="44" height="44" viewBox="0 0 44 44" fill="none" xmlns="http://www.w3.org/2000/svg">
<rect width="44" height="44" rx="22" fill="white"/>
<path d="M37.0001 22.7975C37.0001 21.5269 36.8946 20.5996 36.6662 19.6381L21.8164 19.6381L21.8164 25.3732L30.5329 25.3732C30.3572 26.7985 29.4082 28.9449 27.2994 30.3872L27.2698 30.5792L31.965 34.1332L32.2903 34.1649C35.2778 31.469 37.0001 27.5024 37.0001 22.7975Z" fill="#4285F4"/>
<path d="M21.8163 37.9083C26.0867 37.9083 29.6717 36.5345 32.2902 34.1649L27.2993 30.3872C25.9637 31.2972 24.1711 31.9326 21.8163 31.9326C17.6338 31.9326 14.0839 29.2368 12.8185 25.5106L12.633 25.526L7.75086 29.2178L7.68701 29.3913C10.2879 34.4396 15.6303 37.9083 21.8163 37.9083Z" fill="#34A853"/>
<path d="M12.8185 25.5106C12.4846 24.549 12.2914 23.5186 12.2914 22.4541C12.2914 21.3894 12.4846 20.3592 12.801 19.3976L12.7921 19.1928L7.84877 15.4417L7.68704 15.5168C6.61509 17.6117 6 19.9642 6 22.4541C6 24.9439 6.61509 27.2963 7.68703 29.3912L12.8185 25.5106Z" fill="#FBBC05"/>
<path d="M21.8163 12.9756C24.7862 12.9756 26.7896 14.2291 27.9319 15.2766L32.3956 11.0181C29.6542 8.52825 26.0867 7 21.8163 7C15.6303 7 10.2879 10.4686 7.68701 15.5169L12.8009 19.3976C14.0839 15.6715 17.6338 12.9756 21.8163 12.9756Z" fill="#EB4335"/>
</svg>
