<svg width="26" height="26" viewBox="0 0 26 26" fill="none" xmlns="http://www.w3.org/2000/svg">
<path fill-rule="evenodd" clip-rule="evenodd" d="M7.70974 0.243992C9.07824 0.180992 9.51457 0.166992 13.0006 0.166992C16.4866 0.166992 16.9229 0.182159 18.2902 0.243992C19.6576 0.305826 20.5909 0.523992 21.4076 0.840159C22.2627 1.16333 23.0386 1.66849 23.6802 2.32183C24.3336 2.96233 24.8376 3.73699 25.1596 4.59333C25.4769 5.40999 25.6939 6.34333 25.7569 7.70833C25.8199 9.07916 25.8339 9.51549 25.8339 13.0003C25.8339 16.4863 25.8187 16.9227 25.7569 18.2912C25.6951 19.6562 25.4769 20.5895 25.1596 21.4062C24.8376 22.2626 24.3327 23.0386 23.6802 23.68C23.0386 24.3333 22.2627 24.8373 21.4076 25.1593C20.5909 25.4767 19.6576 25.6937 18.2926 25.7567C16.9229 25.8197 16.4866 25.8337 13.0006 25.8337C9.51457 25.8337 9.07824 25.8185 7.70974 25.7567C6.34474 25.6948 5.4114 25.4767 4.59474 25.1593C3.73831 24.8373 2.96236 24.3325 2.3209 23.68C1.66801 23.0391 1.16277 22.2635 0.840403 21.4073C0.524236 20.5907 0.307236 19.6573 0.244236 18.2923C0.181236 16.9215 0.167236 16.4852 0.167236 13.0003C0.167236 9.51433 0.182403 9.07799 0.244236 7.71066C0.30607 6.34333 0.524236 5.40999 0.840403 4.59333C1.16325 3.73709 1.66888 2.96152 2.32207 2.32066C2.96262 1.66791 3.73779 1.16268 4.59357 0.840159C5.41024 0.523992 6.34357 0.306992 7.70857 0.243992H7.70974ZM18.1864 2.55399C16.8331 2.49216 16.4271 2.47933 13.0006 2.47933C9.57407 2.47933 9.16807 2.49216 7.81474 2.55399C6.5629 2.61116 5.8839 2.81999 5.43124 2.99616C4.83274 3.22949 4.40457 3.50599 3.9554 3.95516C3.52962 4.36939 3.20195 4.87366 2.9964 5.43099C2.82024 5.88366 2.6114 6.56266 2.55424 7.81449C2.4924 9.16783 2.47957 9.57383 2.47957 13.0003C2.47957 16.4268 2.4924 16.8328 2.55424 18.1862C2.6114 19.438 2.82024 20.117 2.9964 20.5697C3.20174 21.1262 3.52957 21.6313 3.9554 22.0455C4.36957 22.4713 4.87474 22.7992 5.43124 23.0045C5.8839 23.1807 6.5629 23.3895 7.81474 23.4467C9.16807 23.5085 9.5729 23.5213 13.0006 23.5213C16.4282 23.5213 16.8331 23.5085 18.1864 23.4467C19.4382 23.3895 20.1172 23.1807 20.5699 23.0045C21.1684 22.7712 21.5966 22.4947 22.0457 22.0455C22.4716 21.6313 22.7994 21.1262 23.0047 20.5697C23.1809 20.117 23.3897 19.438 23.4469 18.1862C23.5087 16.8328 23.5216 16.4268 23.5216 13.0003C23.5216 9.57383 23.5087 9.16783 23.4469 7.81449C23.3897 6.56266 23.1809 5.88366 23.0047 5.43099C22.7714 4.83249 22.4949 4.40433 22.0457 3.95516C21.6315 3.52941 21.1272 3.20174 20.5699 2.99616C20.1172 2.81999 19.4382 2.61116 18.1864 2.55399ZM11.3614 16.9565C12.2768 17.3376 13.2962 17.389 14.2453 17.102C15.1945 16.815 16.0145 16.2074 16.5655 15.3829C17.1164 14.5585 17.364 13.5683 17.266 12.5816C17.168 11.5949 16.7304 10.6728 16.0281 9.97283C15.5803 9.52538 15.039 9.18277 14.443 8.96967C13.8469 8.75656 13.2111 8.67825 12.5812 8.74038C11.9512 8.80251 11.3429 9.00353 10.8 9.32898C10.2571 9.65442 9.79311 10.0962 9.44142 10.6225C9.08974 11.1488 8.85913 11.7465 8.76617 12.3726C8.67322 12.9987 8.72025 13.6377 8.90387 14.2434C9.08749 14.8492 9.40313 15.4067 9.82808 15.8758C10.253 16.345 10.7767 16.714 11.3614 16.9565ZM8.33624 8.33599C8.94877 7.72346 9.67594 7.23758 10.4763 6.90608C11.2766 6.57458 12.1343 6.40396 13.0006 6.40396C13.8668 6.40396 14.7246 6.57458 15.5249 6.90608C16.3252 7.23758 17.0524 7.72346 17.6649 8.33599C18.2774 8.94852 18.7633 9.6757 19.0948 10.476C19.4263 11.2763 19.5969 12.1341 19.5969 13.0003C19.5969 13.8666 19.4263 14.7243 19.0948 15.5246C18.7633 16.325 18.2774 17.0521 17.6649 17.6647C16.4278 18.9017 14.75 19.5967 13.0006 19.5967C11.2511 19.5967 9.5733 18.9017 8.33624 17.6647C7.09918 16.4276 6.40421 14.7498 6.40421 13.0003C6.40421 11.2509 7.09918 9.57305 8.33624 8.33599ZM21.0599 7.38633C21.2117 7.24314 21.3332 7.07095 21.4173 6.87996C21.5013 6.68897 21.5462 6.48306 21.5492 6.27441C21.5523 6.06577 21.5134 5.85863 21.435 5.66527C21.3565 5.47191 21.2401 5.29626 21.0925 5.14871C20.945 5.00116 20.7693 4.88471 20.576 4.80626C20.3826 4.72782 20.1755 4.68896 19.9668 4.69201C19.7582 4.69505 19.5523 4.73992 19.3613 4.82397C19.1703 4.90802 18.9981 5.02954 18.8549 5.18133C18.5764 5.47653 18.424 5.86863 18.4299 6.27441C18.4358 6.68019 18.5996 7.06769 18.8866 7.35464C19.1735 7.6416 19.561 7.80543 19.9668 7.81134C20.3726 7.81726 20.7647 7.6648 21.0599 7.38633Z" fill="#FDFDFF"/>
</svg>
