<svg width="26" height="26" viewBox="0 0 26 26" fill="none" xmlns="http://www.w3.org/2000/svg">
<path fill-rule="evenodd" clip-rule="evenodd" d="M0.165528 2.31133C0.165528 1.74262 0.391448 1.1972 0.793588 0.795056C1.19573 0.392915 1.74115 0.166995 2.30986 0.166995H23.6855C23.9674 0.166535 24.2465 0.221668 24.507 0.32924C24.7675 0.436811 25.0043 0.594706 25.2037 0.793887C25.403 0.993068 25.5612 1.22962 25.6691 1.49001C25.7769 1.75039 25.8323 2.02949 25.8322 2.31133V23.687C25.8325 23.9689 25.7772 24.2481 25.6695 24.5086C25.5618 24.7691 25.4038 25.0058 25.2045 25.2052C25.0053 25.4046 24.7686 25.5627 24.5082 25.6705C24.2477 25.7784 23.9686 25.8338 23.6867 25.8337H2.30986C2.02817 25.8337 1.74923 25.7782 1.48899 25.6703C1.22875 25.5625 0.992311 25.4044 0.793176 25.2052C0.594041 25.0059 0.436115 24.7694 0.32842 24.5091C0.220726 24.2488 0.165374 23.9699 0.165528 23.6882V2.31133ZM10.3249 9.953H13.8004V11.6983C14.302 10.695 15.5854 9.792 17.5139 9.792C21.211 9.792 22.0872 11.7905 22.0872 15.4573V22.2497H18.3457V16.2927C18.3457 14.2043 17.844 13.026 16.57 13.026C14.8025 13.026 14.0675 14.2965 14.0675 16.2927V22.2497H10.3249V9.953ZM3.90819 22.0898H7.65086V9.792H3.90819V22.0887V22.0898ZM8.18636 5.78099C8.19342 6.10145 8.1364 6.42008 8.01864 6.7182C7.90089 7.01631 7.72477 7.2879 7.50063 7.51703C7.27649 7.74616 7.00884 7.92821 6.71339 8.0525C6.41794 8.17679 6.10064 8.24082 5.78011 8.24082C5.45958 8.24082 5.14228 8.17679 4.84683 8.0525C4.55138 7.92821 4.28373 7.74616 4.05959 7.51703C3.83545 7.2879 3.65934 7.01631 3.54158 6.7182C3.42383 6.42008 3.3668 6.10145 3.37386 5.78099C3.38771 5.15199 3.64731 4.55342 4.09706 4.11346C4.54681 3.67351 5.15096 3.42715 5.78011 3.42715C6.40927 3.42715 7.01341 3.67351 7.46316 4.11346C7.91291 4.55342 8.17251 5.15199 8.18636 5.78099Z" fill="#FDFDFF"/>
</svg>
