<svg width="245" height="175" viewBox="0 0 245 175" fill="none" xmlns="http://www.w3.org/2000/svg">
<g clip-path="url(#clip0_59_7)">
<path d="M244.646 174.658H0.354046C0.260147 174.658 0.170094 174.621 0.103697 174.555C0.0373009 174.49 0 174.401 0 174.308C0 174.215 0.0373009 174.126 0.103697 174.06C0.170094 173.995 0.260147 173.958 0.354046 173.958H244.646C244.74 173.958 244.83 173.995 244.896 174.06C244.963 174.126 245 174.215 245 174.308C245 174.401 244.963 174.49 244.896 174.555C244.83 174.621 244.74 174.658 244.646 174.658Z" fill="#CCCCCC"/>
<path d="M220.466 113.602H76.7234C76.1131 113.602 75.5277 113.842 75.0962 114.269C74.6646 114.696 74.4221 115.274 74.4221 115.878C74.4221 116.481 74.6646 117.06 75.0962 117.487C75.5277 117.914 76.1131 118.153 76.7234 118.153H80.795V172.592C80.795 173.195 81.0374 173.774 81.469 174.201C81.9006 174.628 82.4859 174.867 83.0963 174.867C83.7066 174.867 84.2919 174.628 84.7235 174.201C85.1551 173.774 85.3976 173.195 85.3976 172.592L85.4325 118.153H211.438V172.592C211.438 173.195 211.68 173.774 212.112 174.201C212.544 174.628 213.129 174.867 213.739 174.867C214.35 174.867 214.935 174.628 215.367 174.201C215.798 173.774 216.041 173.195 216.041 172.592V119.353L216.71 118.153H220.466C221.077 118.153 221.662 117.914 222.093 117.487C222.525 117.06 222.767 116.481 222.767 115.878C222.767 115.274 222.525 114.696 222.093 114.269C221.662 113.842 221.077 113.602 220.466 113.602Z" fill="#CCCCCC"/>
<path d="M156.416 114.793H112.874C112.031 114.792 111.223 114.461 110.627 113.871C110.031 113.282 109.695 112.482 109.694 111.649V87.9447C109.695 87.111 110.031 86.3118 110.627 85.7223C111.223 85.1328 112.031 84.8012 112.874 84.8003H156.416C157.259 84.8012 158.067 85.1328 158.663 85.7223C159.259 86.3118 159.595 87.111 159.596 87.9447V111.649C159.595 112.482 159.259 113.282 158.663 113.871C158.067 114.461 157.259 114.792 156.416 114.793Z" fill="#3F3D56"/>
<path d="M156.415 87.2202H112.875C112.68 87.2206 112.494 87.2971 112.357 87.4329C112.219 87.5687 112.142 87.7528 112.142 87.9449V111.649C112.142 111.841 112.219 112.025 112.357 112.161C112.494 112.297 112.68 112.373 112.875 112.374H156.415C156.61 112.373 156.796 112.297 156.933 112.161C157.07 112.025 157.148 111.841 157.148 111.649V87.9449C157.148 87.7528 157.07 87.5687 156.933 87.4329C156.796 87.2971 156.61 87.2206 156.415 87.2202Z" fill="white"/>
<path d="M138.358 104.003C138.358 104.003 133.146 102.815 130.279 104.993C127.412 107.17 133.928 112.119 133.928 112.119L138.358 104.003Z" fill="#2F2E41"/>
<path d="M134.9 101.759C137.616 101.759 139.817 99.5823 139.817 96.8973C139.817 94.2123 137.616 92.0356 134.9 92.0356C132.185 92.0356 129.984 94.2123 129.984 96.8973C129.984 99.5823 132.185 101.759 134.9 101.759Z" fill="#A0616A"/>
<path d="M131.098 90.0725C131.426 89.5222 131.901 89.0723 132.472 88.7723C133.042 88.4723 133.685 88.3339 134.329 88.3725C135.004 88.4562 135.662 88.6383 136.282 88.9131L139.496 90.1528C140.328 90.4736 141.239 90.8666 141.6 91.674C141.935 92.4233 141.685 93.2888 141.432 94.069L140.229 97.7775C140.096 96.9382 139.868 96.1164 139.548 95.3278C139.223 94.5338 138.636 93.872 137.882 93.4499C137.047 93.0264 136.063 93.0352 135.126 93.0798C133.799 93.1429 132.356 93.3099 131.412 94.2357C130.912 94.7615 130.572 95.4169 130.434 96.1259C130.297 96.8311 130.228 97.5475 130.228 98.2655C129.684 97.3403 129.226 96.3683 128.859 95.3614C128.557 94.6116 128.384 93.8169 128.35 93.0106C128.318 92.1975 128.591 91.4013 129.116 90.7746C129.382 90.4684 129.73 90.2419 130.12 90.1206C130.51 89.9993 130.926 89.9881 131.322 90.0881L131.098 90.0725Z" fill="#2F2E41"/>
<path d="M146.64 108.219C146.594 108.054 146.5 107.907 146.369 107.796C146.239 107.684 146.078 107.613 145.907 107.592C145.896 107.584 145.884 107.577 145.872 107.571L138.532 103.504C138.322 103.387 138.075 103.356 137.843 103.415C137.61 103.474 137.409 103.62 137.283 103.822L135.275 107.035L132.252 104.046L132.204 103.998C132.048 103.845 131.844 103.75 131.625 103.731C131.406 103.712 131.188 103.77 131.008 103.895L124.976 108.072C124.965 108.072 124.955 108.075 124.944 108.075C124.655 108.123 124.392 108.266 124.197 108.482C124.002 108.698 123.887 108.973 123.871 109.262L123.715 112.374H147.805L146.64 108.219Z" fill="#5669B3"/>
<path d="M160.085 111.891H155.437C155.437 111.762 155.386 111.639 155.294 111.548C155.202 111.458 155.078 111.407 154.948 111.407H153.48C153.351 111.407 153.226 111.458 153.134 111.548C153.043 111.639 152.991 111.762 152.991 111.891H151.523C151.523 111.762 151.472 111.639 151.38 111.548C151.288 111.458 151.164 111.407 151.034 111.407H149.566C149.437 111.407 149.312 111.458 149.22 111.548C149.129 111.639 149.077 111.762 149.077 111.891H147.61C147.61 111.762 147.558 111.639 147.466 111.548C147.374 111.458 147.25 111.407 147.12 111.407H145.653C145.523 111.407 145.398 111.458 145.307 111.548C145.215 111.639 145.163 111.762 145.163 111.891H143.696C143.696 111.762 143.644 111.639 143.552 111.548C143.461 111.458 143.336 111.407 143.206 111.407H141.739C141.609 111.407 141.485 111.458 141.393 111.548C141.301 111.639 141.25 111.762 141.25 111.891H139.782C139.782 111.762 139.73 111.639 139.639 111.548C139.547 111.458 139.422 111.407 139.293 111.407H137.825C137.695 111.407 137.571 111.458 137.479 111.548C137.387 111.639 137.336 111.762 137.336 111.891H135.868C135.868 111.762 135.817 111.639 135.725 111.548C135.633 111.458 135.509 111.407 135.379 111.407H133.911C133.781 111.407 133.657 111.458 133.565 111.548C133.473 111.639 133.422 111.762 133.422 111.891H131.954C131.954 111.762 131.903 111.639 131.811 111.548C131.719 111.458 131.595 111.407 131.465 111.407H129.997C129.868 111.407 129.743 111.458 129.651 111.548C129.56 111.639 129.508 111.762 129.508 111.891H128.04C128.04 111.762 127.989 111.639 127.897 111.548C127.805 111.458 127.681 111.407 127.551 111.407H126.084C125.954 111.407 125.829 111.458 125.738 111.548C125.646 111.639 125.594 111.762 125.594 111.891H124.127C124.127 111.762 124.075 111.639 123.983 111.548C123.892 111.458 123.767 111.407 123.637 111.407H122.17C122.04 111.407 121.916 111.458 121.824 111.548C121.732 111.639 121.68 111.762 121.68 111.891H120.213C120.213 111.762 120.161 111.639 120.069 111.548C119.978 111.458 119.853 111.407 119.724 111.407H118.256C118.126 111.407 118.002 111.458 117.91 111.548C117.818 111.639 117.767 111.762 117.767 111.891H116.299C116.299 111.762 116.247 111.639 116.156 111.548C116.064 111.458 115.939 111.407 115.81 111.407H114.342C114.212 111.407 114.088 111.458 113.996 111.548C113.904 111.639 113.853 111.762 113.853 111.891H109.205C108.816 111.891 108.444 112.044 108.169 112.316C107.894 112.588 107.74 112.957 107.74 113.342C107.74 113.726 107.894 114.095 108.169 114.367C108.444 114.639 108.816 114.792 109.205 114.793H160.085C160.474 114.793 160.847 114.64 161.123 114.368C161.398 114.096 161.553 113.727 161.553 113.342C161.553 112.957 161.398 112.588 161.123 112.316C160.847 112.043 160.474 111.891 160.085 111.891Z" fill="#3F3D56"/>
<path d="M101.639 103.463V113.099H77.2234C76.5693 113.122 75.9172 113.014 75.3062 112.782C74.6951 112.55 74.1376 112.198 73.6667 111.749C73.1959 111.299 72.8215 110.76 72.5658 110.164C72.31 109.569 72.1782 108.928 72.1782 108.281C72.1782 107.634 72.31 106.993 72.5658 106.397C72.8215 105.801 73.1959 105.263 73.6667 104.813C74.1376 104.363 74.6951 104.012 75.3062 103.78C75.9172 103.548 76.5693 103.44 77.2234 103.463H101.639Z" fill="#F2F2F2"/>
<path d="M102.239 113.025C102.239 113.123 102.2 113.217 102.129 113.287C102.059 113.356 101.964 113.395 101.864 113.395H76.7886C75.4267 113.395 74.1206 112.861 73.1576 111.908C72.1946 110.956 71.6536 109.665 71.6536 108.318C71.6536 106.971 72.1946 105.68 73.1576 104.727C74.1206 103.775 75.4267 103.24 76.7886 103.24H101.864C101.964 103.24 102.059 103.279 102.129 103.349C102.2 103.418 102.239 103.513 102.239 103.611C102.239 103.709 102.2 103.803 102.129 103.873C102.059 103.942 101.964 103.981 101.864 103.981H76.7886C75.6262 103.983 74.5118 104.44 73.6902 105.253C72.8686 106.066 72.4071 107.168 72.4071 108.318C72.4071 109.467 72.8686 110.57 73.6902 111.383C74.5118 112.196 75.6262 112.653 76.7886 112.654H101.864C101.964 112.654 102.059 112.693 102.129 112.763C102.2 112.832 102.239 112.927 102.239 113.025Z" fill="#5669B3"/>
<path d="M101.639 105.686H75.4017C75.3918 105.686 75.382 105.685 75.3728 105.681C75.3636 105.677 75.3553 105.672 75.3483 105.665C75.3413 105.658 75.3357 105.65 75.3319 105.641C75.3281 105.632 75.3262 105.622 75.3262 105.612C75.3262 105.602 75.3281 105.593 75.3319 105.584C75.3357 105.575 75.3413 105.567 75.3483 105.56C75.3553 105.553 75.3636 105.547 75.3728 105.544C75.382 105.54 75.3918 105.538 75.4017 105.538H101.639C101.659 105.538 101.678 105.546 101.692 105.56C101.706 105.574 101.714 105.593 101.714 105.612C101.714 105.632 101.706 105.651 101.692 105.664C101.678 105.678 101.659 105.686 101.639 105.686Z" fill="#CCCCCC"/>
<path d="M101.639 107.466H75.4017C75.3918 107.466 75.382 107.464 75.3728 107.46C75.3636 107.456 75.3553 107.451 75.3483 107.444C75.3413 107.437 75.3357 107.429 75.3319 107.42C75.3281 107.411 75.3262 107.401 75.3262 107.392C75.3262 107.382 75.3281 107.372 75.3319 107.363C75.3357 107.354 75.3413 107.346 75.3483 107.339C75.3553 107.332 75.3636 107.327 75.3728 107.323C75.382 107.319 75.3918 107.317 75.4017 107.317H101.639C101.659 107.318 101.678 107.325 101.692 107.339C101.706 107.353 101.714 107.372 101.714 107.392C101.714 107.411 101.706 107.43 101.692 107.444C101.678 107.458 101.659 107.465 101.639 107.466Z" fill="#CCCCCC"/>
<path d="M101.639 109.244H75.4017C75.3918 109.245 75.382 109.243 75.3728 109.239C75.3636 109.235 75.3553 109.23 75.3483 109.223C75.3413 109.216 75.3357 109.208 75.3319 109.199C75.3281 109.19 75.3262 109.18 75.3262 109.17C75.3262 109.161 75.3281 109.151 75.3319 109.142C75.3357 109.133 75.3413 109.125 75.3483 109.118C75.3553 109.111 75.3636 109.105 75.3728 109.102C75.382 109.098 75.3918 109.096 75.4017 109.096H101.639C101.659 109.096 101.678 109.104 101.692 109.118C101.706 109.132 101.714 109.151 101.714 109.17C101.714 109.19 101.706 109.209 101.692 109.223C101.678 109.236 101.659 109.244 101.639 109.244Z" fill="#CCCCCC"/>
<path d="M101.639 111.023H75.4017C75.3918 111.024 75.382 111.022 75.3728 111.018C75.3636 111.014 75.3553 111.009 75.3483 111.002C75.3413 110.995 75.3357 110.987 75.3319 110.978C75.3281 110.969 75.3262 110.959 75.3262 110.949C75.3262 110.94 75.3281 110.93 75.3319 110.921C75.3357 110.912 75.3413 110.904 75.3483 110.897C75.3553 110.89 75.3636 110.884 75.3728 110.881C75.382 110.877 75.3918 110.875 75.4017 110.875H101.639C101.659 110.875 101.678 110.883 101.692 110.897C101.706 110.911 101.714 110.93 101.714 110.949C101.714 110.969 101.706 110.988 101.692 111.002C101.678 111.016 101.659 111.023 101.639 111.023Z" fill="#CCCCCC"/>
<path d="M97.0367 93.31V102.946H72.6209C71.9667 102.969 71.3147 102.861 70.7036 102.629C70.0926 102.397 69.535 102.046 69.0642 101.596C68.5934 101.146 68.2189 100.608 67.9632 100.012C67.7075 99.4161 67.5757 98.7755 67.5757 98.1282C67.5757 97.481 67.7075 96.8404 67.9632 96.2446C68.2189 95.6488 68.5934 95.1101 69.0642 94.6604C69.535 94.2108 70.0926 93.8595 70.7036 93.6275C71.3147 93.3955 71.9667 93.2875 72.6209 93.31H97.0367Z" fill="#F2F2F2"/>
<path d="M97.6364 102.873C97.6364 102.971 97.5969 103.065 97.5266 103.135C97.4563 103.204 97.361 103.243 97.2616 103.243H72.186C71.5116 103.243 70.8439 103.112 70.2209 102.857C69.5978 102.601 69.0318 102.227 68.5549 101.756C68.0781 101.284 67.6998 100.725 67.4418 100.109C67.1837 99.4926 67.0509 98.8323 67.0509 98.1655C67.0509 97.4987 67.1837 96.8384 67.4418 96.2224C67.6998 95.6063 68.0781 95.0466 68.5549 94.5751C69.0318 94.1036 69.5978 93.7296 70.2209 93.4744C70.8439 93.2192 71.5116 93.0879 72.186 93.0879H97.2616C97.361 93.0879 97.4563 93.1269 97.5266 93.1964C97.5969 93.266 97.6364 93.3602 97.6364 93.4585C97.6364 93.5568 97.5969 93.6511 97.5266 93.7206C97.4563 93.7901 97.361 93.8291 97.2616 93.8291H72.186C71.0236 93.8302 69.9091 94.2875 69.0876 95.1006C68.266 95.9137 67.8045 97.0161 67.8045 98.1655C67.8045 99.3149 68.266 100.417 69.0876 101.23C69.9091 102.044 71.0236 102.501 72.186 102.502H97.2616C97.361 102.502 97.4563 102.541 97.5266 102.61C97.5968 102.68 97.6364 102.774 97.6364 102.873Z" fill="#3F3D56"/>
<path d="M97.0367 95.534H70.7991C70.7892 95.5341 70.7794 95.5322 70.7703 95.5285C70.7611 95.5248 70.7528 95.5194 70.7458 95.5125C70.7388 95.5056 70.7332 95.4974 70.7294 95.4884C70.7256 95.4793 70.7236 95.4697 70.7236 95.4599C70.7236 95.4501 70.7256 95.4404 70.7294 95.4314C70.7332 95.4224 70.7388 95.4142 70.7458 95.4073C70.7528 95.4004 70.7611 95.3949 70.7703 95.3912C70.7794 95.3876 70.7892 95.3857 70.7991 95.3857H97.0367C97.0565 95.3859 97.0754 95.3937 97.0893 95.4076C97.1033 95.4215 97.1111 95.4403 97.1111 95.4599C97.1111 95.4795 97.1033 95.4982 97.0893 95.5121C97.0754 95.526 97.0565 95.5339 97.0367 95.534Z" fill="#CCCCCC"/>
<path d="M97.0367 97.3128H70.7991C70.7892 97.3129 70.7794 97.311 70.7703 97.3073C70.7611 97.3036 70.7528 97.2982 70.7458 97.2913C70.7388 97.2844 70.7332 97.2762 70.7294 97.2672C70.7256 97.2581 70.7236 97.2485 70.7236 97.2387C70.7236 97.2289 70.7256 97.2192 70.7294 97.2102C70.7332 97.2012 70.7388 97.193 70.7458 97.1861C70.7528 97.1792 70.7611 97.1737 70.7703 97.17C70.7794 97.1663 70.7892 97.1645 70.7991 97.1646H97.0367C97.0565 97.1647 97.0754 97.1725 97.0893 97.1864C97.1033 97.2003 97.1111 97.2191 97.1111 97.2387C97.1111 97.2582 97.1033 97.277 97.0893 97.2909C97.0754 97.3048 97.0565 97.3127 97.0367 97.3128Z" fill="#CCCCCC"/>
<path d="M97.0367 99.0921H70.7991C70.7892 99.0922 70.7794 99.0903 70.7703 99.0866C70.7611 99.0829 70.7528 99.0775 70.7458 99.0706C70.7388 99.0637 70.7332 99.0555 70.7294 99.0465C70.7256 99.0374 70.7236 99.0278 70.7236 99.018C70.7236 99.0082 70.7256 98.9985 70.7294 98.9895C70.7332 98.9805 70.7388 98.9723 70.7458 98.9654C70.7528 98.9585 70.7611 98.953 70.7703 98.9493C70.7794 98.9456 70.7892 98.9438 70.7991 98.9438H97.0367C97.0565 98.944 97.0754 98.9519 97.0893 98.9657C97.1033 98.9796 97.1111 98.9984 97.1111 99.018C97.1111 99.0375 97.1033 99.0563 97.0893 99.0702C97.0754 99.0841 97.0565 99.092 97.0367 99.0921Z" fill="#CCCCCC"/>
<path d="M97.0367 100.871H70.7991C70.7892 100.871 70.7794 100.869 70.7703 100.865C70.7611 100.862 70.7528 100.856 70.7458 100.849C70.7388 100.842 70.7332 100.834 70.7294 100.825C70.7256 100.816 70.7236 100.807 70.7236 100.797C70.7236 100.787 70.7256 100.777 70.7294 100.768C70.7332 100.759 70.7388 100.751 70.7458 100.744C70.7528 100.737 70.7611 100.732 70.7703 100.728C70.7794 100.724 70.7892 100.723 70.7991 100.723H97.0367C97.0565 100.723 97.0754 100.731 97.0893 100.745C97.1033 100.758 97.1111 100.777 97.1111 100.797C97.1111 100.816 97.1033 100.835 97.0893 100.849C97.0754 100.863 97.0565 100.871 97.0367 100.871Z" fill="#CCCCCC"/>
<path d="M125.44 147.351V138.949C125.44 138.578 125.291 138.222 125.025 137.959C124.759 137.696 124.399 137.549 124.024 137.549H91.8053C91.4298 137.549 91.0695 137.696 90.804 137.959C90.5384 138.222 90.3892 138.578 90.3892 138.949V147.351H125.44Z" fill="#CCCCCC"/>
<path d="M125.44 150.502H90.3892V161.355H125.44V150.502Z" fill="#CCCCCC"/>
<path d="M90.3892 164.505V172.907C90.3892 173.279 90.5384 173.635 90.804 173.898C91.0695 174.16 91.4298 174.308 91.8053 174.308H124.024C124.399 174.308 124.759 174.16 125.025 173.898C125.291 173.635 125.44 173.279 125.44 172.907V164.505H90.3892Z" fill="#CCCCCC"/>
<path d="M107.737 143.85C108.324 143.85 108.8 143.38 108.8 142.8C108.8 142.22 108.324 141.75 107.737 141.75C107.151 141.75 106.675 142.22 106.675 142.8C106.675 143.38 107.151 143.85 107.737 143.85Z" fill="white"/>
<path d="M107.737 157.854C108.324 157.854 108.8 157.384 108.8 156.804C108.8 156.224 108.324 155.753 107.737 155.753C107.151 155.753 106.675 156.224 106.675 156.804C106.675 157.384 107.151 157.854 107.737 157.854Z" fill="white"/>
<path d="M107.794 171.561C108.381 171.561 108.856 171.091 108.856 170.51C108.856 169.93 108.381 169.46 107.794 169.46C107.208 169.46 106.732 169.93 106.732 170.51C106.732 171.091 107.208 171.561 107.794 171.561Z" fill="white"/>
<path d="M121.466 127.969V137.605H97.0501C96.3959 137.628 95.7439 137.52 95.1328 137.288C94.5218 137.056 93.9642 136.704 93.4934 136.255C93.0226 135.805 92.6482 135.266 92.3924 134.671C92.1367 134.075 92.0049 133.434 92.0049 132.787C92.0049 132.14 92.1367 131.499 92.3924 130.903C92.6482 130.308 93.0226 129.769 93.4934 129.319C93.9642 128.869 94.5218 128.518 95.1328 128.286C95.7439 128.054 96.3959 127.946 97.0501 127.969H121.466Z" fill="#F2F2F2"/>
<path d="M122.066 137.531C122.066 137.629 122.026 137.724 121.956 137.793C121.885 137.863 121.79 137.902 121.691 137.902H96.6152C95.9405 137.902 95.2722 137.771 94.6487 137.516C94.0252 137.261 93.4586 136.887 92.9813 136.416C92.5041 135.944 92.1254 135.384 91.8671 134.768C91.6088 134.152 91.4758 133.491 91.4758 132.824C91.4758 132.157 91.6088 131.496 91.8671 130.88C92.1254 130.264 92.5041 129.704 92.9813 129.232C93.4586 128.76 94.0252 128.387 94.6487 128.132C95.2722 127.877 95.9405 127.746 96.6152 127.746H121.691C121.79 127.746 121.885 127.785 121.956 127.855C122.026 127.924 122.066 128.019 122.066 128.117C122.066 128.215 122.026 128.31 121.956 128.379C121.885 128.449 121.79 128.488 121.691 128.488H96.6152C95.4528 128.489 94.3383 128.946 93.5167 129.759C92.6952 130.572 92.2337 131.675 92.2337 132.824C92.2337 133.973 92.6952 135.076 93.5167 135.889C94.3383 136.702 95.4528 137.159 96.6152 137.16H121.691C121.79 137.16 121.885 137.199 121.956 137.269C122.026 137.338 122.066 137.433 122.066 137.531Z" fill="#3F3D56"/>
<path d="M121.466 130.192H95.2283C95.2184 130.193 95.2086 130.191 95.1995 130.187C95.1903 130.183 95.182 130.178 95.175 130.171C95.1679 130.164 95.1624 130.156 95.1586 130.147C95.1548 130.138 95.1528 130.128 95.1528 130.118C95.1528 130.109 95.1548 130.099 95.1586 130.09C95.1624 130.081 95.1679 130.073 95.175 130.066C95.182 130.059 95.1903 130.053 95.1995 130.05C95.2086 130.046 95.2184 130.044 95.2283 130.044H121.466C121.486 130.044 121.505 130.052 121.519 130.066C121.532 130.08 121.54 130.099 121.54 130.118C121.54 130.138 121.532 130.157 121.519 130.171C121.505 130.184 121.486 130.192 121.466 130.192Z" fill="#CCCCCC"/>
<path d="M121.466 131.971H95.2283C95.2184 131.972 95.2086 131.97 95.1995 131.966C95.1903 131.962 95.182 131.957 95.175 131.95C95.1679 131.943 95.1624 131.935 95.1586 131.926C95.1548 131.917 95.1528 131.907 95.1528 131.897C95.1528 131.888 95.1548 131.878 95.1586 131.869C95.1624 131.86 95.1679 131.852 95.175 131.845C95.182 131.838 95.1903 131.832 95.1995 131.829C95.2086 131.825 95.2184 131.823 95.2283 131.823H121.466C121.486 131.823 121.505 131.831 121.519 131.845C121.532 131.859 121.54 131.878 121.54 131.897C121.54 131.917 121.532 131.936 121.519 131.95C121.505 131.963 121.486 131.971 121.466 131.971Z" fill="#CCCCCC"/>
<path d="M121.466 133.751H95.2283C95.2184 133.751 95.2086 133.749 95.1995 133.745C95.1903 133.741 95.182 133.736 95.175 133.729C95.1679 133.722 95.1624 133.714 95.1586 133.705C95.1548 133.696 95.1528 133.686 95.1528 133.676C95.1528 133.667 95.1548 133.657 95.1586 133.648C95.1624 133.639 95.1679 133.631 95.175 133.624C95.182 133.617 95.1903 133.611 95.1995 133.608C95.2086 133.604 95.2184 133.602 95.2283 133.602H121.466C121.486 133.602 121.505 133.61 121.519 133.624C121.532 133.638 121.54 133.657 121.54 133.676C121.54 133.696 121.532 133.715 121.519 133.729C121.505 133.743 121.486 133.75 121.466 133.751Z" fill="#CCCCCC"/>
<path d="M121.466 135.53H95.2283C95.2184 135.53 95.2086 135.528 95.1995 135.524C95.1903 135.52 95.182 135.515 95.175 135.508C95.1679 135.501 95.1624 135.493 95.1586 135.484C95.1548 135.475 95.1528 135.465 95.1528 135.455C95.1528 135.446 95.1548 135.436 95.1586 135.427C95.1624 135.418 95.1679 135.41 95.175 135.403C95.182 135.396 95.1903 135.391 95.1995 135.387C95.2086 135.383 95.2184 135.381 95.2283 135.381H121.466C121.486 135.381 121.505 135.389 121.519 135.403C121.532 135.417 121.54 135.436 121.54 135.455C121.54 135.475 121.532 135.494 121.519 135.508C121.505 135.522 121.486 135.529 121.466 135.53Z" fill="#CCCCCC"/>
<path d="M88.5507 81.0733V19.6332C88.5515 18.935 88.8323 18.2658 89.3315 17.7721C89.8307 17.2785 90.5076 17.0008 91.2136 17H140.33C141.036 17.0008 141.713 17.2785 142.212 17.7721C142.711 18.2658 142.992 18.935 142.993 19.6332V81.0733C142.992 81.7714 142.711 82.4407 142.212 82.9343C141.713 83.428 141.036 83.7057 140.33 83.7064H91.2136C90.5076 83.7057 89.8307 83.428 89.3315 82.9343C88.8323 82.4407 88.5515 81.7714 88.5507 81.0733ZM91.2136 17.5851C90.6645 17.5858 90.138 17.8017 89.7497 18.1857C89.3614 18.5696 89.143 19.0902 89.1424 19.6332V81.0733C89.143 81.6163 89.3614 82.1368 89.7497 82.5208C90.138 82.9047 90.6645 83.1207 91.2136 83.1213H140.33C140.879 83.1207 141.405 82.9047 141.794 82.5208C142.182 82.1368 142.4 81.6163 142.401 81.0733V19.6332C142.4 19.0902 142.182 18.5696 141.794 18.1857C141.405 17.8017 140.879 17.5858 140.33 17.5851H91.2136Z" fill="#E6E6E6"/>
<path d="M118.526 45.2161V32.6005C118.526 32.2515 118.667 31.9168 118.916 31.67C119.166 31.4232 119.504 31.2843 119.857 31.2839H130.669C131.022 31.2843 131.36 31.4232 131.61 31.67C131.86 31.9168 132 32.2515 132 32.6005V45.2161C132 45.5652 131.86 45.8998 131.61 46.1466C131.36 46.3935 131.022 46.5323 130.669 46.5327H119.857C119.504 46.5323 119.166 46.3935 118.916 46.1466C118.667 45.8998 118.526 45.5652 118.526 45.2161Z" fill="#5669B3"/>
<path d="M97.5184 51.0676V38.4521C97.5188 38.103 97.6592 37.7684 97.9088 37.5215C98.1585 37.2747 98.4969 37.1359 98.8499 37.1355H109.661C110.014 37.1359 110.353 37.2747 110.602 37.5215C110.852 37.7684 110.992 38.103 110.993 38.4521V51.0677C110.992 51.4167 110.852 51.7514 110.602 51.9982C110.353 52.245 110.014 52.3839 109.661 52.3842H98.8499C98.4969 52.3839 98.1585 52.245 97.9088 51.9982C97.6592 51.7514 97.5188 51.4167 97.5184 51.0676Z" fill="#CCCCCC"/>
<path d="M114.384 68.9146V56.299C114.384 55.9499 114.524 55.6153 114.774 55.3685C115.024 55.1216 115.362 54.9828 115.715 54.9824H126.527C126.88 54.9828 127.218 55.1216 127.468 55.3685C127.717 55.6153 127.858 55.9499 127.858 56.299V68.9146C127.858 69.2637 127.717 69.5983 127.468 69.8451C127.218 70.092 126.88 70.2308 126.527 70.2312H115.715C115.362 70.2308 115.024 70.092 114.774 69.8451C114.524 69.5983 114.384 69.2637 114.384 68.9146Z" fill="#FF6584"/>
<path d="M178.993 110.592H167.869C167.763 110.592 167.659 110.616 167.564 110.662L164.756 112.052C164.664 112.091 164.585 112.156 164.53 112.239C164.474 112.321 164.445 112.418 164.445 112.518C164.445 112.617 164.474 112.714 164.53 112.797C164.585 112.88 164.664 112.945 164.756 112.983L167.564 114.373C167.659 114.419 167.763 114.443 167.869 114.443H178.993C179.146 114.452 179.297 114.401 179.412 114.3C179.527 114.2 179.598 114.059 179.609 113.908V111.128C179.598 110.976 179.527 110.835 179.412 110.735C179.297 110.635 179.146 110.584 178.993 110.592Z" fill="#3F3D56"/>
<path d="M179.609 111.128V113.907C179.598 114.059 179.527 114.2 179.412 114.3C179.297 114.4 179.146 114.452 178.993 114.443H176.776V110.592H178.993C179.146 110.583 179.297 110.635 179.412 110.735C179.527 110.835 179.598 110.976 179.609 111.128Z" fill="#5669B3"/>
<path d="M178.909 89.797C179.413 89.5819 179.957 89.4746 180.506 89.482C181.054 89.4895 181.595 89.6114 182.093 89.84C182.591 90.0685 183.034 90.3985 183.394 90.8082C183.754 91.218 184.022 91.6983 184.181 92.2177C184.23 92.3823 184.268 92.5502 184.294 92.72L199.85 100.348L203.45 97.9887L207.93 103.088L202.433 107.502C201.772 108.029 200.957 108.331 200.108 108.363C199.26 108.396 198.424 108.157 197.724 107.682L181.94 96.8894C181.823 96.9387 181.703 96.9819 181.581 97.019C181.056 97.1761 180.503 97.2217 179.958 97.1527C179.414 97.0838 178.891 96.9019 178.422 96.6189C177.954 96.3359 177.551 95.9583 177.241 95.5108C176.93 95.0632 176.719 94.5559 176.621 94.022C176.592 93.867 176.572 93.7104 176.563 93.553C176.519 92.765 176.721 91.9826 177.14 91.3111C177.56 90.6396 178.177 90.1112 178.909 89.797Z" fill="#FFB8B8"/>
<path d="M211.309 136.76H194.312C194.312 137.244 176.793 137.636 176.793 137.636C176.518 137.84 176.268 138.075 176.046 138.336C175.381 139.121 175.017 140.113 175.02 141.137V141.837C175.02 142.997 175.486 144.11 176.316 144.931C177.146 145.751 178.272 146.212 179.445 146.213H211.309C212.483 146.212 213.608 145.75 214.438 144.93C215.267 144.11 215.734 142.997 215.735 141.837V141.137C215.733 139.976 215.266 138.864 214.437 138.044C213.607 137.224 212.483 136.762 211.309 136.76Z" fill="#3F3D56"/>
<path d="M192.82 175.446H197.422V146.039H192.82V175.446Z" fill="#3F3D56"/>
<path d="M179.72 175.286C179.72 175.778 186.695 175.476 195.298 175.476C203.902 175.476 210.876 175.778 210.876 175.286C210.876 174.795 203.902 170.895 195.298 170.895C186.695 170.895 179.72 174.795 179.72 175.286Z" fill="#3F3D56"/>
<path d="M183.875 171.84L179.535 171.839L177.47 160.708L183.876 160.708L183.875 171.84Z" fill="#FFB8B8"/>
<path d="M184.982 176L170.986 176V175.824C170.986 175.117 171.127 174.417 171.401 173.763C171.675 173.11 172.076 172.516 172.582 172.016C173.088 171.515 173.688 171.119 174.349 170.848C175.01 170.577 175.718 170.438 176.434 170.438H176.434L184.982 170.438L184.982 176Z" fill="#2F2E41"/>
<path d="M177.383 164.937L168.73 145.749C168.007 144.132 167.927 142.305 168.506 140.632C169.085 138.959 170.279 137.563 171.852 136.722L190.621 126.77L199.186 126.05L207.086 125.34L207.143 125.435C207.216 125.557 208.915 128.458 207.767 131.639C206.896 134.052 204.63 135.937 201.033 137.241C192.637 140.286 182.938 142.887 179.158 143.864C178.991 143.907 178.835 143.983 178.7 144.09C178.565 144.196 178.454 144.329 178.375 144.48C178.296 144.63 178.249 144.795 178.237 144.963C178.225 145.132 178.248 145.301 178.306 145.46L186.345 163.32C186.429 163.546 186.459 163.789 186.433 164.029C186.407 164.269 186.326 164.499 186.196 164.703C186.065 164.907 185.89 165.079 185.682 165.205C185.474 165.331 185.239 165.408 184.996 165.431L178.989 165.863C178.938 165.868 178.887 165.87 178.837 165.87C178.529 165.87 178.228 165.782 177.97 165.616C177.712 165.45 177.508 165.214 177.383 164.937Z" fill="#2F2E41"/>
<path d="M185.999 171.84L181.659 171.839L179.594 160.708L186 160.708L185.999 171.84Z" fill="#FFB8B8"/>
<path d="M187.106 176L173.111 176V175.824C173.111 175.117 173.251 174.417 173.525 173.763C173.799 173.11 174.2 172.516 174.706 172.016C175.212 171.515 175.813 171.119 176.473 170.848C177.134 170.577 177.843 170.438 178.558 170.438H178.558L187.107 170.438L187.106 176Z" fill="#2F2E41"/>
<path d="M179.861 165.987L171.208 146.799C170.486 145.182 170.406 143.355 170.984 141.682C171.563 140.01 172.758 138.614 174.33 137.773L193.1 127.821L201.664 127.1L209.565 126.39L209.622 126.486C209.695 126.607 211.393 129.508 210.245 132.69C209.374 135.103 207.109 136.987 203.512 138.292C195.116 141.336 185.417 143.938 181.636 144.915C181.469 144.957 181.313 145.034 181.178 145.14C181.043 145.246 180.933 145.379 180.853 145.531C180.774 145.68 180.727 145.845 180.715 146.013C180.703 146.182 180.727 146.351 180.784 146.511L188.823 164.37C188.907 164.597 188.937 164.839 188.912 165.079C188.886 165.319 188.804 165.55 188.674 165.754C188.544 165.958 188.368 166.129 188.16 166.255C187.952 166.381 187.717 166.459 187.474 166.481L181.468 166.913C181.417 166.918 181.366 166.921 181.315 166.921C181.008 166.92 180.707 166.832 180.449 166.666C180.191 166.501 179.987 166.265 179.861 165.987Z" fill="#2F2E41"/>
<path d="M175.548 107.372C171.912 102.589 169.038 97.2844 167.025 91.6418C166.908 91.3043 166.916 90.9368 167.048 90.6047C167.18 90.2727 167.426 89.9976 167.744 89.8285L180.187 83.2359C180.388 83.1284 180.612 83.0678 180.84 83.0586C181.069 83.0494 181.297 83.0919 181.506 83.1829C181.719 83.2746 181.909 83.4132 182.06 83.5881C182.211 83.7631 182.319 83.9698 182.377 84.1926C183.826 89.63 186.548 94.6539 190.324 98.8579C190.48 99.0291 190.594 99.233 190.657 99.4542C190.721 99.6754 190.733 99.9081 190.692 100.135C190.652 100.357 190.562 100.568 190.428 100.751C190.293 100.935 190.119 101.085 189.917 101.191L177.474 107.784C177.155 107.952 176.787 108.002 176.435 107.927C176.082 107.851 175.768 107.655 175.548 107.372Z" fill="#CCCCCC"/>
<path d="M176.397 106.741C176.464 106.823 176.558 106.88 176.663 106.902C176.768 106.923 176.877 106.908 176.972 106.858L189.415 100.265C189.475 100.234 189.528 100.189 189.568 100.135C189.608 100.08 189.635 100.018 189.646 99.9511C189.659 99.881 189.655 99.8088 189.635 99.7403C189.615 99.6718 189.58 99.6088 189.531 99.5563C185.643 95.2284 182.841 90.0564 181.35 84.4588C181.333 84.3896 181.299 84.3254 181.253 84.271C181.206 84.2166 181.148 84.1737 181.082 84.1455C181.019 84.1179 180.951 84.105 180.883 84.1078C180.815 84.1106 180.748 84.129 180.688 84.1615L168.246 90.7542C168.151 90.8045 168.078 90.8859 168.038 90.9841C167.998 91.0824 167.994 91.1914 168.026 91.2923C170.003 96.8339 172.826 102.044 176.397 106.741Z" fill="white"/>
<path d="M216.886 105.613L207.141 109.275L204.762 102.74C204.446 101.872 204.45 100.922 204.774 100.057C205.098 99.1922 205.721 98.4685 206.533 98.0138C207.354 97.5539 208.314 97.3993 209.24 97.5781C210.166 97.7568 210.997 98.2571 211.582 98.9886L216.886 105.613Z" fill="#5669B3"/>
<path d="M192.099 131.505C191.894 131.362 191.723 131.177 191.595 130.963C191.468 130.749 191.389 130.51 191.362 130.263C190.114 118.742 190.983 109.726 194.019 102.699C194.554 101.487 195.36 100.411 196.376 99.5511C197.391 98.6913 198.591 98.0704 199.885 97.735L207.762 97.3418L207.803 97.3613C209.58 98.2222 211.03 99.6266 211.937 101.366C212.844 103.106 213.159 105.089 212.837 107.02C210.303 113.623 208.182 120.499 209.8 126.045C209.868 126.277 209.888 126.52 209.858 126.76C209.829 127 209.751 127.231 209.629 127.44C209.51 127.642 209.351 127.818 209.162 127.957C208.972 128.096 208.755 128.195 208.525 128.248L193.522 131.778C193.279 131.835 193.026 131.84 192.781 131.793C192.536 131.746 192.303 131.648 192.099 131.505Z" fill="#5669B3"/>
<path d="M205.133 94.4326C209.936 94.4326 213.829 90.5829 213.829 85.8341C213.829 81.0853 209.936 77.2356 205.133 77.2356C200.33 77.2356 196.437 81.0853 196.437 85.8341C196.437 90.5829 200.33 94.4326 205.133 94.4326Z" fill="#FFB8B8"/>
<path d="M181.004 92.6442L174.227 95.6023C173.969 95.7145 173.677 95.721 173.414 95.6204C173.152 95.5197 172.94 95.3202 172.826 95.0656L172.659 94.6902C172.545 94.4353 172.539 94.1463 172.64 93.8867C172.742 93.6271 172.944 93.4179 173.201 93.3052L179.978 90.3471C180.236 90.235 180.528 90.2285 180.791 90.3291C181.053 90.4297 181.265 90.6292 181.379 90.8838L181.547 91.2593C181.66 91.5141 181.667 91.8031 181.565 92.0627C181.463 92.3224 181.261 92.5315 181.004 92.6442Z" fill="#CCCCCC"/>
<path d="M183.482 97.1953L176.705 100.153C176.447 100.266 176.155 100.272 175.893 100.171C175.63 100.071 175.419 99.8713 175.305 99.6166L175.137 99.2412C175.024 98.9863 175.017 98.6974 175.119 98.4377C175.22 98.1781 175.422 97.969 175.68 97.8562L182.457 94.8982C182.714 94.786 183.007 94.7795 183.269 94.8801C183.532 94.9807 183.743 95.1802 183.857 95.4348L184.025 95.8103C184.138 96.0652 184.145 96.3541 184.043 96.6138C183.941 96.8734 183.74 97.0825 183.482 97.1953Z" fill="#CCCCCC"/>
<path d="M188.708 114.972L173.6 103.186C173.479 103.228 173.357 103.264 173.233 103.293C172.7 103.416 172.146 103.427 171.608 103.325C171.07 103.223 170.56 103.011 170.111 102.701C169.659 102.391 169.279 101.989 168.996 101.522C168.714 101.055 168.535 100.534 168.473 99.9935C168.372 99.1293 168.569 98.2566 169.032 97.517C169.495 96.7774 170.198 96.2143 171.025 95.9191C171.542 95.7359 172.092 95.6626 172.639 95.7042C173.186 95.7457 173.718 95.9011 174.2 96.1602C174.683 96.4192 175.104 96.776 175.437 97.2073C175.77 97.6386 176.007 98.1346 176.133 98.6628C176.172 98.8302 176.199 99.0001 176.214 99.1712L191.254 107.751L194.997 105.62L199.143 110.988L193.332 115.083C192.652 115.559 191.835 115.805 191.002 115.785C190.169 115.765 189.365 115.48 188.708 114.972Z" fill="#FFB8B8"/>
<path d="M200.987 112.659L192.366 106.863L196.418 101.189C196.956 100.436 197.746 99.8944 198.648 99.6612C199.55 99.428 200.507 99.5178 201.349 99.9146C202.201 100.316 202.879 101.005 203.262 101.858C203.645 102.711 203.706 103.671 203.436 104.565L200.987 112.659Z" fill="#5669B3"/>
<path d="M201.945 84.5533C199.71 86.0658 196.775 87.6206 194.493 86.0099C192.994 84.9523 192.522 82.9937 193.129 81.275C194.222 78.1843 197.225 76.8236 200.097 75.7806C203.83 74.4247 207.895 73.346 211.749 74.317C215.603 75.2881 219.009 78.9777 218.313 82.8496C217.754 85.9634 214.784 88.5543 215.205 91.6892C215.63 94.8442 219.218 96.5049 222.386 97.0688C225.554 97.6327 229.099 97.8139 231.375 100.064C234.28 102.934 233.554 108.064 230.822 111.095C228.089 114.125 223.965 115.499 219.969 116.433C214.674 117.67 208.948 118.32 203.919 116.267C198.89 114.214 194.977 108.686 196.434 103.503C197.049 101.314 198.499 99.4633 199.9 97.6619C201.3 95.8606 202.719 93.9769 203.253 91.7669C203.699 89.9252 203.369 87.7869 202.134 86.4054C201.909 86.1636 201.768 85.8576 201.73 85.5314C201.692 85.2051 201.76 84.8755 201.923 84.5897L201.945 84.5533Z" fill="#2F2E41"/>
<path d="M38.6166 126.33C36.3758 127.109 33.97 127.304 31.6309 126.897C29.2918 126.489 27.0982 125.493 25.2615 124.004C20.5839 120.122 19.1173 113.726 17.924 107.804C16.7475 101.965 15.5709 96.126 14.3944 90.2871L21.7839 95.3184C27.098 98.9365 32.5319 102.671 36.2113 107.911C39.8908 113.152 41.4969 120.306 38.5406 125.977" fill="#E6E6E6"/>
<path d="M37.985 147.538C38.7329 142.151 39.502 136.695 38.9773 131.25C38.5114 126.415 37.0195 121.692 33.9822 117.819C32.3699 115.768 30.4082 114.01 28.1851 112.625C27.6054 112.263 27.0718 113.172 27.649 113.532C31.4956 115.936 34.4708 119.485 36.1457 123.669C37.9955 128.322 38.2926 133.393 37.9738 138.335C37.7811 141.324 37.3725 144.293 36.9608 147.259C36.9283 147.393 36.9486 147.534 37.0174 147.654C37.0863 147.774 37.1986 147.864 37.3317 147.905C37.4675 147.941 37.6122 147.923 37.7345 147.854C37.8568 147.785 37.9468 147.672 37.985 147.538Z" fill="#F2F2F2"/>
<path d="M30.7811 138.006C29.8201 139.45 28.4992 140.625 26.9455 141.418C25.3918 142.211 23.6579 142.595 21.9106 142.533C17.4202 142.322 13.6766 139.223 10.3067 136.281L0.339111 127.579L6.93599 127.266C11.6801 127.042 16.5465 126.833 21.0651 128.279C25.5837 129.726 29.751 133.207 30.5772 137.832" fill="#E6E6E6"/>
<path d="M40.0986 150.635C36.4988 144.336 32.3233 137.336 24.8623 135.099C22.7878 134.479 20.6126 134.257 18.4537 134.445C17.7733 134.503 17.9432 135.54 18.6224 135.482C22.2411 135.185 25.8528 136.13 28.8495 138.157C31.7332 140.098 33.9785 142.796 35.8788 145.658C37.0428 147.411 38.0855 149.238 39.1284 151.062C39.4616 151.645 40.4358 151.225 40.0986 150.635Z" fill="#F2F2F2"/>
<path d="M45.8666 157.264C45.7453 155.875 45.2407 154.545 44.4078 153.419C43.5748 152.293 42.4455 151.415 41.1427 150.88V147.239H34.9664V150.995C33.7277 151.556 32.6617 152.432 31.877 153.533C31.0924 154.635 30.6171 155.922 30.4997 157.264L29.0474 173.958H47.319L45.8666 157.264Z" fill="#F2F2F2"/>
</g>
<defs>
<clipPath id="clip0_59_7">
<rect width="245" height="175" fill="white"/>
</clipPath>
</defs>
</svg>
