<svg width="275" height="164" viewBox="0 0 275 164" fill="none" xmlns="http://www.w3.org/2000/svg">
<circle cx="7.5" cy="7.5" r="7.5" fill="#226CF5"/>
<ellipse cx="7.5" cy="37" rx="7.5" ry="7" fill="#226CF5"/>
<circle cx="7.5" cy="66.5" r="7.5" fill="#226CF5"/>
<circle cx="7.5" cy="96.5" r="7.5" fill="#226CF5"/>
<circle cx="50.5" cy="7.5" r="7.5" fill="#226CF5"/>
<ellipse cx="50.5" cy="37" rx="7.5" ry="7" fill="#226CF5"/>
<circle cx="50.5" cy="66.5" r="7.5" fill="#226CF5"/>
<circle cx="50.5" cy="96.5" r="7.5" fill="#226CF5"/>
<circle cx="94.5" cy="7.5" r="7.5" fill="#226CF5"/>
<ellipse cx="94.5" cy="37" rx="7.5" ry="7" fill="#226CF5"/>
<circle cx="94.5" cy="66.5" r="7.5" fill="#226CF5"/>
<circle cx="94.5" cy="96.5" r="7.5" fill="#226CF5"/>
<circle cx="137.5" cy="7.5" r="7.5" fill="#226CF5"/>
<ellipse cx="137.5" cy="37" rx="7.5" ry="7" fill="#226CF5"/>
<circle cx="137.5" cy="66.5" r="7.5" fill="#226CF5"/>
<circle cx="137.5" cy="96.5" r="7.5" fill="#226CF5"/>
<circle cx="180.5" cy="7.5" r="7.5" fill="#226CF5"/>
<ellipse cx="180.5" cy="37" rx="7.5" ry="7" fill="#226CF5"/>
<circle cx="180.5" cy="66.5" r="7.5" fill="#226CF5"/>
<circle cx="180.5" cy="96.5" r="7.5" fill="#226CF5"/>
<circle cx="224.5" cy="7.5" r="7.5" fill="#226CF5"/>
<ellipse cx="224.5" cy="37" rx="7.5" ry="7" fill="#226CF5"/>
<circle cx="224.5" cy="66.5" r="7.5" fill="#226CF5"/>
<circle cx="224.5" cy="96.5" r="7.5" fill="#226CF5"/>
<circle cx="267.5" cy="7.5" r="7.5" fill="#226CF5"/>
<ellipse cx="267.5" cy="37" rx="7.5" ry="7" fill="#226CF5"/>
<circle cx="267.5" cy="66.5" r="7.5" fill="#226CF5"/>
<circle cx="267.5" cy="96.5" r="7.5" fill="#226CF5"/>
<circle cx="7.5" cy="96.5" r="7.5" fill="#226CF5"/>
<circle cx="50.5" cy="96.5" r="7.5" fill="#226CF5"/>
<circle cx="94.5" cy="96.5" r="7.5" fill="#226CF5"/>
<circle cx="137.5" cy="96.5" r="7.5" fill="#226CF5"/>
<circle cx="180.5" cy="96.5" r="7.5" fill="#226CF5"/>
<circle cx="224.5" cy="96.5" r="7.5" fill="#226CF5"/>
<circle cx="267.5" cy="96.5" r="7.5" fill="#226CF5"/>
<circle cx="7.5" cy="126.5" r="7.5" fill="#226CF5"/>
<circle cx="50.5" cy="126.5" r="7.5" fill="#226CF5"/>
<circle cx="94.5" cy="126.5" r="7.5" fill="#226CF5"/>
<circle cx="137.5" cy="126.5" r="7.5" fill="#226CF5"/>
<circle cx="180.5" cy="126.5" r="7.5" fill="#226CF5"/>
<circle cx="224.5" cy="126.5" r="7.5" fill="#226CF5"/>
<circle cx="267.5" cy="126.5" r="7.5" fill="#226CF5"/>
<circle cx="7.5" cy="126.5" r="7.5" fill="#226CF5"/>
<circle cx="50.5" cy="126.5" r="7.5" fill="#226CF5"/>
<circle cx="94.5" cy="126.5" r="7.5" fill="#226CF5"/>
<circle cx="137.5" cy="126.5" r="7.5" fill="#226CF5"/>
<circle cx="180.5" cy="126.5" r="7.5" fill="#226CF5"/>
<circle cx="224.5" cy="126.5" r="7.5" fill="#226CF5"/>
<circle cx="267.5" cy="126.5" r="7.5" fill="#226CF5"/>
<circle cx="7.5" cy="156.5" r="7.5" fill="#226CF5"/>
<circle cx="50.5" cy="156.5" r="7.5" fill="#226CF5"/>
<circle cx="94.5" cy="156.5" r="7.5" fill="#226CF5"/>
<circle cx="137.5" cy="156.5" r="7.5" fill="#226CF5"/>
<circle cx="180.5" cy="156.5" r="7.5" fill="#226CF5"/>
<circle cx="224.5" cy="156.5" r="7.5" fill="#226CF5"/>
<circle cx="267.5" cy="156.5" r="7.5" fill="#226CF5"/>
<circle cx="7.5" cy="156.5" r="7.5" fill="#226CF5"/>
<circle cx="50.5" cy="156.5" r="7.5" fill="#226CF5"/>
<circle cx="94.5" cy="156.5" r="7.5" fill="#226CF5"/>
<circle cx="137.5" cy="156.5" r="7.5" fill="#226CF5"/>
<circle cx="180.5" cy="156.5" r="7.5" fill="#226CF5"/>
<circle cx="224.5" cy="156.5" r="7.5" fill="#226CF5"/>
<circle cx="267.5" cy="156.5" r="7.5" fill="#226CF5"/>
</svg>
