<svg width="158" height="46" viewBox="0 0 158 46" fill="none" xmlns="http://www.w3.org/2000/svg">
<rect x="0.9375" y="0.234375" width="156.125" height="45.1875" rx="8" fill="#FDAF4D"/>
<path d="M32.5653 28.2344V16.598H39.5881V17.848H33.9744V21.7798H39.2244V23.0298H33.9744V26.9844H39.679V28.2344H32.5653ZM43.2869 22.9844V28.2344H41.946V19.5071H43.2415V20.8707H43.3551C43.5597 20.4276 43.8703 20.0715 44.2869 19.8026C44.7036 19.5298 45.2415 19.3935 45.9006 19.3935C46.4915 19.3935 47.0085 19.5147 47.4517 19.7571C47.8949 19.9957 48.2396 20.3594 48.4858 20.848C48.732 21.3329 48.8551 21.9465 48.8551 22.6889V28.2344H47.5142V22.7798C47.5142 22.0942 47.3362 21.5601 46.9801 21.1776C46.6241 20.7912 46.1354 20.598 45.5142 20.598C45.0862 20.598 44.7036 20.6908 44.3665 20.8764C44.0331 21.062 43.7699 21.3329 43.5767 21.6889C43.3835 22.045 43.2869 22.4768 43.2869 22.9844ZM57.2599 31.5071V26.8935H57.1463C57.0478 27.0526 56.9077 27.2533 56.7259 27.4957C56.544 27.7344 56.2846 27.9484 55.9474 28.1378C55.6103 28.3234 55.1615 28.4162 54.6009 28.4162C53.8736 28.4162 53.2315 28.2325 52.6747 27.8651C52.1179 27.4938 51.6823 26.9711 51.3679 26.2969C51.0535 25.6188 50.8963 24.8177 50.8963 23.8935C50.8963 22.9768 51.0535 22.1813 51.3679 21.5071C51.6823 20.8329 52.1198 20.312 52.6804 19.9446C53.241 19.5772 53.8887 19.3935 54.6236 19.3935C55.1918 19.3935 55.6406 19.4882 55.9702 19.6776C56.3035 19.8632 56.5573 20.0753 56.7315 20.3139C56.9096 20.5488 57.0478 20.742 57.1463 20.8935H57.3054V19.5071H58.6009V31.5071H57.2599ZM54.7827 27.2116C55.3205 27.2116 55.7751 27.0715 56.1463 26.7912C56.5175 26.5071 56.7997 26.1151 56.9929 25.6151C57.1861 25.1113 57.2827 24.5298 57.2827 23.8707C57.2827 23.2192 57.188 22.6491 56.9986 22.1605C56.8092 21.6681 56.5289 21.2855 56.1577 21.0128C55.7865 20.7363 55.3281 20.598 54.7827 20.598C54.2145 20.598 53.741 20.7438 53.3622 21.0355C52.9872 21.3234 52.705 21.7154 52.5156 22.2116C52.33 22.7041 52.2372 23.2571 52.2372 23.8707C52.2372 24.492 52.3319 25.0563 52.5213 25.5639C52.7145 26.0677 52.9986 26.4692 53.3736 26.7685C53.7524 27.0639 54.2221 27.2116 54.7827 27.2116ZM66.5554 24.6662V19.5071H67.8963V28.2344H66.5554V26.7571H66.4645C66.2599 27.2003 65.9418 27.5772 65.5099 27.8878C65.0781 28.1946 64.5327 28.348 63.8736 28.348C63.3281 28.348 62.8433 28.2287 62.419 27.9901C61.9948 27.7476 61.6615 27.384 61.419 26.8991C61.1766 26.4105 61.0554 25.795 61.0554 25.0526V19.5071H62.3963V24.9616C62.3963 25.598 62.5743 26.1056 62.9304 26.4844C63.2902 26.8632 63.7486 27.0526 64.3054 27.0526C64.6387 27.0526 64.9777 26.9673 65.3224 26.7969C65.6709 26.6264 65.9626 26.3651 66.1974 26.0128C66.4361 25.6605 66.5554 25.2116 66.5554 24.6662ZM70.3523 28.2344V19.5071H71.6932V28.2344H70.3523ZM71.0341 18.0526C70.7727 18.0526 70.5473 17.9635 70.358 17.7855C70.1723 17.6075 70.0795 17.3935 70.0795 17.1435C70.0795 16.8935 70.1723 16.6795 70.358 16.5014C70.5473 16.3234 70.7727 16.2344 71.0341 16.2344C71.2955 16.2344 71.5189 16.3234 71.7045 16.5014C71.8939 16.6795 71.9886 16.8935 71.9886 17.1435C71.9886 17.3935 71.8939 17.6075 71.7045 17.7855C71.5189 17.9635 71.2955 18.0526 71.0341 18.0526ZM74.1491 28.2344V19.5071H75.4446V20.8253H75.5355C75.6946 20.3935 75.9825 20.0431 76.3991 19.7741C76.8158 19.5052 77.2855 19.3707 77.8082 19.3707C77.9067 19.3707 78.0298 19.3726 78.1776 19.3764C78.3253 19.3802 78.437 19.3859 78.5128 19.3935V20.7571C78.4673 20.7457 78.3632 20.7287 78.2003 20.706C78.0412 20.6795 77.8726 20.6662 77.6946 20.6662C77.2704 20.6662 76.8916 20.7552 76.5582 20.9332C76.2287 21.1075 75.9673 21.3499 75.7741 21.6605C75.5848 21.9673 75.4901 22.3177 75.4901 22.7116V28.2344H74.1491ZM83.4957 28.4162C82.6548 28.4162 81.9295 28.2306 81.3196 27.8594C80.7135 27.4844 80.2457 26.9616 79.9162 26.2912C79.5904 25.617 79.4276 24.8329 79.4276 23.9389C79.4276 23.045 79.5904 22.2571 79.9162 21.5753C80.2457 20.8897 80.7041 20.3556 81.2912 19.973C81.8821 19.5866 82.5715 19.3935 83.3594 19.3935C83.8139 19.3935 84.2628 19.4692 84.706 19.6207C85.1491 19.7723 85.5526 20.0185 85.9162 20.3594C86.2798 20.6965 86.5696 21.1435 86.7855 21.7003C87.0014 22.2571 87.1094 22.9427 87.1094 23.7571V24.3253H80.3821V23.1662H85.7457C85.7457 22.6738 85.6473 22.2344 85.4503 21.848C85.2571 21.4616 84.9806 21.1567 84.6207 20.9332C84.2647 20.7098 83.8442 20.598 83.3594 20.598C82.8253 20.598 82.3632 20.7306 81.973 20.9957C81.5866 21.2571 81.2893 21.598 81.081 22.0185C80.8726 22.4389 80.7685 22.8897 80.7685 23.3707V24.1435C80.7685 24.8026 80.8821 25.3613 81.1094 25.8196C81.3404 26.2741 81.6605 26.6207 82.0696 26.8594C82.4787 27.0942 82.9541 27.2116 83.4957 27.2116C83.848 27.2116 84.1662 27.1624 84.4503 27.0639C84.7382 26.9616 84.9863 26.8101 85.1946 26.6094C85.4029 26.4048 85.5639 26.151 85.6776 25.848L86.973 26.2116C86.8366 26.651 86.6075 27.0374 86.2855 27.3707C85.9635 27.7003 85.5658 27.9579 85.0923 28.1435C84.6188 28.3253 84.0866 28.4162 83.4957 28.4162ZM103.058 16.598V28.2344H101.695L95.3537 19.098H95.2401V28.2344H93.831V16.598H95.1946L101.558 25.7571H101.672V16.598H103.058ZM109.241 28.4162C108.454 28.4162 107.762 28.2287 107.168 27.8537C106.577 27.4787 106.115 26.9541 105.781 26.2798C105.452 25.6056 105.287 24.8177 105.287 23.9162C105.287 23.0071 105.452 22.2135 105.781 21.5355C106.115 20.8575 106.577 20.331 107.168 19.956C107.762 19.581 108.454 19.3935 109.241 19.3935C110.029 19.3935 110.719 19.581 111.31 19.956C111.904 20.331 112.366 20.8575 112.696 21.5355C113.029 22.2135 113.196 23.0071 113.196 23.9162C113.196 24.8177 113.029 25.6056 112.696 26.2798C112.366 26.9541 111.904 27.4787 111.31 27.8537C110.719 28.2287 110.029 28.4162 109.241 28.4162ZM109.241 27.2116C109.84 27.2116 110.332 27.0582 110.719 26.7514C111.105 26.4446 111.391 26.0412 111.577 25.5412C111.762 25.0412 111.855 24.4995 111.855 23.9162C111.855 23.3329 111.762 22.7893 111.577 22.2855C111.391 21.7817 111.105 21.3745 110.719 21.0639C110.332 20.7533 109.84 20.598 109.241 20.598C108.643 20.598 108.151 20.7533 107.764 21.0639C107.378 21.3745 107.092 21.7817 106.906 22.2855C106.721 22.7893 106.628 23.3329 106.628 23.9162C106.628 24.4995 106.721 25.0412 106.906 25.5412C107.092 26.0412 107.378 26.4446 107.764 26.7514C108.151 27.0582 108.643 27.2116 109.241 27.2116ZM116.923 28.2344L114.264 19.5071H115.673L117.56 26.1889H117.651L119.514 19.5071H120.946L122.787 26.1662H122.878L124.764 19.5071H126.173L123.514 28.2344H122.196L120.287 21.5298H120.151L118.241 28.2344H116.923Z" fill="white"/>
</svg>
