<svg width="72" height="72" viewBox="0 0 72 72" fill="none" xmlns="http://www.w3.org/2000/svg">
<rect width="72" height="72" rx="36" fill="#71FFAA" fill-opacity="0.61"/>
<path d="M24 54C22.9 54 21.958 53.608 21.174 52.824C20.39 52.04 19.9987 51.0987 20 50V32C20 31.3667 20.142 30.7667 20.426 30.2C20.71 29.6333 21.1013 29.1667 21.6 28.8L33.6 19.8C33.9667 19.5333 34.35 19.3333 34.75 19.2C35.15 19.0667 35.5667 19 36 19C36.4333 19 36.85 19.0667 37.25 19.2C37.65 19.3333 38.0333 19.5333 38.4 19.8L50.4 28.8C50.9 29.1667 51.292 29.6333 51.576 30.2C51.86 30.7667 52.0013 31.3667 52 32V50C52 51.1 51.608 52.042 50.824 52.826C50.04 53.61 49.0987 54.0013 48 54H40V40H32V54H24Z" fill="#046908" fill-opacity="0.61"/>
</svg>
