<svg width="171" height="171" viewBox="0 0 171 171" fill="none" xmlns="http://www.w3.org/2000/svg">
<g clip-path="url(#clip0_59_72)">
<path d="M171 86.5C171.01 95.8493 169.485 105.137 166.485 113.992C166.313 114.497 166.136 115.002 165.956 115.504C162.779 124.291 158.184 132.499 152.354 139.801C150.614 141.984 148.77 144.077 146.822 146.079C144.874 148.085 142.83 149.993 140.688 151.804C128.742 161.935 114.23 168.57 98.7524 170.978H98.7499C96.7768 171.284 94.7843 171.523 92.7725 171.694C90.3769 171.896 87.9528 171.998 85.4999 172C74.0933 172.015 62.7997 169.74 52.2884 165.31C41.7771 160.88 32.2619 154.386 24.3067 146.211C23.7477 145.639 23.197 145.059 22.6549 144.471C21.3041 143.006 20.0047 141.496 18.7568 139.94C18.0561 139.065 17.3723 138.176 16.7053 137.274C12.597 131.724 9.17888 125.694 6.52623 119.319C5.395 116.603 4.40711 113.831 3.56662 111.012C3.50591 110.812 3.44773 110.612 3.38955 110.412C3.26307 109.982 3.14081 109.55 3.02276 109.114C1.01051 101.745 -0.00614118 94.1393 -9.52632e-05 86.5C-9.52632e-05 39.2802 38.2801 1 85.4999 1C132.72 1 171 39.2802 171 86.5Z" fill="#F2F2F2"/>
<path d="M36.2611 52.1056C36.1287 52.9093 36.1742 53.7323 36.3943 54.5165C36.6143 55.3007 37.0037 56.0272 37.5349 56.6446C38.0661 57.2621 38.7262 57.7556 39.4688 58.0904C40.2114 58.4251 41.0183 58.593 41.8327 58.5821L55.4809 98.2948L64.1895 92.3098L47.3782 52.5353C47.2693 51.1683 46.6627 49.8887 45.6734 48.939C44.6841 47.9894 43.3808 47.4356 42.0105 47.3826C40.6402 47.3296 39.298 47.7812 38.2384 48.6517C37.1787 49.5222 36.4752 50.7511 36.2611 52.1056Z" fill="#A0616A"/>
<path d="M107.496 65.5424C101.435 72.4381 86.4905 84.5902 74.179 92.9581C71.5178 94.7667 68.9781 96.3958 66.6787 97.7592C65.1256 98.68 63.6812 99.4768 62.381 100.127C61.5083 100.562 60.5553 100.811 59.5816 100.861C58.6079 100.91 57.6345 100.758 56.7224 100.414C55.8103 100.069 54.9791 99.5402 54.2809 98.8597C53.5827 98.1793 53.0325 97.362 52.6648 96.459L44.1401 75.8353L47.0896 73.8799L54.3622 69.056L56.014 67.9632L62.8338 84.2057L70.0254 78.4332L74.4901 74.8488L94.8432 58.5152L96.5987 57.9941L100.694 61.9909L103.59 64.819L106.315 65.292C106.722 65.3628 107.117 65.4463 107.496 65.5424Z" fill="#5669B3"/>
<path d="M161.873 122.208C162.296 122.744 162.733 123.278 163.171 123.814C161.664 126.91 159.969 129.91 158.097 132.8C157.957 132.701 157.818 132.602 157.679 132.504C157.657 132.492 157.636 132.478 157.616 132.463C157.097 132.094 156.576 131.73 156.058 131.36V131.358C155.63 129.902 155.391 128.397 155.347 126.88C155.614 126.819 155.857 126.677 156.04 126.473C156.224 126.27 156.341 126.014 156.375 125.742C156.409 125.47 156.359 125.194 156.23 124.951C156.102 124.709 155.902 124.511 155.658 124.386C155.59 124.267 155.542 124.181 155.473 124.06C155.476 124.029 155.481 123.997 155.484 123.966C155.881 120.807 159.908 119.704 161.873 122.208Z" fill="white"/>
<path d="M166.414 111.382C166.717 112.216 166.994 113.06 167.244 113.914C167.072 114.42 166.895 114.924 166.715 115.426C166.647 115.161 166.576 114.895 166.502 114.629C166.091 113.153 165.597 111.7 165.023 110.279C164.552 109.112 164.031 107.971 163.459 106.854C160.351 100.784 155.846 95.5391 150.316 91.5495C148.03 91.0209 145.961 89.8044 144.389 88.0638C143.821 87.4383 143.347 86.7347 142.98 85.9743C143.213 85.9415 143.445 85.8959 143.673 85.8479C143.744 85.8327 143.817 85.815 143.888 85.7998L143.916 85.7947C144.165 85.737 144.392 85.6086 144.569 85.425C144.747 85.2414 144.868 85.0104 144.917 84.7597C144.966 84.509 144.942 84.2495 144.848 84.0121C144.753 83.7748 144.592 83.5699 144.384 83.422C144.255 83.3284 144.123 83.2373 143.994 83.1463C143.797 83.0021 143.597 82.8655 143.397 82.7238C143.376 82.7107 143.356 82.6963 143.336 82.6808C143.109 82.5189 142.881 82.3621 142.656 82.1977C142.831 81.634 143.133 81.1182 143.539 80.69C144.953 79.2305 147.477 79.2634 149.127 80.4523C150.779 81.6412 151.608 83.723 151.714 85.7518C151.808 87.4896 151.434 89.2097 150.94 90.8868C151.064 90.9779 151.193 91.0639 151.317 91.1575C153.595 92.8453 155.701 94.7525 157.606 96.8516C156.505 94.241 156.106 90.8362 156.392 88.4913C156.718 85.82 158.016 83.2829 159.078 80.7558C160.35 77.7203 164.691 77.6798 165.916 80.7356C165.928 80.7659 165.941 80.7938 165.951 80.8241C165.746 81.029 165.549 81.2415 165.359 81.4616C165.121 81.7389 164.972 82.0816 164.932 82.445C164.892 82.8084 164.962 83.1754 165.134 83.498C165.306 83.8206 165.572 84.0837 165.896 84.253C166.22 84.4222 166.587 84.4897 166.95 84.4465L166.988 84.4414C167.146 85.3432 167.235 86.2556 167.256 87.1708C167.288 89.7315 166.79 92.271 165.794 94.6303C164.798 96.9895 163.325 99.1176 161.469 100.881C161.347 100.995 161.228 101.106 161.104 101.215C162.276 102.882 163.329 104.629 164.254 106.444C165.075 108.044 165.796 109.693 166.414 111.382Z" fill="white"/>
<path d="M117.673 87.651L116.909 140.117L55.1969 138.346L65.0522 116.592C64.9813 115.894 69.3777 110.994 69.3525 110.268C69.2766 108.141 70.8651 106.17 71.1232 103.944C71.6493 99.3528 68.6366 82.0151 70.0253 78.4332C70.6169 76.8337 71.3749 75.3008 72.2868 73.8597C73.076 72.6657 73.8855 71.8613 74.6595 71.5704L76.9412 66.2532L78.9649 63.2177L94.8431 58.5152L96.5986 57.9941L100.694 61.9909L103.59 64.819L106.315 65.292C106.722 65.3628 107.117 65.4463 107.496 65.5424C109.324 65.9638 111.027 66.8077 112.469 68.0062C117.225 72.046 117.779 79.6449 117.673 87.651Z" fill="#5669B3"/>
<path d="M153.113 139.723C151.373 141.906 149.529 143.999 147.581 146.002L140.908 146.007L105.021 146.047L98.5602 146.055L94.265 146.06L87.8753 146.065L82.9603 146.07L73.8816 146.08L68.5265 146.088L57.2496 146.098L51.8666 146.105L36.9497 146.12L27.5801 146.131L25.0657 146.133C24.5066 145.561 23.956 144.981 23.4138 144.393C22.063 142.928 20.7637 141.418 19.5157 139.862L24.7216 139.857L28.2681 139.855L36.4792 139.845L52.3245 139.829L57.6796 139.824L59.8449 139.822H59.8525L61.5524 139.819L62.3138 139.817L64.2641 139.814H65.0888L70.8714 139.809L83.3448 139.794L88.834 139.789L94.0905 139.784L99.0181 139.779L106.088 139.771L143.85 139.733L153.113 139.723Z" fill="#CCCCCC"/>
<path d="M67.7337 60.9441L67.72 60.9454C66.9902 61.0133 66.2634 60.7886 65.6993 60.3206C65.1353 59.8526 64.7803 59.1797 64.7124 58.4499L63.2739 43.0955C63.0135 40.3448 63.3088 37.5699 64.1423 34.9357C65.7761 29.7944 69.3309 25.4819 74.0659 22.897C76.5107 21.5658 79.1998 20.7434 81.9711 20.4794C93.3086 19.3992 97.4518 21.7605 104.455 39.0519C111.459 56.3434 105.896 54.4298 105.896 54.4298C105.931 54.7998 105.891 55.1731 105.779 55.5275C105.558 56.2188 105.079 56.7982 104.442 57.1447C104.115 57.322 103.755 57.4319 103.385 57.4676C89.9815 60.8746 76.457 64.4608 67.7314 60.9443L67.7337 60.9441Z" fill="#2F2E41"/>
<path d="M92.6808 35.0281C94.3633 37.5175 95.2704 40.4496 95.2874 43.4542C95.3045 46.4588 94.4307 49.4011 92.7766 51.9094C91.1224 54.4177 88.7621 56.3796 85.9936 57.5473C83.2251 58.7149 80.1727 59.0359 77.2218 58.4698C75.2685 58.1014 73.4077 57.3491 71.7472 56.2564C70.0866 55.1637 68.6595 53.7523 67.5483 52.1041C65.8694 49.6155 64.9648 46.6855 64.9487 43.6836C64.9326 40.6817 65.8057 37.7421 67.4578 35.2357C69.11 32.7293 71.4673 30.7681 74.2325 29.5995C76.9976 28.4309 80.0469 28.1072 82.9958 28.6691C84.9508 29.0354 86.8135 29.7861 88.476 30.8777C90.1386 31.9694 91.5678 33.3803 92.6809 35.0286L92.6808 35.0281Z" fill="#9E616A"/>
<path d="M58.521 44.8013C58.3152 42.6259 58.5488 40.4312 59.208 38.3479C59.3608 33.2515 60.8395 28.6353 67.0554 28.8291C68.9769 27.7838 71.0889 27.1357 73.266 26.9234L76.3377 26.62C76.3722 26.6166 76.4067 26.6133 76.4412 26.6101C78.5694 26.412 80.7157 26.6351 82.7576 27.2665C84.7996 27.8979 86.6971 28.9253 88.342 30.2901C89.9869 31.6549 91.3469 33.3303 92.3443 35.2206C93.3417 37.111 93.9569 39.1793 94.155 41.3074L94.1838 41.615L87.685 42.2503L84.888 36.2648L85.0261 42.5115L81.6696 42.8409L80.259 39.8211L80.3279 42.9707C75.3443 47.3599 67.7872 47.5899 58.5527 45.1092L58.521 44.8013Z" fill="#2F2E41"/>
<path d="M79.3089 59.3716C79.2536 59.8775 79.3413 60.3888 79.5622 60.8473C79.6735 61.0821 79.8172 61.3002 79.989 61.4952C80.136 61.6612 80.3021 61.8093 80.4839 61.9363C81.0223 62.3112 81.6766 62.4819 82.3295 62.4179C82.3701 62.4137 82.4107 62.4087 82.4512 62.403C82.4918 62.3973 82.5322 62.3906 82.5726 62.383C82.6133 62.3757 82.6538 62.3673 82.694 62.3578C82.7341 62.3483 82.7744 62.338 82.8148 62.3269L85.083 61.6914L87.625 54.6036L88.2077 60.823L98.5215 57.9515L96.0488 31.5591L78.4696 33.2912L78.9517 33.7555C80.5536 35.3146 81.6943 37.2855 82.2482 39.4512C82.798 41.6458 82.9677 43.9184 82.7499 46.1703C82.5465 48.4474 82.1249 50.6996 81.4909 52.8961C80.9391 54.841 80.2756 56.7526 79.5039 58.6212C79.4041 58.861 79.3385 59.1136 79.3089 59.3716Z" fill="#2F2E41"/>
<path d="M81.6529 142.583C81.3507 142.583 81.0523 142.515 80.7793 142.386L32.0798 143.628C31.7061 143.451 31.3949 143.165 31.1872 142.807C30.9796 142.45 30.8853 142.037 30.9168 141.625C30.9484 141.213 31.1042 140.82 31.3638 140.498C31.6233 140.176 31.9744 139.94 32.3707 139.822L64.2313 130.322C64.5613 130.224 64.9107 130.211 65.2472 130.284L114.53 136.29C114.966 136.385 115.36 136.619 115.65 136.958C115.94 137.296 116.112 137.721 116.138 138.166C116.165 138.612 116.045 139.054 115.797 139.424C115.549 139.795 115.186 140.075 114.764 140.22L82.3203 142.471C82.1056 142.545 81.8801 142.583 81.6529 142.583Z" fill="#3F3D56"/>
<path d="M83.444 139.193C83.2241 139.193 83.0079 139.137 82.8159 139.03L43.2648 140.877C43.0402 140.751 42.8587 140.561 42.744 140.33C42.6294 140.1 42.5868 139.84 42.6218 139.585C42.6568 139.33 42.7679 139.091 42.9404 138.9C43.113 138.709 43.3392 138.574 43.5894 138.513L57.9078 135.038C58.1313 134.984 58.3651 134.991 58.5851 135.058L95.3535 135.014C95.6152 135.094 95.8445 135.256 96.0077 135.475C96.1708 135.695 96.2594 135.961 96.2604 136.235C96.2613 136.509 96.1746 136.776 96.013 136.997C95.8514 137.218 95.6233 137.381 95.3621 137.463L83.8266 139.135C83.7027 139.173 83.5738 139.193 83.444 139.193Z" fill="#2F2E41"/>
<path d="M79.281 137.085C79.9656 137.526 80.7386 137.812 81.5456 137.923C82.3527 138.033 83.1741 137.965 83.952 137.723C84.7299 137.482 85.4453 137.073 86.048 136.525C86.6507 135.977 87.1259 135.303 87.4402 134.552L129.304 137.84L127.28 127.469L84.1006 127.058C82.8032 126.613 81.3879 126.661 80.1229 127.19C78.8579 127.72 77.8311 128.695 77.237 129.931C76.6429 131.167 76.5229 132.578 76.8996 133.896C77.2763 135.215 78.1236 136.349 79.281 137.085Z" fill="#A0616A"/>
<path d="M104.008 69.5416C104.008 69.5416 110.332 64.4824 117.921 73.5889C123.038 79.7302 132.911 116.856 133.729 132.241C133.781 133.214 133.631 134.188 133.289 135.101C132.947 136.013 132.42 136.846 131.741 137.545C131.062 138.245 130.246 138.797 129.344 139.166C128.442 139.536 127.473 139.715 126.499 139.693L104.185 139.304L101.69 125.278L119.307 125.486L104.008 69.5416Z" fill="#5669B3"/>
<path d="M78.9443 142.589C78.1788 142.588 77.4212 142.435 76.7157 142.138L31.5773 143.168C30.386 142.671 29.3971 141.787 28.7705 140.658C28.1439 139.53 27.9162 138.223 28.1241 136.949L26.4469 97.3078C26.6693 95.8919 27.4146 94.6108 28.5355 93.7175C29.6565 92.8243 31.0716 92.3837 32.5015 92.483L74.4074 94.2211C75.2118 94.2738 75.9961 94.495 76.7095 94.8704C77.4229 95.2458 78.0495 95.7669 78.5485 96.4C79.0475 97.0331 79.4079 97.764 79.6062 98.5454C79.8046 99.3267 79.8365 100.141 79.6999 100.935L84.6097 137.809C84.3788 139.145 83.6841 140.357 82.6479 141.231C81.6116 142.105 80.3002 142.586 78.9443 142.589Z" fill="#3F3D56"/>
<path d="M44.6687 24.5683L25.8309 24.5151C25.326 24.5145 24.8414 24.7142 24.4834 25.0703C24.1254 25.4264 23.9232 25.9099 23.9211 26.4149L23.8528 51.3591C23.8517 51.8635 24.0509 52.3477 24.4067 52.7054C24.7624 53.063 25.2456 53.2648 25.75 53.2664L36.1997 53.2968L44.5903 53.3195C45.0951 53.3205 45.5797 53.1208 45.9373 52.7646C46.295 52.4083 46.4965 51.9246 46.4976 51.4198L46.5027 49.9451L46.5685 26.4781C46.5695 25.973 46.37 25.4882 46.0138 25.1301C45.6576 24.772 45.1738 24.5699 44.6687 24.5683Z" fill="#E6E6E6"/>
<path d="M43.3407 26.0582L27.1513 26.0127C26.6786 26.0121 26.2249 26.1989 25.8897 26.5323C25.5544 26.8656 25.365 27.3183 25.3629 27.791L25.3174 43.8286C25.3142 45.9347 26.1465 47.9561 27.6318 49.4494C29.117 50.9428 31.1339 51.786 33.2401 51.7942L36.316 51.8018L43.2699 51.8221C43.7427 51.8231 44.1967 51.6364 44.532 51.303C44.8673 50.9695 45.0566 50.5166 45.0583 50.0438L45.0633 48.4299L45.119 27.8466C45.12 27.3738 44.9333 26.9198 44.5999 26.5845C44.2665 26.2492 43.8136 26.0599 43.3407 26.0582Z" fill="white"/>
<path d="M41.522 37.0161H28.8993C28.7998 37.0161 28.7013 37.0357 28.6094 37.0738C28.5175 37.1119 28.434 37.1677 28.3636 37.238C28.2933 37.3084 28.2375 37.3919 28.1994 37.4838C28.1613 37.5757 28.1417 37.6742 28.1417 37.7737C28.1417 37.8732 28.1613 37.9717 28.1994 38.0637C28.2375 38.1556 28.2933 38.2391 28.3636 38.3094C28.434 38.3798 28.5175 38.4356 28.6094 38.4737C28.7013 38.5117 28.7998 38.5313 28.8993 38.5313H41.522C41.7229 38.5313 41.9156 38.4515 42.0577 38.3094C42.1998 38.1674 42.2796 37.9747 42.2796 37.7737C42.2796 37.5728 42.1998 37.3801 42.0577 37.238C41.9156 37.0959 41.7229 37.0161 41.522 37.0161Z" fill="#5669B3"/>
<path d="M31.6743 32.8628H28.8993C28.6984 32.8628 28.5057 32.9426 28.3636 33.0847C28.2215 33.2268 28.1417 33.4195 28.1417 33.6204C28.1417 33.8213 28.2215 34.014 28.3636 34.1561C28.5057 34.2982 28.6984 34.378 28.8993 34.378H31.6743C31.8752 34.378 32.0679 34.2982 32.21 34.1561C32.3521 34.014 32.4319 33.8213 32.4319 33.6204C32.4319 33.4195 32.3521 33.2268 32.21 33.0847C32.0679 32.9426 31.8752 32.8628 31.6743 32.8628Z" fill="#5669B3"/>
<path d="M41.522 43.6768H28.8993C28.6984 43.6768 28.5057 43.7566 28.3636 43.8987C28.2215 44.0407 28.1417 44.2334 28.1417 44.4344C28.1417 44.6353 28.2215 44.828 28.3636 44.9701C28.5057 45.1122 28.6984 45.192 28.8993 45.192H41.522C41.7229 45.192 41.9156 45.1122 42.0577 44.9701C42.1998 44.828 42.2796 44.6353 42.2796 44.4344C42.2796 44.2334 42.1998 44.0407 42.0577 43.8987C41.9156 43.7566 41.7229 43.6768 41.522 43.6768Z" fill="#5669B3"/>
<path d="M41.5219 40.3477H28.8993C28.6987 40.3477 28.5063 40.4273 28.3645 40.5692C28.2226 40.711 28.1429 40.9034 28.1429 41.104C28.1429 41.3046 28.2226 41.497 28.3645 41.6388C28.5063 41.7807 28.6987 41.8604 28.8993 41.8604H41.5219C41.7225 41.8604 41.9149 41.7807 42.0567 41.6388C42.1986 41.497 42.2783 41.3046 42.2783 41.104C42.2783 40.9034 42.1986 40.711 42.0567 40.5692C41.9149 40.4273 41.7225 40.3477 41.5219 40.3477Z" fill="#5669B3"/>
<path d="M39.0692 35.5416C38.1828 35.5416 37.3164 35.2788 36.5794 34.7864C35.8424 34.2939 35.268 33.594 34.9288 32.7751C34.5896 31.9562 34.5008 31.0552 34.6738 30.1858C34.8467 29.3165 35.2735 28.518 35.9003 27.8912C36.527 27.2645 37.3255 26.8376 38.1949 26.6647C39.0642 26.4918 39.9653 26.5806 40.7842 26.9198C41.6031 27.2589 42.303 27.8334 42.7954 28.5703C43.2878 29.3073 43.5507 30.1738 43.5507 31.0601C43.5493 32.2483 43.0767 33.3874 42.2366 34.2275C41.3964 35.0677 40.2573 35.5403 39.0692 35.5416ZM39.0692 26.8901C38.2444 26.89 37.4382 27.1346 36.7524 27.5928C36.0666 28.051 35.5321 28.7023 35.2165 29.4643C34.9009 30.2263 34.8183 31.0647 34.9792 31.8737C35.1401 32.6826 35.5373 33.4256 36.1205 34.0088C36.7036 34.592 37.4467 34.9892 38.2556 35.1501C39.0645 35.311 39.903 35.2284 40.665 34.9128C41.4269 34.5972 42.0782 34.0627 42.5364 33.3769C42.9947 32.6911 43.2392 31.8849 43.2392 31.0601C43.238 29.9545 42.7982 28.8946 42.0165 28.1128C41.2347 27.3311 40.1748 26.8913 39.0692 26.8901Z" fill="#5669B3"/>
<path d="M40.9513 32.7959C40.6418 31.1978 39.9971 29.6833 39.0597 28.3524C39.0385 28.3179 39.0089 28.2894 38.9736 28.2697C38.9383 28.2499 38.8985 28.2395 38.858 28.2395C38.8175 28.2395 38.7777 28.2499 38.7424 28.2697C38.7071 28.2894 38.6775 28.3179 38.6563 28.3524C37.8399 29.7804 37.3181 31.3575 37.1216 32.9906C37.0853 33.2883 37.5528 33.2857 37.5888 32.9906C37.6544 32.4614 37.7568 31.9373 37.895 31.4223C37.9129 31.4187 37.9304 31.4134 37.9472 31.4063C38.5684 31.0944 39.2702 30.9801 39.9582 31.0788C39.9642 31.0797 39.97 31.0784 39.9759 31.079C40.2031 31.6766 40.3788 32.2926 40.5009 32.9201C40.5579 33.215 41.0082 33.0902 40.9513 32.7959ZM38.0632 30.8494C38.2776 30.1842 38.5506 29.5393 38.8789 28.9223C39.2264 29.4532 39.5282 30.0128 39.7809 30.5948C39.1965 30.5509 38.6097 30.6378 38.0632 30.8494Z" fill="#5669B3"/>
</g>
<defs>
<clipPath id="clip0_59_72">
<rect width="171" height="171" fill="white"/>
</clipPath>
</defs>
</svg>
