<svg width="219" height="155" viewBox="0 0 219 155" fill="none" xmlns="http://www.w3.org/2000/svg">
<g clip-path="url(#clip0_59_97)">
<path d="M12.9441 130.754L6.22998 125.071C6.99781 120.515 8.86596 116.216 11.6722 112.546C11.8979 120.756 20.312 126.254 23.2074 133.94C24.0921 136.344 24.4246 138.916 24.1801 141.466C23.9357 144.016 23.1207 146.479 21.7955 148.671L21.12 154.873C17.4533 152.962 14.2444 150.279 11.7144 147.008C9.18447 143.737 7.39355 139.957 6.46508 135.927C5.9666 133.661 5.7554 131.342 5.83645 129.023C9.27414 130.069 12.9441 130.754 12.9441 130.754Z" fill="#F2F2F2"/>
<path d="M201.151 141.624L205.84 134.181C210.457 134.305 214.975 135.555 219 137.821C210.903 139.191 206.634 148.292 199.429 152.233C197.173 153.445 194.673 154.133 192.114 154.247C189.555 154.361 187.004 153.898 184.648 152.892L178.413 153.089C179.793 149.191 182.002 145.638 184.887 142.676C187.772 139.713 191.264 137.412 195.124 135.929C197.298 135.119 199.565 134.586 201.872 134.343C201.316 137.893 201.151 141.624 201.151 141.624Z" fill="#F2F2F2"/>
<path d="M52.7406 117.36L26.7434 115.835L30.307 90.6313L53.2158 115.326L52.7406 117.36Z" fill="#F2F2F2"/>
<path d="M49.4317 143.073L22.9592 141.291L26.489 118.381L49.5511 141.295L49.4317 143.073Z" fill="#F2F2F2"/>
<path d="M197.316 36.7549V13.4742C197.316 11.7048 196.968 9.95262 196.291 8.31785C195.614 6.68309 194.621 5.1977 193.37 3.94651C192.119 2.69531 190.634 1.70281 189 1.02566C187.365 0.348522 185.613 0 183.844 0H134.529C132.759 -3.34322e-07 131.007 0.348521 129.373 1.02566C127.738 1.70281 126.253 2.69531 125.002 3.94651C123.751 5.1977 122.759 6.68309 122.082 8.31786C121.405 9.95263 121.056 11.7048 121.056 13.4742V141.194C121.056 144.767 122.476 148.195 125.002 150.722C127.529 153.248 130.955 154.668 134.528 154.668H183.844C187.417 154.668 190.844 153.248 193.37 150.722C195.897 148.195 197.316 144.767 197.316 141.194V53.3265C197.542 53.3265 197.758 53.237 197.917 53.0776C198.076 52.9182 198.166 52.7021 198.166 52.4767V37.6047C198.166 37.3793 198.076 37.1632 197.917 37.0038C197.758 36.8444 197.542 36.7549 197.316 36.7549Z" fill="#3F3D56"/>
<path d="M194.449 13.5667V141.102C194.449 143.751 193.405 146.293 191.542 148.176C189.679 150.059 187.148 151.131 184.499 151.159C184.463 151.162 184.426 151.164 184.389 151.163H134.834C132.166 151.163 129.607 150.103 127.721 148.216C125.834 146.329 124.774 143.77 124.774 141.102V13.5667C124.774 10.8983 125.834 8.33935 127.721 6.45254C129.607 4.56573 132.166 3.50562 134.834 3.50537H140.848C140.552 4.2315 140.439 5.01917 140.519 5.79908C140.6 6.57899 140.87 7.32722 141.307 7.97796C141.745 8.6287 142.335 9.16198 143.027 9.5309C143.719 9.89982 144.49 10.0931 145.274 10.0936H173.527C174.31 10.0915 175.081 9.89714 175.771 9.52767C176.462 9.15821 177.051 8.6249 177.488 7.97453C177.924 7.32415 178.195 6.57659 178.275 5.79739C178.355 5.0182 178.243 4.23118 177.949 3.50537H184.389C187.057 3.50561 189.616 4.56572 191.502 6.45253C193.389 8.33934 194.449 10.8983 194.449 13.5667Z" fill="white"/>
<path d="M183.539 148.05C183.539 149.371 183.497 150.681 183.414 151.981C183.378 151.985 183.341 151.987 183.305 151.986H133.75C131.508 151.986 129.33 151.237 127.562 149.858C125.794 148.479 124.537 146.549 123.991 144.374C123.895 143.994 123.823 143.609 123.775 143.22C123.718 142.791 123.69 142.358 123.691 141.925V85.0891C127.504 85.2777 131.292 85.8128 135.008 86.6879C135.372 86.7719 135.733 86.861 136.092 86.9527C136.115 86.9577 136.138 86.9654 136.161 86.9705C136.525 87.0621 136.886 87.1589 137.245 87.2582C144.906 89.3625 152.097 92.9038 158.436 97.6935C158.8 97.9659 159.161 98.2459 159.52 98.5285L159.589 98.582C160.19 99.0555 160.781 99.5409 161.363 100.038C161.493 100.148 161.623 100.26 161.75 100.374C162.063 100.644 162.376 100.919 162.682 101.197C169.441 107.282 174.807 114.755 178.412 123.106C178.532 123.378 178.646 123.653 178.761 123.928C178.807 124.04 178.853 124.152 178.898 124.264C178.942 124.366 178.982 124.468 179.023 124.57C182.016 132.036 183.549 140.006 183.539 148.05Z" fill="#3F3D56"/>
<path d="M121.329 49.779C121.025 49.7786 120.733 49.6577 120.518 49.4427C120.303 49.2276 120.182 48.9361 120.182 48.632V40.8325C120.182 40.5283 120.303 40.2366 120.518 40.0215C120.733 39.8064 121.025 39.6855 121.329 39.6855C121.633 39.6855 121.925 39.8064 122.14 40.0215C122.355 40.2366 122.476 40.5283 122.476 40.8325V48.632C122.475 48.9361 122.354 49.2276 122.139 49.4426C121.924 49.6577 121.633 49.7786 121.329 49.779Z" fill="#3F3D56"/>
<path d="M121.1 34.6389C120.796 34.6385 120.504 34.5175 120.289 34.3025C120.074 34.0875 119.953 33.796 119.953 33.4919V25.6924C119.953 25.3882 120.074 25.0965 120.289 24.8814C120.504 24.6663 120.796 24.5454 121.1 24.5454C121.404 24.5454 121.696 24.6663 121.911 24.8814C122.126 25.0965 122.246 25.3882 122.246 25.6924V33.4919C122.246 33.796 122.125 34.0875 121.91 34.3025C121.695 34.5175 121.404 34.6385 121.1 34.6389Z" fill="#3F3D56"/>
<path d="M151.604 4.81739C151.605 4.5133 151.726 4.22177 151.941 4.00675C152.156 3.79173 152.447 3.67077 152.751 3.67041H160.55C160.7 3.67019 160.85 3.69969 160.989 3.75723C161.128 3.81477 161.255 3.89922 161.362 4.00575C161.468 4.11228 161.553 4.2388 161.611 4.37807C161.668 4.51734 161.698 4.66663 161.698 4.8174C161.698 4.96816 161.668 5.11745 161.611 5.25672C161.553 5.39599 161.468 5.52251 161.362 5.62904C161.255 5.73557 161.128 5.82002 160.989 5.87756C160.85 5.9351 160.7 5.9646 160.55 5.96438H152.751C152.447 5.96402 152.156 5.84306 151.941 5.62804C151.726 5.41302 151.605 5.12148 151.604 4.81739Z" fill="white"/>
<path d="M121.329 63.0839C121.025 63.0836 120.733 62.9626 120.518 62.7476C120.303 62.5325 120.182 62.241 120.182 61.9369V54.1375C120.182 53.8333 120.303 53.5415 120.518 53.3264C120.733 53.1113 121.025 52.9905 121.329 52.9905C121.633 52.9905 121.925 53.1113 122.14 53.3264C122.355 53.5415 122.476 53.8333 122.476 54.1375V61.9369C122.475 62.241 122.354 62.5325 122.139 62.7476C121.924 62.9626 121.633 63.0836 121.329 63.0839Z" fill="#3F3D56"/>
<path d="M164.908 5.96437C165.541 5.96437 166.054 5.45085 166.054 4.81739C166.054 4.18393 165.541 3.67041 164.908 3.67041C164.274 3.67041 163.761 4.18393 163.761 4.81739C163.761 5.45085 164.274 5.96437 164.908 5.96437Z" fill="white"/>
<path opacity="0.2" d="M160.673 142.398C160.673 140.017 161.141 137.658 162.053 135.458C162.964 133.258 164.299 131.259 165.983 129.575C167.667 127.891 169.665 126.555 171.865 125.644C174.065 124.733 176.423 124.264 178.804 124.264H178.898C178.852 124.152 178.807 124.04 178.761 123.928C178.646 123.653 178.532 123.378 178.412 123.106H160.673V100.374H161.75C161.623 100.26 161.493 100.148 161.363 100.038C160.78 99.5417 160.189 99.0563 159.589 98.582L159.52 98.5285V99.2159H137.245V87.2581C136.886 87.1588 136.525 87.0621 136.161 86.9705C136.138 86.9654 136.115 86.9577 136.092 86.9526V99.2159H124.775V100.374H136.092V123.106H124.775V124.264H136.092V142.398H124.859C124.907 142.787 124.979 143.172 125.075 143.551H136.092V151.163H137.245V143.551H159.52V151.163H160.673V143.551H180.107V142.398H160.673ZM159.52 142.398H137.245V124.264H159.52V142.398ZM159.52 123.106H137.245V122.653C137.245 116.744 139.592 111.078 143.769 106.899C147.947 102.721 153.612 100.374 159.52 100.374V123.106Z" fill="black"/>
<path d="M60.7475 59.2642L48.3843 154.381L48.3054 154.987H47.7913L47.8702 154.381L60.2435 59.198L60.7475 59.2642Z" fill="#E5E5E5"/>
<path d="M35.008 59.384L21.3746 154.392L21.2881 154.998H20.7739L20.8605 154.392L34.504 59.3127L35.008 59.384Z" fill="#E5E5E5"/>
<path d="M79.9706 154.975L79.4411 154.977L79.2782 154.371L52.905 56.3951L53.3963 56.2627L79.8051 154.371L79.9706 154.975Z" fill="#3F3D56"/>
<path d="M78.8535 56.2589L78.3638 56.3977L106.156 154.45L106.646 154.312L78.8535 56.2589Z" fill="#3F3D56"/>
<path d="M101.341 136.461L76.1394 141.676L76.2426 142.174L101.444 136.96L101.341 136.461Z" fill="#3F3D56"/>
<path d="M96.9714 121.166L71.77 126.38L71.8732 126.879L97.0746 121.665L96.9714 121.166Z" fill="#3F3D56"/>
<path d="M92.6053 105.87L67.5796 110.714L67.6763 111.214L92.702 106.37L92.6053 105.87Z" fill="#3F3D56"/>
<path d="M88.2354 90.5779L63.7549 95.4163L63.8536 95.9157L88.3341 91.0774L88.2354 90.5779Z" fill="#3F3D56"/>
<path d="M34.5776 59.3664C34.1948 56.8651 34.8212 54.3142 36.3188 52.2748C37.8165 50.2354 40.0629 48.8746 42.5637 48.4917C45.0646 48.1088 47.6151 48.7353 49.6542 50.2332C51.6933 51.7311 53.0539 53.9778 53.4367 56.4791L52.9336 56.5561C52.7547 55.3833 52.3465 54.2571 51.7323 53.2421C51.1181 52.227 50.31 51.3429 49.3541 50.6404C48.3982 49.9378 47.3132 49.4304 46.1612 49.1473C45.0092 48.8642 43.8127 48.8109 42.6401 48.9904C41.4675 49.1699 40.3417 49.5788 39.3272 50.1936C38.3126 50.8084 37.429 51.6171 36.727 52.5735C36.025 53.5299 35.5183 54.6152 35.2359 55.7676C34.9534 56.9199 34.9007 58.1166 35.0808 59.2893L34.5776 59.3664Z" fill="#3F3D56"/>
<path d="M60.0729 59.4802C59.8667 58.2441 59.906 56.9795 60.1886 55.7586C60.4711 54.5377 60.9914 53.3844 61.7196 52.3646C62.4479 51.3448 63.3699 50.4786 64.433 49.8152C65.4961 49.1519 66.6794 48.7046 67.9153 48.4987C69.1513 48.2929 70.4157 48.3326 71.6363 48.6156C72.857 48.8986 74.0099 49.4193 75.0293 50.148C76.0487 50.8767 76.9145 51.7991 77.5774 52.8626C78.2402 53.926 78.6872 55.1097 78.8926 56.3459L78.3904 56.4294C77.996 54.0675 76.6798 51.959 74.7314 50.5674C72.783 49.1758 70.3618 48.615 68.0001 49.0084C65.6384 49.4017 63.5296 50.717 62.1372 52.665C60.7449 54.6131 60.183 57.0344 60.5751 59.3966L60.0729 59.4802Z" fill="#3F3D56"/>
<path d="M86.3762 80.2572L81.4841 92.1602L97.4233 92.0446L95.8024 80.2307L86.3762 80.2572Z" fill="#FFB6B6"/>
<path d="M90.2686 134.899L92.6327 135.244L95.0876 126.288L91.5983 125.779L90.2686 134.899Z" fill="#FFB6B6"/>
<path d="M89.8524 133.647L93.6222 133.969L93.3886 135.571L96.5837 138.544C96.7416 138.69 96.8483 138.884 96.8885 139.096C96.9286 139.307 96.9 139.526 96.8068 139.721C96.7136 139.915 96.5608 140.075 96.3706 140.176C96.1803 140.277 95.9627 140.315 95.7494 140.284L91.3001 139.635L90.7642 137.939L90.2337 139.479L88.5562 139.235L89.8524 133.647Z" fill="#2F2E41"/>
<path d="M62.9463 128.284L64.8324 129.751L71.3869 123.173L68.6032 121.008L62.9463 128.284Z" fill="#FFB6B6"/>
<path d="M63.2022 126.99L66.322 129.131L65.3287 130.409L66.6409 134.571C66.7057 134.777 66.7031 134.998 66.6335 135.202C66.5639 135.406 66.431 135.582 66.254 135.705C66.0771 135.828 65.8654 135.892 65.6499 135.886C65.4345 135.88 65.2265 135.806 65.0564 135.673L61.5069 132.913L61.8776 131.173L60.6562 132.251L59.3179 131.21L63.2022 126.99Z" fill="#2F2E41"/>
<path d="M82.3841 89.3359L80.8143 91.4155L76.636 109.598L67.1387 122.426L70.3312 125.493L82.4448 113.739L88.3896 101.18L91.3973 112.78L90.6336 128.31L95.7245 128.055C97.1042 110.033 99.2625 91.4897 96.7203 86.282C95.0447 87.7439 93.0884 88.8486 90.9712 89.5285C88.854 90.2083 86.6204 90.4491 84.407 90.236L82.3841 89.3359Z" fill="#2F2E41"/>
<path d="M90.787 61.0084L94.8032 65.4008C95.6847 66.3648 96.2434 67.5798 96.4016 68.8765C96.4734 69.4653 96.4614 70.0614 96.366 70.6468L95.5002 76.9909L97.0274 86.6651C97.0274 86.6651 94.8508 87.993 90.6638 90.7384C88.955 91.8589 80.9815 91.8409 80.9912 91.5021C81.0364 89.9334 82.4394 85.7056 82.773 80.5551C83.1848 74.1979 82.6448 66.6104 84.0457 62.9889C85.7559 58.5679 90.787 61.0084 90.787 61.0084Z" fill="#5669B3"/>
<path d="M77.0045 89.1552C77.1797 88.9002 77.2969 88.6099 77.3479 88.3048C77.3988 87.9996 77.3822 87.687 77.2993 87.3889C77.2164 87.0909 77.0691 86.8146 76.8679 86.5796C76.6667 86.3447 76.4164 86.1567 76.1347 86.0289L76.2917 81.1954L73.3781 80.3835L73.2522 87.2125C73.069 87.7001 73.0709 88.2379 73.2577 88.7242C73.4445 89.2104 73.8031 89.6112 74.2656 89.8507C74.7281 90.0902 75.2624 90.1516 75.7672 90.0234C76.272 89.8952 76.7122 89.5863 77.0045 89.1552Z" fill="#FFB6B6"/>
<path d="M73.1182 69.6433C73.2042 69.4181 73.336 69.2132 73.5052 69.0416C73.6745 68.8699 73.8776 68.7353 74.1016 68.6463C75.6522 67.9947 82.3565 62.5154 82.6035 62.6183L84.7319 61.5676C84.8104 61.5685 86.907 61.6181 87.9355 62.7846C88.1494 63.0308 88.3074 63.3205 88.3987 63.6336C88.49 63.9467 88.5125 64.2759 88.4645 64.5985C88.1634 67.3765 78.6592 73.6164 77.652 73.5744L76.5849 81.4618L77.0002 84.4751L73.1134 84.5855L71.9157 80.1488C71.7438 79.8252 71.5267 73.6965 73.1182 69.6433Z" fill="#5669B3"/>
<path d="M88.7006 65.4302C89.0151 63.2737 87.8041 61.3116 85.9957 61.0477C84.1873 60.7839 82.4663 62.3182 82.1518 64.4747C81.8373 66.6312 83.0483 68.5933 84.8567 68.8571C86.6651 69.121 88.3861 67.5867 88.7006 65.4302Z" fill="#5669B3"/>
<path d="M59.4845 79.5297L59.386 79.0302L83.0274 73.6812V74.1903L59.4845 79.5297Z" fill="#3F3D56"/>
<path d="M164.145 43.5515H155.078C153.122 43.5515 151.536 45.1373 151.536 47.0935V47.0935C151.536 49.0497 153.122 50.6355 155.078 50.6355H164.145C166.101 50.6355 167.686 49.0497 167.686 47.0935C167.686 45.1373 166.101 43.5515 164.145 43.5515Z" fill="#E6E6E6"/>
<path d="M180.967 57.7195H138.256C136.3 57.7195 134.715 59.3053 134.715 61.2615V61.2615C134.715 63.2177 136.3 64.8035 138.256 64.8035H180.967C182.923 64.8035 184.509 63.2177 184.509 61.2615C184.509 59.3053 182.923 57.7195 180.967 57.7195Z" fill="#E6E6E6"/>
<path d="M162.64 68.3232H119.929C117.973 68.3232 116.387 69.909 116.387 71.8652V71.8653C116.387 73.8215 117.973 75.4073 119.929 75.4073H162.64C164.596 75.4073 166.181 73.8215 166.181 71.8652C166.181 69.909 164.596 68.3232 162.64 68.3232Z" fill="#5669B3"/>
<path d="M218.94 154.618C218.94 154.658 218.932 154.697 218.917 154.734C218.902 154.771 218.879 154.804 218.851 154.833C218.823 154.861 218.79 154.883 218.753 154.898C218.716 154.913 218.677 154.921 218.637 154.921L67.772 154.975L67.2425 154.977L36.1069 154.987H35.5927L9.08972 154.997H8.57554L0.302906 155C0.222571 155 0.145524 154.968 0.0887186 154.911C0.0319128 154.854 0 154.777 0 154.697C0 154.617 0.0319128 154.54 0.0887186 154.483C0.145524 154.426 0.222571 154.394 0.302906 154.394L8.66209 154.392H9.17626L35.6716 154.381H36.1858L67.0796 154.371H67.6065L93.9313 154.361H94.2775L218.637 154.315C218.677 154.315 218.716 154.323 218.753 154.338C218.79 154.353 218.823 154.376 218.851 154.404C218.879 154.432 218.902 154.465 218.917 154.502C218.932 154.539 218.94 154.578 218.94 154.618Z" fill="#CACACA"/>
<path d="M95.0369 56.622C94.277 57.6316 93.196 58.3522 91.972 58.6652C90.7479 58.9783 89.4537 58.865 88.3026 58.3441C87.1515 57.8233 86.212 56.9258 85.639 55.7997C85.066 54.6735 84.8935 53.3857 85.15 52.1483C85.4065 50.911 86.0766 49.7979 87.0501 48.9924C88.0236 48.1869 89.2423 47.737 90.5056 47.7168C91.7689 47.6966 93.0014 48.1072 94.0001 48.8812C94.9989 49.6551 95.7043 50.7462 96.0003 51.9747C96.0162 52.0413 96.0297 52.1076 96.0429 52.1764C96.1991 52.9464 96.1903 53.7409 96.0169 54.5072C95.8435 55.2735 95.5094 55.9944 95.0369 56.622Z" fill="#FFB6B6"/>
<path d="M96.4835 52.2406C96.3434 51.5435 96.3964 51.9037 96.2534 51.2088C96.2829 51.5452 96.2095 51.8826 96.0428 52.1763L89.4915 51.2205L90.047 47.4115C92.0773 46.9307 94.0482 46.5571 94.9762 48.1307C95.9862 48.2781 96.8964 48.8207 97.5064 49.6392C98.1164 50.4578 98.3764 51.4851 98.2291 52.4953L96.4835 52.2406Z" fill="#2F2E41"/>
<path d="M92.6171 62.49C92.6223 62.4187 92.6254 62.3445 92.6256 62.2725C92.6131 61.7422 92.5443 61.2147 92.4204 60.6989C92.309 60.1398 92.1955 59.5778 92.0816 59.0184C92.1874 60.0192 91.9636 61.0272 91.4442 61.8892C90.4641 60.8663 91.1121 59.3857 89.6663 59.1747C86.1904 58.6676 83.362 54.9393 83.8694 51.4603C84.3765 47.9839 86.2468 45.6017 89.7227 46.1088C93.2011 46.6163 95.7899 48.62 95.3509 52.1064C90.922 52.4893 93.477 62.2553 92.6171 62.49Z" fill="#2F2E41"/>
<path d="M84.9693 49.2822C86.2515 49.2822 87.291 48.2426 87.291 46.9602C87.291 45.6778 86.2515 44.6382 84.9693 44.6382C83.6871 44.6382 82.6477 45.6778 82.6477 46.9602C82.6477 48.2426 83.6871 49.2822 84.9693 49.2822Z" fill="#2F2E41"/>
<path d="M87.7232 45.0427C87.5067 44.5742 87.1779 44.1662 86.7661 43.855C86.3543 43.5439 85.8721 43.3391 85.3623 43.2588C85.7215 43.4212 86.0352 43.6695 86.2758 43.9818C86.5164 44.294 86.6765 44.6607 86.742 45.0494C86.8076 45.4382 86.7765 45.8371 86.6516 46.211C86.5266 46.5849 86.3117 46.9223 86.0256 47.1935L86.4951 46.79C86.623 46.899 86.7825 46.9643 86.9501 46.9763C87.1178 46.9882 87.2849 46.9463 87.4271 46.8566C87.5664 46.7627 87.6827 46.6385 87.7672 46.4932C87.8516 46.3479 87.9021 46.1854 87.9148 46.0179C87.9371 45.6817 87.871 45.3455 87.7232 45.0427Z" fill="#2F2E41"/>
<path d="M117.277 69.6021C117.001 69.4623 116.697 69.3848 116.388 69.3749C116.079 69.365 115.772 69.423 115.487 69.5448C115.203 69.6667 114.949 69.8494 114.743 70.0802C114.537 70.3109 114.384 70.584 114.294 70.8803L109.484 71.3677L109.067 74.3638L115.851 73.58C116.358 73.6968 116.891 73.6233 117.348 73.3735C117.805 73.1237 118.155 72.7148 118.33 72.2245C118.506 71.7342 118.496 71.1964 118.302 70.7131C118.108 70.2298 117.743 69.8345 117.277 69.6021Z" fill="#FFB6B6"/>
<path d="M98.4583 76.0506C98.2237 75.9953 98.0031 75.8919 97.8105 75.747C97.6179 75.602 97.4575 75.4186 97.3395 75.2084C96.4875 73.7581 90.1658 67.8413 90.2349 67.5828L88.9105 65.6127C88.901 65.5348 88.6712 63.4499 89.6903 62.2752C89.9058 62.0304 90.1718 61.8353 90.47 61.7031C90.7681 61.5709 91.0913 61.5049 91.4174 61.5095C94.2103 61.4384 101.232 70.2791 101.324 71.2832L109.709 71.0417L112.639 70.2292L113.266 74.0673L109.029 75.8449C108.731 76.0583 102.687 77.0889 98.4583 76.0506Z" fill="#5669B3"/>
</g>
<defs>
<clipPath id="clip0_59_97">
<rect width="219" height="155" fill="white"/>
</clipPath>
</defs>
</svg>
