<svg width="14" height="15" viewBox="0 0 14 15" fill="none" xmlns="http://www.w3.org/2000/svg">
<path d="M6.37929 1.44043C6.64435 0.768554 7.59473 0.768554 7.85979 1.44043L9.24399 4.9497C9.32517 5.1549 9.48754 5.31727 9.69211 5.39814L13.2015 6.78217C13.8733 7.04723 13.8733 7.9981 13.2015 8.26316L9.69211 9.64719C9.48754 9.72806 9.32517 9.89043 9.24399 10.0956L7.85979 13.6049C7.59473 14.2768 6.64435 14.2768 6.37929 13.6049L4.99509 10.0956C4.91391 9.89043 4.75154 9.72806 4.54697 9.64719L1.03754 8.26316C0.365742 7.9981 0.365742 7.04723 1.03754 6.78217L4.54697 5.39814C4.75154 5.31727 4.91391 5.1549 4.99509 4.9497L6.37929 1.44043Z" fill="white"/>
</svg>
