<svg width="20" height="12" viewBox="0 0 20 12" fill="none" xmlns="http://www.w3.org/2000/svg">
<path d="M19.0999 2.87519L10.6999 11.3002C10.5999 11.4002 10.4916 11.4709 10.3749 11.5122C10.2582 11.5542 10.1332 11.5752 9.9999 11.5752C9.86657 11.5752 9.74157 11.5542 9.6249 11.5122C9.50824 11.4709 9.3999 11.4002 9.2999 11.3002L0.874902 2.8752C0.641569 2.64186 0.524902 2.3502 0.524902 2.0002C0.524902 1.6502 0.649902 1.3502 0.899902 1.1002C1.1499 0.850196 1.44157 0.725196 1.7749 0.725196C2.10824 0.725196 2.3999 0.850196 2.6499 1.1002L9.9999 8.45019L17.3499 1.1002C17.5832 0.866862 17.8706 0.750195 18.2119 0.750195C18.5539 0.750195 18.8499 0.875195 19.0999 1.12519C19.3499 1.37519 19.4749 1.66686 19.4749 2.00019C19.4749 2.33353 19.3499 2.62519 19.0999 2.87519Z" fill="white"/>
</svg>
