<svg width="560" height="270" viewBox="0 0 560 270" fill="none" xmlns="http://www.w3.org/2000/svg">
<g filter="url(#filter0_d_90_648)">
<rect width="540" height="250" rx="10" fill="white"/>
<g clip-path="url(#clip0_90_648)">
<mask id="mask0_90_648" style="mask-type:alpha" maskUnits="userSpaceOnUse" x="43" y="34" width="64" height="64">
<path d="M74.9999 97.9999C92.5726 97.9999 106.818 83.8009 106.818 66.2856C106.818 48.7703 92.5726 34.5713 74.9999 34.5713C57.4272 34.5713 43.1818 48.7703 43.1818 66.2856C43.1818 83.8009 57.4272 97.9999 74.9999 97.9999Z" fill="white"/>
</mask>
<g mask="url(#mask0_90_648)">
<path d="M74.9999 97.9999C92.5726 97.9999 106.818 83.8009 106.818 66.2856C106.818 48.7703 92.5726 34.5713 74.9999 34.5713C57.4272 34.5713 43.1818 48.7703 43.1818 66.2856C43.1818 83.8009 57.4272 97.9999 74.9999 97.9999Z" fill="#E6E6E6"/>
<path d="M106.818 34.5713H43.1818V97.9999H106.818V34.5713Z" fill="black"/>
</g>
<mask id="mask1_90_648" style="mask-type:alpha" maskUnits="userSpaceOnUse" x="40" y="24" width="70" height="74">
<path d="M43.1818 66.2857C43.1818 83.801 57.4273 98 75 98C92.5727 98 106.818 83.801 106.818 66.2857H110V24H40V66.2857H43.1818Z" fill="white"/>
</mask>
<g mask="url(#mask1_90_648)">
<mask id="mask2_90_648" style="mask-type:alpha" maskUnits="userSpaceOnUse" x="48" y="33" width="54" height="65">
<path d="M81.3637 71.7333V76.5932H82.4243C92.9679 76.5932 101.515 85.1126 101.515 95.6218V98.0004H48.4849V95.6218C48.4849 85.1126 57.0322 76.5932 67.5758 76.5932H68.6364V71.7333C64.0659 69.5691 60.7805 65.1462 60.2324 59.9118C58.688 59.6942 57.5 58.3713 57.5 56.7718V53.0718C57.5 51.5004 58.6467 50.1959 60.1515 49.9442V48.3146C60.1515 40.1408 66.7994 33.5146 75 33.5146C83.2006 33.5146 89.8485 40.1408 89.8485 48.3146V49.9442C91.3534 50.1959 92.5 51.5004 92.5 53.0718V56.7718C92.5 58.3713 91.3121 59.6942 89.7676 59.9118C89.2195 65.1462 85.9342 69.5691 81.3637 71.7333Z" fill="white"/>
</mask>
<g mask="url(#mask2_90_648)">
<path d="M81.3637 71.7333V76.5932H82.4243C92.9679 76.5932 101.515 85.1126 101.515 95.6218V98.0004H48.4849V95.6218C48.4849 85.1126 57.0322 76.5932 67.5758 76.5932H68.6364V71.7333C64.0659 69.5691 60.7805 65.1462 60.2324 59.9118C58.688 59.6942 57.5 58.3713 57.5 56.7718V53.0718C57.5 51.5004 58.6467 50.1959 60.1515 49.9442V48.3146C60.1515 40.1408 66.7994 33.5146 75 33.5146C83.2006 33.5146 89.8485 40.1408 89.8485 48.3146V49.9442C91.3534 50.1959 92.5 51.5004 92.5 53.0718V56.7718C92.5 58.3713 91.3121 59.6942 89.7676 59.9118C89.2195 65.1462 85.9342 69.5691 81.3637 71.7333Z" fill="#D0C6AC"/>
<path d="M118.485 33.5146H48.4849V107.515H118.485V33.5146Z" fill="#FFDBB4"/>
<path fill-rule="evenodd" clip-rule="evenodd" d="M89.8485 54.3936V60.4721C89.8485 68.6459 83.2006 75.2721 75 75.2721C66.7994 75.2721 60.1515 68.6459 60.1515 60.4721V54.3936V58.3578C60.1515 66.5317 66.7994 73.1578 75 73.1578C83.2006 73.1578 89.8485 66.5317 89.8485 58.3578V54.3936Z" fill="black" fill-opacity="0.1"/>
</g>
<mask id="mask3_90_648" style="mask-type:alpha" maskUnits="userSpaceOnUse" x="58" y="76" width="34" height="22">
<path fill-rule="evenodd" clip-rule="evenodd" d="M64.9242 76.7744V88.4854H85.0757V76.7744C87.5583 77.1182 89.8882 77.9379 91.9697 79.138L91.9697 97.9996H89.5833H60.4166H58.0303V79.138C60.1117 77.9379 62.4416 77.1182 64.9242 76.7744Z" fill="white"/>
</mask>
<g mask="url(#mask3_90_648)">
<path fill-rule="evenodd" clip-rule="evenodd" d="M64.9242 76.7744V88.4854H85.0757V76.7744C87.5583 77.1182 89.8882 77.9379 91.9697 79.138L91.9697 97.9996H89.5833H60.4166H58.0303V79.138C60.1117 77.9379 62.4416 77.1182 64.9242 76.7744Z" fill="#B7C1DB"/>
<path d="M110 68.9277H40V97.9992H110V68.9277Z" fill="#FFDEB5"/>
<path d="M61.4772 92.1858C62.2094 92.1858 62.803 91.5942 62.803 90.8644C62.803 90.1346 62.2094 89.543 61.4772 89.543C60.7451 89.543 60.1515 90.1346 60.1515 90.8644C60.1515 91.5942 60.7451 92.1858 61.4772 92.1858Z" fill="#F4F4F4"/>
<path d="M88.5227 92.1858C89.2549 92.1858 89.8484 91.5942 89.8484 90.8644C89.8484 90.1346 89.2549 89.543 88.5227 89.543C87.7905 89.543 87.1969 90.1346 87.1969 90.8644C87.1969 91.5942 87.7905 92.1858 88.5227 92.1858Z" fill="#F4F4F4"/>
</g>
<mask id="mask4_90_648" style="mask-type:alpha" maskUnits="userSpaceOnUse" x="69" y="62" width="12" height="6">
<path fill-rule="evenodd" clip-rule="evenodd" d="M69.9933 63.413C70.2738 65.9215 72.4083 67.872 74.9999 67.872C77.5995 67.872 79.7392 65.9095 80.0091 63.3897C80.0308 63.187 79.8036 62.8506 79.5188 62.8506C75.5696 62.8506 72.544 62.8506 70.5153 62.8506C70.2289 62.8506 69.9652 63.162 69.9933 63.413Z" fill="white"/>
</mask>
<g mask="url(#mask4_90_648)">
<path fill-rule="evenodd" clip-rule="evenodd" d="M69.9933 63.413C70.2738 65.9215 72.4083 67.872 74.9999 67.872C77.5995 67.872 79.7392 65.9095 80.0091 63.3897C80.0308 63.187 79.8036 62.8506 79.5188 62.8506C75.5696 62.8506 72.544 62.8506 70.5153 62.8506C70.2289 62.8506 69.9652 63.162 69.9933 63.413Z" fill="black" fill-opacity="0.7"/>
<path d="M77.9165 59.9434H72.3483C71.6161 59.9434 71.0226 60.535 71.0226 61.2648V62.8505C71.0226 63.5803 71.6161 64.1719 72.3483 64.1719H77.9165C78.6487 64.1719 79.2423 63.5803 79.2423 62.8505V61.2648C79.2423 60.535 78.6487 59.9434 77.9165 59.9434Z" fill="black"/>
<path d="M73.6741 71.5721C75.2849 71.5721 76.5908 70.2705 76.5908 68.665C76.5908 67.0594 75.2849 65.7578 73.6741 65.7578C72.0633 65.7578 70.7574 67.0594 70.7574 68.665C70.7574 70.2705 72.0633 71.5721 73.6741 71.5721Z" fill="#FF4F6D"/>
<path d="M76.3256 71.5721C77.9364 71.5721 79.2423 70.2705 79.2423 68.665C79.2423 67.0594 77.9364 65.7578 76.3256 65.7578C74.7148 65.7578 73.4089 67.0594 73.4089 68.665C73.4089 70.2705 74.7148 71.5721 76.3256 71.5721Z" fill="#FF4F6D"/>
</g>
<path fill-rule="evenodd" clip-rule="evenodd" d="M71.8181 58.3574C71.8181 59.5251 73.2427 60.4717 74.9999 60.4717C76.7572 60.4717 78.1818 59.5251 78.1818 58.3574" fill="black" fill-opacity="0.16"/>
<path fill-rule="evenodd" clip-rule="evenodd" d="M64.4364 55.0676C64.926 56.0715 66.0284 56.7715 67.3099 56.7715C68.5869 56.7715 69.6861 56.0765 70.1783 55.0782C70.3245 54.7816 70.1164 54.5389 69.9066 54.7188C69.2567 55.2757 68.3337 55.6235 67.3099 55.6235C66.3182 55.6235 65.4211 55.2971 64.7751 54.7704C64.5389 54.5778 64.2932 54.7739 64.4364 55.0676Z" fill="black" fill-opacity="0.6"/>
<path fill-rule="evenodd" clip-rule="evenodd" d="M79.8152 55.0676C80.3048 56.0715 81.4072 56.7715 82.6887 56.7715C83.9657 56.7715 85.0649 56.0765 85.5571 55.0782C85.7033 54.7816 85.4952 54.5389 85.2854 54.7188C84.6355 55.2757 83.7125 55.6235 82.6887 55.6235C81.697 55.6235 80.7998 55.2971 80.1539 54.7704C79.9177 54.5778 79.672 54.7739 79.8152 55.0676Z" fill="black" fill-opacity="0.6"/>
<path d="M64.2909 49.6847C65.4151 48.1602 66.1145 48.2355 67.8207 49.5187C67.8689 49.555 67.8995 49.5782 67.9983 49.6528C69.2784 50.6208 69.8847 50.9574 70.7575 50.9574C71.0504 50.9574 71.2878 50.7207 71.2878 50.4288C71.2878 50.1369 71.0504 49.9003 70.7575 49.9003C70.2097 49.9003 69.7231 49.6301 68.6393 48.8106C68.5398 48.7353 68.5088 48.7119 68.4595 48.6749C67.4627 47.9251 66.8794 47.5976 66.154 47.5196C65.1771 47.4145 64.2825 47.9112 63.4363 49.0586C63.2628 49.2938 63.3135 49.6247 63.5495 49.7976C63.7855 49.9705 64.1174 49.92 64.2909 49.6847Z" fill="black" fill-opacity="0.6"/>
<path d="M85.709 49.6847C84.5848 48.1602 83.8854 48.2355 82.1792 49.5187C82.131 49.555 82.1003 49.5782 82.0016 49.6528C80.7215 50.6208 80.1152 50.9574 79.2423 50.9574C78.9495 50.9574 78.712 50.7207 78.712 50.4288C78.712 50.1369 78.9495 49.9003 79.2423 49.9003C79.7902 49.9003 80.2768 49.6301 81.3606 48.8106C81.4601 48.7353 81.4911 48.7119 81.5404 48.6749C82.5372 47.9251 83.1205 47.5976 83.8459 47.5196C84.8228 47.4145 85.7174 47.9112 86.5636 49.0586C86.737 49.2938 86.6864 49.6247 86.4504 49.7976C86.2144 49.9705 85.8825 49.92 85.709 49.6847Z" fill="black" fill-opacity="0.6"/>
<mask id="mask5_90_648" style="mask-type:alpha" maskUnits="userSpaceOnUse" x="40" y="24" width="70" height="74">
<path d="M110 24H40V98H110V24Z" fill="white"/>
</mask>
<g mask="url(#mask5_90_648)">
<path fill-rule="evenodd" clip-rule="evenodd" d="M66.4886 35.2233C63.8905 36.811 61.5795 38.887 60.042 41.2742C59.3097 42.4114 58.7073 43.6104 58.1459 44.815C57.8643 45.4194 57.6073 46.0313 57.361 46.6469C57.2055 47.0355 56.9667 47.4545 57.1913 47.8623C57.3283 47.7824 57.3805 47.8111 57.2943 47.9541C58.0081 48.1481 59.0003 47.6013 59.6187 47.3993C60.8817 46.9868 62.1455 46.5976 63.439 46.2545C64.6207 45.9412 67.257 45.4316 68.2887 45.1946L69.0142 44.4074L69.2959 44.924C69.8681 44.8802 73.0289 44.4067 73.0289 44.4067L73.3816 43.5549C73.8366 44.0209 74.1608 44.263 74.1608 44.263C74.8385 44.2079 77.781 44.142 78.4787 44.1503C78.4787 44.1503 80.425 44.2186 80.8971 44.2372L81.3391 44.0684L81.4846 44.3531C81.8701 44.5093 84.2006 45.3021 84.6605 45.4441L85.3358 45.2047C85.6326 45.9165 86.3803 45.8268 87 46.389C87.8197 47.1326 89.5371 47.6616 90.3569 48.3083C90.6505 48.5399 90.9249 48.7819 91.2008 49.0287C91.5072 49.3028 91.462 49.3429 91.5615 49.6574C91.5914 49.7515 91.8943 50.2385 92.0234 50.2783C92.483 50.4201 89.3311 42.2213 88.4658 41.173C87.5728 40.091 81.7812 32.8073 74.1016 33.0458" fill="black" fill-opacity="0.16"/>
<mask id="mask6_90_648" style="mask-type:alpha" maskUnits="userSpaceOnUse" x="46" y="28" width="58" height="70">
<path fill-rule="evenodd" clip-rule="evenodd" d="M89.8037 47.1566C89.8334 47.5388 89.8485 47.925 89.8485 48.3147V58.3576C89.8485 64.2615 86.3802 69.358 81.3636 71.7333V76.5933H82.4242C82.8284 76.5933 82.9645 76.6058 83.3625 76.6305C79.4083 83.8601 78.4002 89.9593 83.0797 93.6511C83.5299 93.9689 83.855 94.123 83.911 94.1493C84.5402 94.4448 85.1936 94.7676 85.8909 94.9301C87.1166 95.2157 88.5246 94.8317 89.7506 94.6782C90.3105 94.6081 90.8687 94.5649 91.4334 94.563C92.1134 94.5607 92.8151 94.5854 93.3271 95.0116C93.8267 95.4275 93.7629 96.914 92.2996 97.6103C93.3864 98.1006 94.6891 96.9621 95.1334 96.242C95.5222 95.6118 95.8213 94.929 95.9857 94.2322C96.1904 93.3645 96.2036 92.4548 96.0434 91.5857C95.7099 89.7759 94.9361 88.0357 94.4094 86.2676C94.2152 85.6159 93.9622 84.9026 93.8521 84.2355C93.8222 84.0545 93.7865 83.3858 93.8145 83.2459C93.8354 83.1419 93.8302 83.0354 94.1897 82.9351C95.228 82.6453 96.3128 82.16 97.0674 81.4764C97.9595 80.6681 98.4245 79.6181 98.7996 78.5746C99.3935 76.9222 99.7336 75.1529 99.8899 73.4369C99.9224 73.0805 99.9407 72.7246 99.9471 72.3673C99.951 72.1515 99.9245 71.9057 99.9493 71.6895C99.9898 71.3354 99.9348 71.4286 100.28 71.1943C101.409 70.4279 102.29 69.3118 102.855 68.1891C103.742 66.4258 103.858 64.5664 103.137 62.78C102.54 61.2983 101.592 59.8108 100.117 58.8565C99.55 58.4901 98.9523 58.1579 98.3639 57.8179C98.0435 57.6328 97.2907 57.3909 97.0631 57.1528C96.904 56.9862 97.1573 56.1506 97.1894 55.8689C97.3295 54.6405 97.1683 53.4488 96.8804 52.2491C96.2459 49.6042 93.69 45.3384 92.6638 42.8242C91.7823 40.6644 90.5066 28.2092 75.4207 28.2816C60.3349 28.354 57.611 41.559 55.5686 44.0263C53.3507 46.7058 51.1118 51.797 52.6219 56.517C51.1626 58.3465 47.8338 61.012 46.9961 63.6765C46.4705 65.3481 46.4931 67.21 47.1668 68.832C47.5479 69.7494 48.0937 70.5809 48.7342 71.3795C49.2953 72.0791 49.9189 72.7409 50.4623 73.451C50.7902 73.8796 50.8782 73.9846 50.7545 74.5129C50.5108 75.5542 50.0071 76.5545 49.5704 77.5455C48.8937 79.0809 48.3251 80.5106 48.2409 82.1475C48.1607 83.7058 48.5921 88.1396 53.0828 90.7527C53.6089 91.0588 54.1281 91.3254 54.685 91.5743C54.3959 90.6771 54.7237 87.4718 55.3062 86.2803C55.4546 86.6902 55.7068 87.0846 55.9785 87.4428C56.4026 88.0018 57.4035 89.4008 58.6689 89.4657C58.1555 88.6771 57.6032 88.1449 57.4431 87.1934C58.4974 87.7114 59.9975 88.1837 61.2245 88.1403C62.1272 88.1084 63.4582 87.6593 64.1288 87.098C61.909 87.4487 59.8013 86.7195 58.9536 85.1612C58.7766 84.8359 58.6424 84.495 58.5644 84.141C58.4537 83.6389 58.2791 82.8345 58.5136 82.3711C58.5706 82.2585 58.6638 82.1436 58.7745 82.0303C58.757 82.0096 58.7397 81.9888 58.7224 81.9679C60.232 80.703 62.1267 78.6897 63.1412 77.2191C63.1599 77.1867 63.1785 77.1543 63.197 77.1218H63.2075C63.215 77.1107 63.2225 77.0996 63.2299 77.0885C64.6259 76.7645 66.0808 76.5933 67.5758 76.5933H68.6364V71.7333C63.6198 69.358 60.1515 64.2615 60.1515 58.3576V48.3147C60.1515 47.6639 60.1937 47.0229 60.2754 46.3942C61.3205 46.0604 62.3696 45.7452 63.439 45.4616C64.6207 45.1483 67.257 44.6387 68.2887 44.4017L69.0143 43.6145L69.296 44.1311C69.8682 44.0872 73.029 43.6138 73.029 43.6138L73.3816 42.762C73.8366 43.228 74.1608 43.47 74.1608 43.47C74.8386 43.415 77.781 43.3491 78.4787 43.3574C78.4787 43.3574 80.425 43.4257 80.8972 43.4443L81.3391 43.2755L81.4847 43.5602C81.8701 43.7164 84.2006 44.5092 84.6606 44.6512L85.3358 44.4118C85.6327 45.1236 86.3803 45.0339 87 45.5961C87.6637 46.1982 88.9159 46.6595 89.8037 47.1566Z" fill="white"/>
</mask>
<g mask="url(#mask6_90_648)">
<path fill-rule="evenodd" clip-rule="evenodd" d="M89.8037 47.1566C89.8334 47.5388 89.8485 47.925 89.8485 48.3147V58.3576C89.8485 64.2615 86.3802 69.358 81.3636 71.7333V76.5933H82.4242C82.8284 76.5933 82.9645 76.6058 83.3625 76.6305C79.4083 83.8601 78.4002 89.9593 83.0797 93.6511C83.5299 93.9689 83.855 94.123 83.911 94.1493C84.5402 94.4448 85.1936 94.7676 85.8909 94.9301C87.1166 95.2157 88.5246 94.8317 89.7506 94.6782C90.3105 94.6081 90.8687 94.5649 91.4334 94.563C92.1134 94.5607 92.8151 94.5854 93.3271 95.0116C93.8267 95.4275 93.7629 96.914 92.2996 97.6103C93.3864 98.1006 94.6891 96.9621 95.1334 96.242C95.5222 95.6118 95.8213 94.929 95.9857 94.2322C96.1904 93.3645 96.2036 92.4548 96.0434 91.5857C95.7099 89.7759 94.9361 88.0357 94.4094 86.2676C94.2152 85.6159 93.9622 84.9026 93.8521 84.2355C93.8222 84.0545 93.7865 83.3858 93.8145 83.2459C93.8354 83.1419 93.8302 83.0354 94.1897 82.9351C95.228 82.6453 96.3128 82.16 97.0674 81.4764C97.9595 80.6681 98.4245 79.6181 98.7996 78.5746C99.3935 76.9222 99.7336 75.1529 99.8899 73.4369C99.9224 73.0805 99.9407 72.7246 99.9471 72.3673C99.951 72.1515 99.9245 71.9057 99.9493 71.6895C99.9898 71.3354 99.9348 71.4286 100.28 71.1943C101.409 70.4279 102.29 69.3118 102.855 68.1891C103.742 66.4258 103.858 64.5664 103.137 62.78C102.54 61.2983 101.592 59.8108 100.117 58.8565C99.55 58.4901 98.9523 58.1579 98.3639 57.8179C98.0435 57.6328 97.2907 57.3909 97.0631 57.1528C96.904 56.9862 97.1573 56.1506 97.1894 55.8689C97.3295 54.6405 97.1683 53.4488 96.8804 52.2491C96.2459 49.6042 93.69 45.3384 92.6638 42.8242C91.7823 40.6644 90.5066 28.2092 75.4207 28.2816C60.3349 28.354 57.611 41.559 55.5686 44.0263C53.3507 46.7058 51.1118 51.797 52.6219 56.517C51.1626 58.3465 47.8338 61.012 46.9961 63.6765C46.4705 65.3481 46.4931 67.21 47.1668 68.832C47.5479 69.7494 48.0937 70.5809 48.7342 71.3795C49.2953 72.0791 49.9189 72.7409 50.4623 73.451C50.7902 73.8796 50.8782 73.9846 50.7545 74.5129C50.5108 75.5542 50.0071 76.5545 49.5704 77.5455C48.8937 79.0809 48.3251 80.5106 48.2409 82.1475C48.1607 83.7058 48.5921 88.1396 53.0828 90.7527C53.6089 91.0588 54.1281 91.3254 54.685 91.5743C54.3959 90.6771 54.7237 87.4718 55.3062 86.2803C55.4546 86.6902 55.7068 87.0846 55.9785 87.4428C56.4026 88.0018 57.4035 89.4008 58.6689 89.4657C58.1555 88.6771 57.6032 88.1449 57.4431 87.1934C58.4974 87.7114 59.9975 88.1837 61.2245 88.1403C62.1272 88.1084 63.4582 87.6593 64.1288 87.098C61.909 87.4487 59.8013 86.7195 58.9536 85.1612C58.7766 84.8359 58.6424 84.495 58.5644 84.141C58.4537 83.6389 58.2791 82.8345 58.5136 82.3711C58.5706 82.2585 58.6638 82.1436 58.7745 82.0303C58.757 82.0096 58.7397 81.9888 58.7224 81.9679C60.232 80.703 62.1267 78.6897 63.1412 77.2191C63.1599 77.1867 63.1785 77.1543 63.197 77.1218H63.2075C63.215 77.1107 63.2225 77.0996 63.2299 77.0885C64.6259 76.7645 66.0808 76.5933 67.5758 76.5933H68.6364V71.7333C63.6198 69.358 60.1515 64.2615 60.1515 58.3576V48.3147C60.1515 47.6639 60.1937 47.0229 60.2754 46.3942C61.3205 46.0604 62.3696 45.7452 63.439 45.4616C64.6207 45.1483 67.257 44.6387 68.2887 44.4017L69.0143 43.6145L69.296 44.1311C69.8682 44.0872 73.029 43.6138 73.029 43.6138L73.3816 42.762C73.8366 43.228 74.1608 43.47 74.1608 43.47C74.8386 43.415 77.781 43.3491 78.4787 43.3574C78.4787 43.3574 80.425 43.4257 80.8972 43.4443L81.3391 43.2755L81.4847 43.5602C81.8701 43.7164 84.2006 44.5092 84.6606 44.6512L85.3358 44.4118C85.6327 45.1236 86.3803 45.0339 87 45.5961C87.6637 46.1982 88.9159 46.6595 89.8037 47.1566Z" fill="#361A0A"/>
<path d="M116.629 28.2285H46.6288V102.229H116.629V28.2285Z" fill="#D6B370"/>
<path fill-rule="evenodd" clip-rule="evenodd" d="M63.2483 76.9792C65.1245 74.4139 63.1076 67.2865 61.5111 64.6473C65.9755 62.6221 74.7914 62.9962 87.9589 65.7698C86.6876 68.1093 86.169 70.198 86.4031 72.0359C85.2001 73.5093 84.2061 75.0407 83.4211 76.6302L74.175 78.9045C68.3321 79.6058 64.6899 78.964 63.2483 76.9792Z" fill="black" fill-opacity="0.24"/>
</g>
<path fill-rule="evenodd" clip-rule="evenodd" d="M60.6926 68.9535C60.6769 68.9002 60.6382 68.8406 60.585 68.7776C60.6211 68.8361 60.6573 68.8945 60.6926 68.9535ZM54.692 55.8134C54.9191 57.4429 55.3087 59.0087 55.8737 60.5712C56.4203 62.0832 57.0455 63.5995 57.9451 64.9822C58.7834 66.2707 59.7812 67.4729 60.585 68.7776C60.3737 68.5272 59.9297 68.2229 59.7593 68.0435C59.4792 67.7486 59.2169 67.4447 58.9682 67.1297C58.4584 66.4839 58.0039 65.8084 57.5646 65.1254C56.7023 63.7847 56.0558 62.3305 55.4954 60.8759C54.3952 58.0196 53.2913 54.5559 54.2583 51.5388C54.1836 51.7328 54.3799 52.1962 54.4108 52.41C54.4647 52.7835 54.5131 53.1596 54.5374 53.5358C54.5866 54.2976 54.5863 55.0551 54.692 55.8134ZM57.992 67.618C57.6318 67.1604 56.9628 66.7996 56.5489 66.3595C56.1737 65.9605 55.8831 65.5135 55.6193 65.0541C55.0213 64.0126 54.6284 62.949 54.5011 61.7847C54.5301 61.9228 54.7447 62.1617 54.8122 62.2751C54.9749 62.5484 55.1359 62.822 55.2862 63.1007C55.5772 63.6401 55.82 64.1978 56.1141 64.7358C56.6544 65.7242 57.3417 66.6809 57.992 67.618ZM59.232 72.4961C59.5275 73.0146 59.773 73.5443 59.928 74.1088C60.0098 74.4066 60.0757 74.7084 60.1323 75.0107C60.1505 75.1082 60.154 75.459 60.2005 75.6107C59.6133 74.4767 59.1652 73.2757 58.4657 72.1904C57.7753 71.119 56.8888 70.1338 55.9611 69.209C54.9815 68.2324 53.9962 67.3109 53.4708 66.078C53.0134 65.0049 52.8367 63.9061 52.9431 62.7597C52.9437 63.2647 53.4089 63.9812 53.5696 64.4692C53.7896 65.1371 53.9644 65.8184 54.2955 66.4533C54.859 67.5339 55.8755 68.3675 56.7256 69.2778C57.6675 70.2864 58.5672 71.3294 59.232 72.4961ZM55.4395 70.0331C55.7202 70.302 55.9665 70.589 56.1836 70.8986C56.4216 71.2381 56.5962 71.5952 56.7523 71.9689C56.8867 72.2906 56.946 72.8892 57.1573 73.1577C56.4736 72.3263 55.7696 71.541 55.2981 70.5968C55.1374 70.2737 54.8878 69.7979 54.7035 69.4088C54.7648 69.5655 55.3009 69.9004 55.4395 70.0331ZM52.7017 71.711C53.454 72.8341 54.4377 73.8467 55.0811 75.022C55.8314 76.3927 56.1615 77.8781 56.2281 79.3932C56.2596 80.1098 56.2579 80.8374 56.161 81.552C56.1091 81.9345 56.0258 82.3147 55.9306 82.6914C55.8945 82.8344 55.7078 83.2006 55.6715 83.4237C55.5947 80.6379 56.0572 77.8518 54.6037 75.2563C53.9155 74.0272 52.8576 72.9793 52.0374 71.8158C51.2999 70.7696 50.5795 69.7436 49.9922 68.625C50.3518 69.0785 50.9999 69.4349 51.4018 69.8852C51.9052 70.4492 52.2895 71.0956 52.7017 71.711ZM55.6715 83.4237C55.6628 83.4776 55.6626 83.5235 55.6751 83.5559C55.6736 83.5119 55.6727 83.4678 55.6715 83.4237ZM53.1411 77.5162C53.1412 77.6473 53.3574 77.9173 53.4165 78.054C53.5548 78.3736 53.6674 78.7091 53.7236 79.048C53.8344 79.7162 53.689 80.4064 53.4406 81.0461C52.937 82.343 52.1482 83.4915 51.1568 84.5611C51.5108 84.0992 51.6518 83.3483 51.9009 82.8332C52.1567 82.3044 52.4311 81.7837 52.6567 81.2444C53.1656 80.0275 53.1207 78.7837 53.1411 77.5162ZM50.8494 82.4602C50.9556 82.3154 50.9005 81.6191 50.9567 81.4369C51.0606 81.1004 51.2404 80.7757 51.4468 80.4762C51.3366 80.6609 51.4994 81.128 51.4457 81.3677C51.3575 81.7611 51.1354 82.1425 50.8494 82.4602ZM66.146 35.2978C66.1246 35.3127 66.1034 35.34 66.0825 35.3761C66.1037 35.35 66.1245 35.3237 66.146 35.2978ZM62.2322 41.0019C62.6088 40.6727 62.8094 39.8944 63.0691 39.4745C63.3674 38.9921 63.7102 38.5286 64.0354 38.0589C64.6802 37.1276 65.2887 36.2132 66.0825 35.3657C65.9176 35.6126 65.7714 36.3616 65.6809 36.5586C65.4445 37.0733 65.1626 37.5667 64.8269 38.0398C64.0684 39.1087 63.2546 40.102 62.2322 41.0019ZM62.0903 38.3036C62.2892 37.953 62.5924 37.6567 62.9335 37.4014C62.7816 37.5342 62.7131 38.082 62.6087 38.267C62.398 38.6402 62.091 38.962 61.7614 39.2637C61.9374 39.1099 61.9659 38.5229 62.0903 38.3036ZM93.6947 64.2052C93.6929 64.2189 93.6894 64.246 93.6838 64.2873C93.6833 63.8842 93.5035 63.4413 93.4822 63.0268C93.4525 62.4479 93.5359 61.8863 93.7694 61.3375C94.2306 60.2536 95.0959 59.4326 96.1991 58.7902C95.8955 58.9685 95.598 59.6393 95.4033 59.9182C95.1109 60.3375 94.7984 60.7606 94.5512 61.2003C94.0361 62.1168 93.8867 63.2134 93.6947 64.2052ZM93.2951 58.4845C93.2322 58.8082 93.1494 59.1293 93.0328 59.4428C92.907 59.7808 92.7429 60.1095 92.5599 60.4281C92.4459 60.6265 92.0351 61.043 92.0354 61.2625C92.0136 59.968 92.4936 58.7953 93.4068 57.7587C93.3067 57.9324 93.3319 58.2953 93.2951 58.4845ZM93.0825 67.7974C94.0519 67.6607 94.9666 68.1308 95.5807 68.7359C95.9088 69.0593 96.2004 69.4308 96.3933 69.8282C96.5382 70.127 96.538 70.6166 96.7327 70.8641C96.2561 70.2249 95.6519 69.7085 95.0557 69.1557C94.6412 68.7713 93.8128 67.7865 93.0825 67.7974ZM92.8763 70.5398C92.8254 70.5227 92.3635 70.3925 92.2566 70.4553C92.415 70.3848 92.6093 70.2989 92.7835 70.2759C93.9194 70.1255 95.3003 71.1061 95.4529 72.0522C95.3259 71.7281 94.6507 71.46 94.3454 71.2988C93.862 71.0435 93.4004 70.7343 92.8763 70.5398ZM93.3559 72.6043C93.5526 72.6523 93.9709 72.9149 94.1639 72.9121C93.3872 72.9309 92.6865 72.8448 91.9389 72.6705C91.9793 72.6815 92.4054 72.55 92.4192 72.5481C92.7413 72.5028 93.0442 72.5283 93.3559 72.6043ZM90.3477 76.2665C91.4848 76.2025 92.8232 76.368 93.9091 76.6409C94.4481 76.7763 94.9536 76.9808 95.4184 77.2474C95.7933 77.4625 96.4603 77.758 96.7111 78.0766C95.7196 76.3715 93.5691 75.4859 91.3659 75.925C91.0722 75.9839 90.6212 76.2624 90.3477 76.2665ZM90.0933 79.5523C90.8061 79.2974 91.5944 79.0518 92.369 79.0161C93.1039 78.9826 93.9189 79.0926 94.5989 79.3261C94.3649 79.2627 93.8055 79.4139 93.5595 79.4417C93.2157 79.4805 92.8711 79.5206 92.5265 79.5519C92.104 79.5904 91.6776 79.6117 91.2535 79.6108C90.9514 79.6102 90.3734 79.4679 90.0933 79.5523ZM87.3187 84.1013C87.3858 85.1513 87.9953 86.0663 88.8914 86.7656C89.8414 87.5068 91.113 87.8442 91.8026 88.8345C92.1387 89.317 92.3178 89.8787 92.2891 90.4461C92.2742 90.7385 92.2005 91.0324 92.1207 91.3168C92.0683 91.5039 91.8815 91.8105 91.8817 91.993C91.8899 90.9658 91.9039 89.7699 91.1827 88.9081C90.4586 88.0428 89.196 87.738 88.3115 87.0276C87.4422 86.3295 86.7828 85.4171 86.6343 84.3888C86.5144 83.5579 86.5735 82.109 87.4377 81.5452C87.2623 81.6482 87.297 82.1724 87.2928 82.3197C87.276 82.9094 87.2811 83.5132 87.3187 84.1013ZM86.6682 88.135C86.7733 88.2723 87.3496 88.4393 87.5188 88.534C87.9051 88.75 88.2786 88.9956 88.585 89.2943C89.1992 89.8933 89.5951 90.7334 89.6236 91.5392C89.6236 91.3487 89.1871 90.8898 89.0645 90.7271C88.8609 90.4569 88.6309 90.2067 88.3967 89.9563C87.8258 89.3456 87.2329 88.75 86.6682 88.135ZM100.499 64.6448C100.818 64.9224 101.032 65.2676 101.208 65.625C101.614 66.4494 101.69 67.4003 101.364 68.2679C101.418 68.0817 101.258 67.6906 101.213 67.5018C101.114 67.0888 100.96 66.6986 100.799 66.3015C100.486 65.531 100.233 64.8089 99.6893 64.1339C99.83 64.3103 100.307 64.4774 100.499 64.6448ZM85.2109 35.0956C85.211 35.1832 85.454 35.4372 85.5089 35.5327C85.6458 35.7711 85.7539 36.0212 85.7909 36.2873C85.8329 36.5889 85.7815 36.8841 85.6898 37.1774C85.6352 37.3518 85.3758 37.6887 85.3761 37.8458C85.3337 36.9212 85.1285 36.0329 85.2109 35.0956ZM87.236 36.8984C87.2798 37.2269 87.1721 37.5973 86.9804 37.8874C87.0154 37.8053 86.8601 37.2577 86.855 37.1574C86.8393 36.8474 86.8733 36.5286 86.8938 36.2188C86.894 36.3881 87.2075 36.6846 87.236 36.8984ZM71.1228 37.3129C70.7954 37.7126 70.423 38.0873 70.0224 38.4343C69.751 38.6694 69.2311 38.9337 69.0244 39.2035C69.9527 37.6939 71.0252 36.3918 72.2862 35.0723C72.0964 35.3155 72.0469 35.8432 71.9077 36.1277C71.7024 36.5472 71.4278 36.9406 71.1228 37.3129ZM72.6867 37.9679C72.8378 37.8791 72.9793 37.4413 73.0945 37.2939C73.2884 37.0457 73.5252 36.8061 73.7779 36.5992C73.7236 36.6574 73.6182 37.1392 73.5591 37.2338C73.3676 37.5405 73.0289 37.7907 72.6867 37.9679Z" fill="white" fill-opacity="0.6"/>
<g filter="url(#filter1_d_90_648)">
<path d="M75.0001 49.9295C72.0735 49.9295 71.6513 47.5286 65.6324 47.1887C59.6174 46.9181 57.7162 48.6975 57.7059 49.9295C57.7157 51.0641 57.4066 54.0127 61.3089 57.4665C65.2257 61.5662 69.2384 60.176 70.6765 58.8369C72.1192 58.218 73.7645 52.6644 75.0001 52.6702C76.2356 52.676 77.8809 58.218 79.3236 58.8369C80.7617 60.176 84.7744 61.5662 88.6912 57.4665C92.5935 54.0127 92.2844 51.0641 92.2942 49.9295C92.2839 48.6975 90.3827 46.9181 84.3677 47.1887C78.3488 47.5286 77.9266 49.9295 75.0001 49.9295Z" fill="#F4F4F4"/>
<path d="M72.1177 52.6706C72.2187 50.6467 68.6936 48.4846 64.9118 48.5595C61.1319 48.6384 60.6399 51.0577 60.5882 51.9854C60.4958 54.1349 62.8069 58.9665 67.0735 58.8373C71.3402 58.7028 72.0593 54.006 72.1177 52.6706Z" fill="#2F383B"/>
<path d="M77.8825 52.6706C77.7815 50.6467 81.3066 48.4846 85.0883 48.5595C88.8682 48.6384 89.3602 51.0577 89.4119 51.9854C89.5044 54.1349 87.1932 58.9665 82.9266 58.8373C78.6599 58.7028 77.9408 54.006 77.8825 52.6706Z" fill="#2F383B"/>
</g>
</g>
</g>
</g>
<path d="M136.94 71V51.4H139.74V68.564H150.352V71H136.94ZM159.226 71.168C157.956 71.168 156.836 70.9347 155.866 70.468C154.914 70.0013 154.167 69.292 153.626 68.34C153.103 67.3693 152.842 66.156 152.842 64.7V56.16H155.53V64.392C155.53 65.848 155.875 66.94 156.566 67.668C157.275 68.396 158.264 68.76 159.534 68.76C160.467 68.76 161.279 68.5733 161.97 68.2C162.66 67.808 163.192 67.248 163.566 66.52C163.939 65.7733 164.126 64.8773 164.126 63.832V56.16H166.814V71H164.266V66.996L164.686 68.06C164.2 69.0493 163.472 69.8147 162.502 70.356C161.531 70.8973 160.439 71.168 159.226 71.168ZM178.399 71.168C176.887 71.168 175.533 70.8413 174.339 70.188C173.163 69.5347 172.239 68.6387 171.567 67.5C170.895 66.3613 170.559 65.0547 170.559 63.58C170.559 62.1053 170.895 60.7987 171.567 59.66C172.239 58.5213 173.163 57.6347 174.339 57C175.533 56.3467 176.887 56.02 178.399 56.02C179.743 56.02 180.937 56.2907 181.983 56.832C183.047 57.3547 183.868 58.1387 184.447 59.184L182.403 60.5C181.917 59.772 181.32 59.24 180.611 58.904C179.92 58.5493 179.173 58.372 178.371 58.372C177.4 58.372 176.532 58.5867 175.767 59.016C175.001 59.4453 174.395 60.052 173.947 60.836C173.499 61.6013 173.275 62.516 173.275 63.58C173.275 64.644 173.499 65.568 173.947 66.352C174.395 67.136 175.001 67.7427 175.767 68.172C176.532 68.6013 177.4 68.816 178.371 68.816C179.173 68.816 179.92 68.648 180.611 68.312C181.32 67.9573 181.917 67.416 182.403 66.688L184.447 67.976C183.868 69.0027 183.047 69.796 181.983 70.356C180.937 70.8973 179.743 71.168 178.399 71.168ZM188.38 76.6C187.67 76.6 186.98 76.4787 186.308 76.236C185.636 76.012 185.057 75.676 184.571 75.228L185.72 73.212C186.093 73.5667 186.504 73.8373 186.952 74.024C187.4 74.2107 187.876 74.304 188.38 74.304C189.033 74.304 189.574 74.136 190.004 73.8C190.433 73.464 190.834 72.8667 191.208 72.008L192.132 69.964L192.412 69.628L198.236 56.16H200.868L193.672 72.484C193.242 73.5293 192.757 74.3507 192.216 74.948C191.693 75.5453 191.114 75.9653 190.48 76.208C189.845 76.4693 189.145 76.6 188.38 76.6ZM191.908 71.476L185.131 56.16H187.932L193.7 69.376L191.908 71.476Z" fill="black"/>
<path d="M46.73 155V136.8H49.33V152.738H59.184V155H46.73ZM67.5278 155.156C66.1411 155.156 64.9104 154.853 63.8358 154.246C62.7611 153.639 61.9118 152.807 61.2878 151.75C60.6638 150.675 60.3518 149.462 60.3518 148.11C60.3518 146.741 60.6638 145.527 61.2878 144.47C61.9118 143.413 62.7611 142.589 63.8358 142C64.9104 141.393 66.1411 141.09 67.5278 141.09C68.8971 141.09 70.1191 141.393 71.1938 142C72.2858 142.589 73.1351 143.413 73.7418 144.47C74.3658 145.51 74.6778 146.723 74.6778 148.11C74.6778 149.479 74.3658 150.693 73.7418 151.75C73.1351 152.807 72.2858 153.639 71.1938 154.246C70.1191 154.853 68.8971 155.156 67.5278 155.156ZM67.5278 152.972C68.4118 152.972 69.2004 152.773 69.8938 152.374C70.6044 151.975 71.1591 151.412 71.5578 150.684C71.9564 149.939 72.1558 149.081 72.1558 148.11C72.1558 147.122 71.9564 146.273 71.5578 145.562C71.1591 144.834 70.6044 144.271 69.8938 143.872C69.2004 143.473 68.4118 143.274 67.5278 143.274C66.6438 143.274 65.8551 143.473 65.1618 143.872C64.4684 144.271 63.9138 144.834 63.4978 145.562C63.0818 146.273 62.8738 147.122 62.8738 148.11C62.8738 149.081 63.0818 149.939 63.4978 150.684C63.9138 151.412 64.4684 151.975 65.1618 152.374C65.8551 152.773 66.6438 152.972 67.5278 152.972ZM78.1297 155V141.22H80.5217V144.964L80.2877 144.028C80.669 143.075 81.3103 142.347 82.2117 141.844C83.113 141.341 84.2223 141.09 85.5397 141.09V143.508C85.4357 143.491 85.3317 143.482 85.2277 143.482C85.141 143.482 85.0543 143.482 84.9677 143.482C83.633 143.482 82.5757 143.881 81.7957 144.678C81.0157 145.475 80.6257 146.628 80.6257 148.136V155H78.1297ZM94.625 155.156C93.1517 155.156 91.8517 154.853 90.725 154.246C89.6157 153.639 88.749 152.807 88.125 151.75C87.5184 150.693 87.215 149.479 87.215 148.11C87.215 146.741 87.5097 145.527 88.099 144.47C88.7057 143.413 89.529 142.589 90.569 142C91.6264 141.393 92.8137 141.09 94.131 141.09C95.4657 141.09 96.6444 141.385 97.667 141.974C98.6897 142.563 99.487 143.395 100.059 144.47C100.648 145.527 100.943 146.767 100.943 148.188C100.943 148.292 100.934 148.413 100.917 148.552C100.917 148.691 100.908 148.821 100.891 148.942H89.165V147.148H99.591L98.577 147.772C98.5944 146.888 98.4124 146.099 98.031 145.406C97.6497 144.713 97.121 144.175 96.445 143.794C95.7864 143.395 95.015 143.196 94.131 143.196C93.2644 143.196 92.493 143.395 91.817 143.794C91.141 144.175 90.6124 144.721 90.231 145.432C89.8497 146.125 89.659 146.923 89.659 147.824V148.24C89.659 149.159 89.867 149.982 90.283 150.71C90.7164 151.421 91.3144 151.975 92.077 152.374C92.8397 152.773 93.715 152.972 94.703 152.972C95.5177 152.972 96.2544 152.833 96.913 152.556C97.589 152.279 98.1784 151.863 98.681 151.308L100.059 152.92C99.435 153.648 98.655 154.203 97.719 154.584C96.8004 154.965 95.769 155.156 94.625 155.156ZM121.647 141.09C122.756 141.09 123.736 141.307 124.585 141.74C125.434 142.173 126.093 142.832 126.561 143.716C127.046 144.6 127.289 145.718 127.289 147.07V155H124.793V147.356C124.793 146.021 124.481 145.016 123.857 144.34C123.233 143.664 122.358 143.326 121.231 143.326C120.399 143.326 119.671 143.499 119.047 143.846C118.423 144.193 117.938 144.704 117.591 145.38C117.262 146.056 117.097 146.897 117.097 147.902V155H114.601V147.356C114.601 146.021 114.289 145.016 113.665 144.34C113.058 143.664 112.183 143.326 111.039 143.326C110.224 143.326 109.505 143.499 108.881 143.846C108.257 144.193 107.772 144.704 107.425 145.38C107.078 146.056 106.905 146.897 106.905 147.902V155H104.409V141.22H106.801V144.886L106.411 143.95C106.844 143.049 107.512 142.347 108.413 141.844C109.314 141.341 110.363 141.09 111.559 141.09C112.876 141.09 114.012 141.419 114.965 142.078C115.918 142.719 116.542 143.699 116.837 145.016L115.823 144.6C116.239 143.543 116.967 142.693 118.007 142.052C119.047 141.411 120.26 141.09 121.647 141.09ZM138.864 155V141.22H141.36V155H138.864ZM140.112 138.568C139.627 138.568 139.219 138.412 138.89 138.1C138.578 137.788 138.422 137.407 138.422 136.956C138.422 136.488 138.578 136.098 138.89 135.786C139.219 135.474 139.627 135.318 140.112 135.318C140.597 135.318 140.996 135.474 141.308 135.786C141.637 136.081 141.802 136.453 141.802 136.904C141.802 137.372 141.646 137.771 141.334 138.1C141.022 138.412 140.615 138.568 140.112 138.568ZM153.432 155.156C152.288 155.156 151.239 154.896 150.286 154.376C149.35 153.839 148.596 153.05 148.024 152.01C147.469 150.97 147.192 149.67 147.192 148.11C147.192 146.55 147.46 145.25 147.998 144.21C148.552 143.17 149.298 142.39 150.234 141.87C151.187 141.35 152.253 141.09 153.432 141.09C154.784 141.09 155.98 141.385 157.02 141.974C158.06 142.563 158.883 143.387 159.49 144.444C160.096 145.484 160.4 146.706 160.4 148.11C160.4 149.514 160.096 150.745 159.49 151.802C158.883 152.859 158.06 153.683 157.02 154.272C155.98 154.861 154.784 155.156 153.432 155.156ZM146.126 160.044V141.22H148.518V144.938L148.362 148.136L148.622 151.334V160.044H146.126ZM153.224 152.972C154.108 152.972 154.896 152.773 155.59 152.374C156.3 151.975 156.855 151.412 157.254 150.684C157.67 149.939 157.878 149.081 157.878 148.11C157.878 147.122 157.67 146.273 157.254 145.562C156.855 144.834 156.3 144.271 155.59 143.872C154.896 143.473 154.108 143.274 153.224 143.274C152.357 143.274 151.568 143.473 150.858 143.872C150.164 144.271 149.61 144.834 149.194 145.562C148.795 146.273 148.596 147.122 148.596 148.11C148.596 149.081 148.795 149.939 149.194 150.684C149.61 151.412 150.164 151.975 150.858 152.374C151.568 152.773 152.357 152.972 153.224 152.972ZM167.8 155.156C166.656 155.156 165.564 155 164.524 154.688C163.502 154.376 162.696 153.995 162.106 153.544L163.146 151.568C163.736 151.967 164.464 152.305 165.33 152.582C166.197 152.859 167.081 152.998 167.982 152.998C169.144 152.998 169.976 152.833 170.478 152.504C170.998 152.175 171.258 151.715 171.258 151.126C171.258 150.693 171.102 150.355 170.79 150.112C170.478 149.869 170.062 149.687 169.542 149.566C169.04 149.445 168.476 149.341 167.852 149.254C167.228 149.15 166.604 149.029 165.98 148.89C165.356 148.734 164.784 148.526 164.264 148.266C163.744 147.989 163.328 147.616 163.016 147.148C162.704 146.663 162.548 146.021 162.548 145.224C162.548 144.392 162.782 143.664 163.25 143.04C163.718 142.416 164.377 141.939 165.226 141.61C166.093 141.263 167.116 141.09 168.294 141.09C169.196 141.09 170.106 141.203 171.024 141.428C171.96 141.636 172.723 141.939 173.312 142.338L172.246 144.314C171.622 143.898 170.972 143.612 170.296 143.456C169.62 143.3 168.944 143.222 168.268 143.222C167.176 143.222 166.362 143.404 165.824 143.768C165.287 144.115 165.018 144.565 165.018 145.12C165.018 145.588 165.174 145.952 165.486 146.212C165.816 146.455 166.232 146.645 166.734 146.784C167.254 146.923 167.826 147.044 168.45 147.148C169.074 147.235 169.698 147.356 170.322 147.512C170.946 147.651 171.51 147.85 172.012 148.11C172.532 148.37 172.948 148.734 173.26 149.202C173.59 149.67 173.754 150.294 173.754 151.074C173.754 151.906 173.512 152.625 173.026 153.232C172.541 153.839 171.856 154.315 170.972 154.662C170.088 154.991 169.031 155.156 167.8 155.156ZM182.672 155.156C181.493 155.156 180.453 154.939 179.552 154.506C178.668 154.073 177.974 153.414 177.472 152.53C176.986 151.629 176.744 150.502 176.744 149.15V141.22H179.24V148.864C179.24 150.216 179.56 151.23 180.202 151.906C180.86 152.582 181.779 152.92 182.958 152.92C183.824 152.92 184.578 152.747 185.22 152.4C185.861 152.036 186.355 151.516 186.702 150.84C187.048 150.147 187.222 149.315 187.222 148.344V141.22H189.718V155H187.352V151.282L187.742 152.27C187.291 153.189 186.615 153.899 185.714 154.402C184.812 154.905 183.798 155.156 182.672 155.156ZM211.708 141.09C212.817 141.09 213.796 141.307 214.646 141.74C215.495 142.173 216.154 142.832 216.622 143.716C217.107 144.6 217.35 145.718 217.35 147.07V155H214.854V147.356C214.854 146.021 214.542 145.016 213.918 144.34C213.294 143.664 212.418 143.326 211.292 143.326C210.46 143.326 209.732 143.499 209.108 143.846C208.484 144.193 207.998 144.704 207.652 145.38C207.322 146.056 207.158 146.897 207.158 147.902V155H204.662V147.356C204.662 146.021 204.35 145.016 203.726 144.34C203.119 143.664 202.244 143.326 201.1 143.326C200.285 143.326 199.566 143.499 198.942 143.846C198.318 144.193 197.832 144.704 197.486 145.38C197.139 146.056 196.966 146.897 196.966 147.902V155H194.47V141.22H196.862V144.886L196.472 143.95C196.905 143.049 197.572 142.347 198.474 141.844C199.375 141.341 200.424 141.09 201.62 141.09C202.937 141.09 204.072 141.419 205.026 142.078C205.979 142.719 206.603 143.699 206.898 145.016L205.884 144.6C206.3 143.543 207.028 142.693 208.068 142.052C209.108 141.411 210.321 141.09 211.708 141.09ZM234.619 155.156C233.284 155.156 232.088 154.861 231.031 154.272C229.991 153.683 229.167 152.859 228.561 151.802C227.954 150.745 227.651 149.514 227.651 148.11C227.651 146.706 227.954 145.484 228.561 144.444C229.167 143.387 229.991 142.563 231.031 141.974C232.088 141.385 233.284 141.09 234.619 141.09C235.78 141.09 236.829 141.35 237.765 141.87C238.701 142.39 239.446 143.17 240.001 144.21C240.573 145.25 240.859 146.55 240.859 148.11C240.859 149.67 240.581 150.97 240.027 152.01C239.489 153.05 238.753 153.839 237.817 154.376C236.881 154.896 235.815 155.156 234.619 155.156ZM234.827 152.972C235.693 152.972 236.473 152.773 237.167 152.374C237.877 151.975 238.432 151.412 238.831 150.684C239.247 149.939 239.455 149.081 239.455 148.11C239.455 147.122 239.247 146.273 238.831 145.562C238.432 144.834 237.877 144.271 237.167 143.872C236.473 143.473 235.693 143.274 234.827 143.274C233.943 143.274 233.154 143.473 232.461 143.872C231.767 144.271 231.213 144.834 230.797 145.562C230.381 146.273 230.173 147.122 230.173 148.11C230.173 149.081 230.381 149.939 230.797 150.684C231.213 151.412 231.767 151.975 232.461 152.374C233.154 152.773 233.943 152.972 234.827 152.972ZM239.533 155V151.282L239.689 148.084L239.429 144.886V135.708H241.925V155H239.533ZM252.549 155.156C251.163 155.156 249.932 154.853 248.857 154.246C247.783 153.639 246.933 152.807 246.309 151.75C245.685 150.675 245.373 149.462 245.373 148.11C245.373 146.741 245.685 145.527 246.309 144.47C246.933 143.413 247.783 142.589 248.857 142C249.932 141.393 251.163 141.09 252.549 141.09C253.919 141.09 255.141 141.393 256.215 142C257.307 142.589 258.157 143.413 258.763 144.47C259.387 145.51 259.699 146.723 259.699 148.11C259.699 149.479 259.387 150.693 258.763 151.75C258.157 152.807 257.307 153.639 256.215 154.246C255.141 154.853 253.919 155.156 252.549 155.156ZM252.549 152.972C253.433 152.972 254.222 152.773 254.915 152.374C255.626 151.975 256.181 151.412 256.579 150.684C256.978 149.939 257.177 149.081 257.177 148.11C257.177 147.122 256.978 146.273 256.579 145.562C256.181 144.834 255.626 144.271 254.915 143.872C254.222 143.473 253.433 143.274 252.549 143.274C251.665 143.274 250.877 143.473 250.183 143.872C249.49 144.271 248.935 144.834 248.519 145.562C248.103 146.273 247.895 147.122 247.895 148.11C247.895 149.081 248.103 149.939 248.519 150.684C248.935 151.412 249.49 151.975 250.183 152.374C250.877 152.773 251.665 152.972 252.549 152.972ZM263.151 155V135.708H265.647V155H263.151ZM276.315 155.156C274.928 155.156 273.698 154.853 272.623 154.246C271.548 153.639 270.699 152.807 270.075 151.75C269.451 150.675 269.139 149.462 269.139 148.11C269.139 146.741 269.451 145.527 270.075 144.47C270.699 143.413 271.548 142.589 272.623 142C273.698 141.393 274.928 141.09 276.315 141.09C277.684 141.09 278.906 141.393 279.981 142C281.073 142.589 281.922 143.413 282.529 144.47C283.153 145.51 283.465 146.723 283.465 148.11C283.465 149.479 283.153 150.693 282.529 151.75C281.922 152.807 281.073 153.639 279.981 154.246C278.906 154.853 277.684 155.156 276.315 155.156ZM276.315 152.972C277.199 152.972 277.988 152.773 278.681 152.374C279.392 151.975 279.946 151.412 280.345 150.684C280.744 149.939 280.943 149.081 280.943 148.11C280.943 147.122 280.744 146.273 280.345 145.562C279.946 144.834 279.392 144.271 278.681 143.872C277.988 143.473 277.199 143.274 276.315 143.274C275.431 143.274 274.642 143.473 273.949 143.872C273.256 144.271 272.701 144.834 272.285 145.562C271.869 146.273 271.661 147.122 271.661 148.11C271.661 149.081 271.869 149.939 272.285 150.684C272.701 151.412 273.256 151.975 273.949 152.374C274.642 152.773 275.431 152.972 276.315 152.972ZM286.917 155V141.22H289.309V144.964L289.075 144.028C289.456 143.075 290.097 142.347 290.999 141.844C291.9 141.341 293.009 141.09 294.327 141.09V143.508C294.223 143.491 294.119 143.482 294.015 143.482C293.928 143.482 293.841 143.482 293.755 143.482C292.42 143.482 291.363 143.881 290.583 144.678C289.803 145.475 289.413 146.628 289.413 148.136V155H286.917ZM308.515 155.156C307.371 155.156 306.279 155 305.239 154.688C304.217 154.376 303.411 153.995 302.821 153.544L303.861 151.568C304.451 151.967 305.179 152.305 306.045 152.582C306.912 152.859 307.796 152.998 308.697 152.998C309.859 152.998 310.691 152.833 311.193 152.504C311.713 152.175 311.973 151.715 311.973 151.126C311.973 150.693 311.817 150.355 311.505 150.112C311.193 149.869 310.777 149.687 310.257 149.566C309.755 149.445 309.191 149.341 308.567 149.254C307.943 149.15 307.319 149.029 306.695 148.89C306.071 148.734 305.499 148.526 304.979 148.266C304.459 147.989 304.043 147.616 303.731 147.148C303.419 146.663 303.263 146.021 303.263 145.224C303.263 144.392 303.497 143.664 303.965 143.04C304.433 142.416 305.092 141.939 305.941 141.61C306.808 141.263 307.831 141.09 309.009 141.09C309.911 141.09 310.821 141.203 311.739 141.428C312.675 141.636 313.438 141.939 314.027 142.338L312.961 144.314C312.337 143.898 311.687 143.612 311.011 143.456C310.335 143.3 309.659 143.222 308.983 143.222C307.891 143.222 307.077 143.404 306.539 143.768C306.002 144.115 305.733 144.565 305.733 145.12C305.733 145.588 305.889 145.952 306.201 146.212C306.531 146.455 306.947 146.645 307.449 146.784C307.969 146.923 308.541 147.044 309.165 147.148C309.789 147.235 310.413 147.356 311.037 147.512C311.661 147.651 312.225 147.85 312.727 148.11C313.247 148.37 313.663 148.734 313.975 149.202C314.305 149.67 314.469 150.294 314.469 151.074C314.469 151.906 314.227 152.625 313.741 153.232C313.256 153.839 312.571 154.315 311.687 154.662C310.803 154.991 309.746 155.156 308.515 155.156ZM317.589 155V141.22H320.085V155H317.589ZM318.837 138.568C318.351 138.568 317.944 138.412 317.615 138.1C317.303 137.788 317.147 137.407 317.147 136.956C317.147 136.488 317.303 136.098 317.615 135.786C317.944 135.474 318.351 135.318 318.837 135.318C319.322 135.318 319.721 135.474 320.033 135.786C320.362 136.081 320.527 136.453 320.527 136.904C320.527 137.372 320.371 137.771 320.059 138.1C319.747 138.412 319.339 138.568 318.837 138.568ZM329.582 155.156C328.196 155.156 327.121 154.783 326.358 154.038C325.596 153.293 325.214 152.227 325.214 150.84V138.204H327.71V150.736C327.71 151.481 327.892 152.053 328.256 152.452C328.638 152.851 329.175 153.05 329.868 153.05C330.648 153.05 331.298 152.833 331.818 152.4L332.598 154.194C332.217 154.523 331.758 154.766 331.22 154.922C330.7 155.078 330.154 155.156 329.582 155.156ZM322.874 143.274V141.22H331.662V143.274H322.874ZM351.152 155V152.088L351.022 151.542V146.576C351.022 145.519 350.71 144.704 350.086 144.132C349.48 143.543 348.561 143.248 347.33 143.248C346.516 143.248 345.718 143.387 344.938 143.664C344.158 143.924 343.5 144.279 342.962 144.73L341.922 142.858C342.633 142.286 343.482 141.853 344.47 141.558C345.476 141.246 346.524 141.09 347.616 141.09C349.506 141.09 350.962 141.549 351.984 142.468C353.007 143.387 353.518 144.791 353.518 146.68V155H351.152ZM346.628 155.156C345.606 155.156 344.704 154.983 343.924 154.636C343.162 154.289 342.572 153.813 342.156 153.206C341.74 152.582 341.532 151.88 341.532 151.1C341.532 150.355 341.706 149.679 342.052 149.072C342.416 148.465 342.997 147.98 343.794 147.616C344.609 147.252 345.701 147.07 347.07 147.07H351.438V148.864H347.174C345.926 148.864 345.086 149.072 344.652 149.488C344.219 149.904 344.002 150.407 344.002 150.996C344.002 151.672 344.271 152.218 344.808 152.634C345.346 153.033 346.091 153.232 347.044 153.232C347.98 153.232 348.795 153.024 349.488 152.608C350.199 152.192 350.71 151.585 351.022 150.788L351.516 152.504C351.187 153.319 350.606 153.969 349.774 154.454C348.942 154.922 347.894 155.156 346.628 155.156ZM375.375 141.09C376.485 141.09 377.464 141.307 378.313 141.74C379.163 142.173 379.821 142.832 380.289 143.716C380.775 144.6 381.017 145.718 381.017 147.07V155H378.521V147.356C378.521 146.021 378.209 145.016 377.585 144.34C376.961 143.664 376.086 143.326 374.959 143.326C374.127 143.326 373.399 143.499 372.775 143.846C372.151 144.193 371.666 144.704 371.319 145.38C370.99 146.056 370.825 146.897 370.825 147.902V155H368.329V147.356C368.329 146.021 368.017 145.016 367.393 144.34C366.787 143.664 365.911 143.326 364.767 143.326C363.953 143.326 363.233 143.499 362.609 143.846C361.985 144.193 361.5 144.704 361.153 145.38C360.807 146.056 360.633 146.897 360.633 147.902V155H358.137V141.22H360.529V144.886L360.139 143.95C360.573 143.049 361.24 142.347 362.141 141.844C363.043 141.341 364.091 141.09 365.287 141.09C366.605 141.09 367.74 141.419 368.693 142.078C369.647 142.719 370.271 143.699 370.565 145.016L369.551 144.6C369.967 143.543 370.695 142.693 371.735 142.052C372.775 141.411 373.989 141.09 375.375 141.09ZM391.746 155.156C390.273 155.156 388.973 154.853 387.846 154.246C386.737 153.639 385.87 152.807 385.246 151.75C384.639 150.693 384.336 149.479 384.336 148.11C384.336 146.741 384.631 145.527 385.22 144.47C385.827 143.413 386.65 142.589 387.69 142C388.747 141.393 389.935 141.09 391.252 141.09C392.587 141.09 393.765 141.385 394.788 141.974C395.811 142.563 396.608 143.395 397.18 144.47C397.769 145.527 398.064 146.767 398.064 148.188C398.064 148.292 398.055 148.413 398.038 148.552C398.038 148.691 398.029 148.821 398.012 148.942H386.286V147.148H396.712L395.698 147.772C395.715 146.888 395.533 146.099 395.152 145.406C394.771 144.713 394.242 144.175 393.566 143.794C392.907 143.395 392.136 143.196 391.252 143.196C390.385 143.196 389.614 143.395 388.938 143.794C388.262 144.175 387.733 144.721 387.352 145.432C386.971 146.125 386.78 146.923 386.78 147.824V148.24C386.78 149.159 386.988 149.982 387.404 150.71C387.837 151.421 388.435 151.975 389.198 152.374C389.961 152.773 390.836 152.972 391.824 152.972C392.639 152.972 393.375 152.833 394.034 152.556C394.71 152.279 395.299 151.863 395.802 151.308L397.18 152.92C396.556 153.648 395.776 154.203 394.84 154.584C393.921 154.965 392.89 155.156 391.746 155.156ZM406.262 155.156C404.875 155.156 403.801 154.783 403.038 154.038C402.275 153.293 401.894 152.227 401.894 150.84V138.204H404.39V150.736C404.39 151.481 404.572 152.053 404.936 152.452C405.317 152.851 405.855 153.05 406.548 153.05C407.328 153.05 407.978 152.833 408.498 152.4L409.278 154.194C408.897 154.523 408.437 154.766 407.9 154.922C407.38 155.078 406.834 155.156 406.262 155.156ZM399.554 143.274V141.22H408.342V143.274H399.554ZM411.562 158.848L412.862 153.596L413.2 155.104C412.697 155.104 412.272 154.948 411.926 154.636C411.596 154.324 411.432 153.899 411.432 153.362C411.432 152.842 411.596 152.417 411.926 152.088C412.272 151.759 412.688 151.594 413.174 151.594C413.676 151.594 414.084 151.767 414.396 152.114C414.708 152.443 414.864 152.859 414.864 153.362C414.864 153.535 414.846 153.709 414.812 153.882C414.794 154.038 414.751 154.229 414.682 154.454C414.63 154.662 414.543 154.922 414.422 155.234L413.2 158.848H411.562ZM52.372 187.156C50.968 187.156 49.7113 186.853 48.602 186.246C47.51 185.639 46.652 184.807 46.028 183.75C45.404 182.693 45.092 181.479 45.092 180.11C45.092 178.741 45.404 177.527 46.028 176.47C46.652 175.413 47.51 174.589 48.602 174C49.7113 173.393 50.968 173.09 52.372 173.09C53.62 173.09 54.7293 173.341 55.7 173.844C56.688 174.329 57.4507 175.057 57.988 176.028L56.09 177.25C55.6393 176.574 55.0847 176.08 54.426 175.768C53.7847 175.439 53.0913 175.274 52.346 175.274C51.4447 175.274 50.6387 175.473 49.928 175.872C49.2173 176.271 48.654 176.834 48.238 177.562C47.822 178.273 47.614 179.122 47.614 180.11C47.614 181.098 47.822 181.956 48.238 182.684C48.654 183.412 49.2173 183.975 49.928 184.374C50.6387 184.773 51.4447 184.972 52.346 184.972C53.0913 184.972 53.7847 184.816 54.426 184.504C55.0847 184.175 55.6393 183.672 56.09 182.996L57.988 184.192C57.4507 185.145 56.688 185.882 55.7 186.402C54.7293 186.905 53.62 187.156 52.372 187.156ZM66.9184 187.156C65.5317 187.156 64.3011 186.853 63.2264 186.246C62.1517 185.639 61.3024 184.807 60.6784 183.75C60.0544 182.675 59.7424 181.462 59.7424 180.11C59.7424 178.741 60.0544 177.527 60.6784 176.47C61.3024 175.413 62.1517 174.589 63.2264 174C64.3011 173.393 65.5317 173.09 66.9184 173.09C68.2877 173.09 69.5097 173.393 70.5844 174C71.6764 174.589 72.5257 175.413 73.1324 176.47C73.7564 177.51 74.0684 178.723 74.0684 180.11C74.0684 181.479 73.7564 182.693 73.1324 183.75C72.5257 184.807 71.6764 185.639 70.5844 186.246C69.5097 186.853 68.2877 187.156 66.9184 187.156ZM66.9184 184.972C67.8024 184.972 68.5911 184.773 69.2844 184.374C69.9951 183.975 70.5497 183.412 70.9484 182.684C71.3471 181.939 71.5464 181.081 71.5464 180.11C71.5464 179.122 71.3471 178.273 70.9484 177.562C70.5497 176.834 69.9951 176.271 69.2844 175.872C68.5911 175.473 67.8024 175.274 66.9184 175.274C66.0344 175.274 65.2457 175.473 64.5524 175.872C63.8591 176.271 63.3044 176.834 62.8884 177.562C62.4724 178.273 62.2644 179.122 62.2644 180.11C62.2644 181.081 62.4724 181.939 62.8884 182.684C63.3044 183.412 63.8591 183.975 64.5524 184.374C65.2457 184.773 66.0344 184.972 66.9184 184.972ZM84.8783 173.09C86.005 173.09 86.993 173.307 87.8423 173.74C88.709 174.173 89.385 174.832 89.8703 175.716C90.3556 176.6 90.5983 177.718 90.5983 179.07V187H88.1023V179.356C88.1023 178.021 87.773 177.016 87.1143 176.34C86.473 175.664 85.563 175.326 84.3843 175.326C83.5003 175.326 82.729 175.499 82.0703 175.846C81.4116 176.193 80.9003 176.704 80.5363 177.38C80.1896 178.056 80.0163 178.897 80.0163 179.902V187H77.5203V173.22H79.9123V176.938L79.5223 175.95C79.973 175.049 80.6663 174.347 81.6023 173.844C82.5383 173.341 83.6303 173.09 84.8783 173.09ZM99.1696 187.156C98.0256 187.156 96.9336 187 95.8936 186.688C94.8709 186.376 94.0649 185.995 93.4756 185.544L94.5156 183.568C95.1049 183.967 95.8329 184.305 96.6996 184.582C97.5662 184.859 98.4502 184.998 99.3516 184.998C100.513 184.998 101.345 184.833 101.848 184.504C102.368 184.175 102.628 183.715 102.628 183.126C102.628 182.693 102.472 182.355 102.16 182.112C101.848 181.869 101.432 181.687 100.912 181.566C100.409 181.445 99.8456 181.341 99.2216 181.254C98.5976 181.15 97.9736 181.029 97.3496 180.89C96.7256 180.734 96.1536 180.526 95.6336 180.266C95.1136 179.989 94.6976 179.616 94.3856 179.148C94.0736 178.663 93.9176 178.021 93.9176 177.224C93.9176 176.392 94.1516 175.664 94.6196 175.04C95.0876 174.416 95.7462 173.939 96.5956 173.61C97.4622 173.263 98.4849 173.09 99.6636 173.09C100.565 173.09 101.475 173.203 102.394 173.428C103.33 173.636 104.092 173.939 104.682 174.338L103.616 176.314C102.992 175.898 102.342 175.612 101.666 175.456C100.99 175.3 100.314 175.222 99.6376 175.222C98.5456 175.222 97.7309 175.404 97.1936 175.768C96.6562 176.115 96.3876 176.565 96.3876 177.12C96.3876 177.588 96.5436 177.952 96.8556 178.212C97.1849 178.455 97.6009 178.645 98.1036 178.784C98.6236 178.923 99.1956 179.044 99.8196 179.148C100.444 179.235 101.068 179.356 101.692 179.512C102.316 179.651 102.879 179.85 103.382 180.11C103.902 180.37 104.318 180.734 104.63 181.202C104.959 181.67 105.124 182.294 105.124 183.074C105.124 183.906 104.881 184.625 104.396 185.232C103.91 185.839 103.226 186.315 102.342 186.662C101.458 186.991 100.4 187.156 99.1696 187.156ZM114.379 187.156C112.906 187.156 111.606 186.853 110.479 186.246C109.37 185.639 108.503 184.807 107.879 183.75C107.272 182.693 106.969 181.479 106.969 180.11C106.969 178.741 107.264 177.527 107.853 176.47C108.46 175.413 109.283 174.589 110.323 174C111.38 173.393 112.568 173.09 113.885 173.09C115.22 173.09 116.398 173.385 117.421 173.974C118.444 174.563 119.241 175.395 119.813 176.47C120.402 177.527 120.697 178.767 120.697 180.188C120.697 180.292 120.688 180.413 120.671 180.552C120.671 180.691 120.662 180.821 120.645 180.942H108.919V179.148H119.345L118.331 179.772C118.348 178.888 118.166 178.099 117.785 177.406C117.404 176.713 116.875 176.175 116.199 175.794C115.54 175.395 114.769 175.196 113.885 175.196C113.018 175.196 112.247 175.395 111.571 175.794C110.895 176.175 110.366 176.721 109.985 177.432C109.604 178.125 109.413 178.923 109.413 179.824V180.24C109.413 181.159 109.621 181.982 110.037 182.71C110.47 183.421 111.068 183.975 111.831 184.374C112.594 184.773 113.469 184.972 114.457 184.972C115.272 184.972 116.008 184.833 116.667 184.556C117.343 184.279 117.932 183.863 118.435 183.308L119.813 184.92C119.189 185.648 118.409 186.203 117.473 186.584C116.554 186.965 115.523 187.156 114.379 187.156ZM130.169 187.156C128.765 187.156 127.508 186.853 126.399 186.246C125.307 185.639 124.449 184.807 123.825 183.75C123.201 182.693 122.889 181.479 122.889 180.11C122.889 178.741 123.201 177.527 123.825 176.47C124.449 175.413 125.307 174.589 126.399 174C127.508 173.393 128.765 173.09 130.169 173.09C131.417 173.09 132.526 173.341 133.497 173.844C134.485 174.329 135.248 175.057 135.785 176.028L133.887 177.25C133.436 176.574 132.882 176.08 132.223 175.768C131.582 175.439 130.888 175.274 130.143 175.274C129.242 175.274 128.436 175.473 127.725 175.872C127.014 176.271 126.451 176.834 126.035 177.562C125.619 178.273 125.411 179.122 125.411 180.11C125.411 181.098 125.619 181.956 126.035 182.684C126.451 183.412 127.014 183.975 127.725 184.374C128.436 184.773 129.242 184.972 130.143 184.972C130.888 184.972 131.582 184.816 132.223 184.504C132.882 184.175 133.436 183.672 133.887 182.996L135.785 184.192C135.248 185.145 134.485 185.882 133.497 186.402C132.526 186.905 131.417 187.156 130.169 187.156ZM143.926 187.156C142.539 187.156 141.465 186.783 140.702 186.038C139.939 185.293 139.558 184.227 139.558 182.84V170.204H142.054V182.736C142.054 183.481 142.236 184.053 142.6 184.452C142.981 184.851 143.519 185.05 144.212 185.05C144.992 185.05 145.642 184.833 146.162 184.4L146.942 186.194C146.561 186.523 146.101 186.766 145.564 186.922C145.044 187.078 144.498 187.156 143.926 187.156ZM137.218 175.274V173.22H146.006V175.274H137.218ZM155.639 187.156C154.165 187.156 152.865 186.853 151.739 186.246C150.629 185.639 149.763 184.807 149.139 183.75C148.532 182.693 148.229 181.479 148.229 180.11C148.229 178.741 148.523 177.527 149.113 176.47C149.719 175.413 150.543 174.589 151.583 174C152.64 173.393 153.827 173.09 155.145 173.09C156.479 173.09 157.658 173.385 158.681 173.974C159.703 174.563 160.501 175.395 161.073 176.47C161.662 177.527 161.957 178.767 161.957 180.188C161.957 180.292 161.948 180.413 161.931 180.552C161.931 180.691 161.922 180.821 161.905 180.942H150.179V179.148H160.605L159.591 179.772C159.608 178.888 159.426 178.099 159.045 177.406C158.663 176.713 158.135 176.175 157.459 175.794C156.8 175.395 156.029 175.196 155.145 175.196C154.278 175.196 153.507 175.395 152.831 175.794C152.155 176.175 151.626 176.721 151.245 177.432C150.863 178.125 150.673 178.923 150.673 179.824V180.24C150.673 181.159 150.881 181.982 151.297 182.71C151.73 183.421 152.328 183.975 153.091 184.374C153.853 184.773 154.729 184.972 155.717 184.972C156.531 184.972 157.268 184.833 157.927 184.556C158.603 184.279 159.192 183.863 159.695 183.308L161.073 184.92C160.449 185.648 159.669 186.203 158.733 186.584C157.814 186.965 156.783 187.156 155.639 187.156ZM170.155 187.156C168.768 187.156 167.693 186.783 166.931 186.038C166.168 185.293 165.787 184.227 165.787 182.84V170.204H168.283V182.736C168.283 183.481 168.465 184.053 168.829 184.452C169.21 184.851 169.747 185.05 170.441 185.05C171.221 185.05 171.871 184.833 172.391 184.4L173.171 186.194C172.789 186.523 172.33 186.766 171.793 186.922C171.273 187.078 170.727 187.156 170.155 187.156ZM163.447 175.274V173.22H172.235V175.274H163.447ZM181.986 187.156C180.808 187.156 179.768 186.939 178.866 186.506C177.982 186.073 177.289 185.414 176.786 184.53C176.301 183.629 176.058 182.502 176.058 181.15V173.22H178.554V180.864C178.554 182.216 178.875 183.23 179.516 183.906C180.175 184.582 181.094 184.92 182.272 184.92C183.139 184.92 183.893 184.747 184.534 184.4C185.176 184.036 185.67 183.516 186.016 182.84C186.363 182.147 186.536 181.315 186.536 180.344V173.22H189.032V187H186.666V183.282L187.056 184.27C186.606 185.189 185.93 185.899 185.028 186.402C184.127 186.905 183.113 187.156 181.986 187.156ZM193.784 187V173.22H196.176V176.964L195.942 176.028C196.323 175.075 196.965 174.347 197.866 173.844C198.767 173.341 199.877 173.09 201.194 173.09V175.508C201.09 175.491 200.986 175.482 200.882 175.482C200.795 175.482 200.709 175.482 200.622 175.482C199.287 175.482 198.23 175.881 197.45 176.678C196.67 177.475 196.28 178.628 196.28 180.136V187H193.784ZM219.984 187V184.088L219.854 183.542V178.576C219.854 177.519 219.542 176.704 218.918 176.132C218.312 175.543 217.393 175.248 216.162 175.248C215.348 175.248 214.55 175.387 213.77 175.664C212.99 175.924 212.332 176.279 211.794 176.73L210.754 174.858C211.465 174.286 212.314 173.853 213.302 173.558C214.308 173.246 215.356 173.09 216.448 173.09C218.338 173.09 219.794 173.549 220.816 174.468C221.839 175.387 222.35 176.791 222.35 178.68V187H219.984ZM215.46 187.156C214.438 187.156 213.536 186.983 212.756 186.636C211.994 186.289 211.404 185.813 210.988 185.206C210.572 184.582 210.364 183.88 210.364 183.1C210.364 182.355 210.538 181.679 210.884 181.072C211.248 180.465 211.829 179.98 212.626 179.616C213.441 179.252 214.533 179.07 215.902 179.07H220.27V180.864H216.006C214.758 180.864 213.918 181.072 213.484 181.488C213.051 181.904 212.834 182.407 212.834 182.996C212.834 183.672 213.103 184.218 213.64 184.634C214.178 185.033 214.923 185.232 215.876 185.232C216.812 185.232 217.627 185.024 218.32 184.608C219.031 184.192 219.542 183.585 219.854 182.788L220.348 184.504C220.019 185.319 219.438 185.969 218.606 186.454C217.774 186.922 216.726 187.156 215.46 187.156ZM232.664 187.156C231.329 187.156 230.133 186.861 229.076 186.272C228.036 185.683 227.212 184.859 226.606 183.802C225.999 182.745 225.696 181.514 225.696 180.11C225.696 178.706 225.999 177.484 226.606 176.444C227.212 175.387 228.036 174.563 229.076 173.974C230.133 173.385 231.329 173.09 232.664 173.09C233.825 173.09 234.874 173.35 235.81 173.87C236.746 174.39 237.491 175.17 238.046 176.21C238.618 177.25 238.904 178.55 238.904 180.11C238.904 181.67 238.626 182.97 238.072 184.01C237.534 185.05 236.798 185.839 235.862 186.376C234.926 186.896 233.86 187.156 232.664 187.156ZM232.872 184.972C233.738 184.972 234.518 184.773 235.212 184.374C235.922 183.975 236.477 183.412 236.876 182.684C237.292 181.939 237.5 181.081 237.5 180.11C237.5 179.122 237.292 178.273 236.876 177.562C236.477 176.834 235.922 176.271 235.212 175.872C234.518 175.473 233.738 175.274 232.872 175.274C231.988 175.274 231.199 175.473 230.506 175.872C229.812 176.271 229.258 176.834 228.842 177.562C228.426 178.273 228.218 179.122 228.218 180.11C228.218 181.081 228.426 181.939 228.842 182.684C229.258 183.412 229.812 183.975 230.506 184.374C231.199 184.773 231.988 184.972 232.872 184.972ZM237.578 187V183.282L237.734 180.084L237.474 176.886V167.708H239.97V187H237.578ZM244.692 187V173.22H247.188V187H244.692ZM245.94 170.568C245.455 170.568 245.048 170.412 244.718 170.1C244.406 169.788 244.25 169.407 244.25 168.956C244.25 168.488 244.406 168.098 244.718 167.786C245.048 167.474 245.455 167.318 245.94 167.318C246.426 167.318 246.824 167.474 247.136 167.786C247.466 168.081 247.63 168.453 247.63 168.904C247.63 169.372 247.474 169.771 247.162 170.1C246.85 170.412 246.443 170.568 245.94 170.568ZM259.26 187.156C258.116 187.156 257.067 186.896 256.114 186.376C255.178 185.839 254.424 185.05 253.852 184.01C253.297 182.97 253.02 181.67 253.02 180.11C253.02 178.55 253.289 177.25 253.826 176.21C254.381 175.17 255.126 174.39 256.062 173.87C257.015 173.35 258.081 173.09 259.26 173.09C260.612 173.09 261.808 173.385 262.848 173.974C263.888 174.563 264.711 175.387 265.318 176.444C265.925 177.484 266.228 178.706 266.228 180.11C266.228 181.514 265.925 182.745 265.318 183.802C264.711 184.859 263.888 185.683 262.848 186.272C261.808 186.861 260.612 187.156 259.26 187.156ZM251.954 192.044V173.22H254.346V176.938L254.19 180.136L254.45 183.334V192.044H251.954ZM259.052 184.972C259.936 184.972 260.725 184.773 261.418 184.374C262.129 183.975 262.683 183.412 263.082 182.684C263.498 181.939 263.706 181.081 263.706 180.11C263.706 179.122 263.498 178.273 263.082 177.562C262.683 176.834 262.129 176.271 261.418 175.872C260.725 175.473 259.936 175.274 259.052 175.274C258.185 175.274 257.397 175.473 256.686 175.872C255.993 176.271 255.438 176.834 255.022 177.562C254.623 178.273 254.424 179.122 254.424 180.11C254.424 181.081 254.623 181.939 255.022 182.684C255.438 183.412 255.993 183.975 256.686 184.374C257.397 184.773 258.185 184.972 259.052 184.972ZM269.677 187V173.22H272.173V187H269.677ZM270.925 170.568C270.439 170.568 270.032 170.412 269.703 170.1C269.391 169.788 269.235 169.407 269.235 168.956C269.235 168.488 269.391 168.098 269.703 167.786C270.032 167.474 270.439 167.318 270.925 167.318C271.41 167.318 271.809 167.474 272.121 167.786C272.45 168.081 272.615 168.453 272.615 168.904C272.615 169.372 272.459 169.771 272.147 170.1C271.835 170.412 271.427 170.568 270.925 170.568ZM280.89 187.156C279.746 187.156 278.654 187 277.614 186.688C276.592 186.376 275.786 185.995 275.196 185.544L276.236 183.568C276.826 183.967 277.554 184.305 278.42 184.582C279.287 184.859 280.171 184.998 281.072 184.998C282.234 184.998 283.066 184.833 283.568 184.504C284.088 184.175 284.348 183.715 284.348 183.126C284.348 182.693 284.192 182.355 283.88 182.112C283.568 181.869 283.152 181.687 282.632 181.566C282.13 181.445 281.566 181.341 280.942 181.254C280.318 181.15 279.694 181.029 279.07 180.89C278.446 180.734 277.874 180.526 277.354 180.266C276.834 179.989 276.418 179.616 276.106 179.148C275.794 178.663 275.638 178.021 275.638 177.224C275.638 176.392 275.872 175.664 276.34 175.04C276.808 174.416 277.467 173.939 278.316 173.61C279.183 173.263 280.206 173.09 281.384 173.09C282.286 173.09 283.196 173.203 284.114 173.428C285.05 173.636 285.813 173.939 286.402 174.338L285.336 176.314C284.712 175.898 284.062 175.612 283.386 175.456C282.71 175.3 282.034 175.222 281.358 175.222C280.266 175.222 279.452 175.404 278.914 175.768C278.377 176.115 278.108 176.565 278.108 177.12C278.108 177.588 278.264 177.952 278.576 178.212C278.906 178.455 279.322 178.645 279.824 178.784C280.344 178.923 280.916 179.044 281.54 179.148C282.164 179.235 282.788 179.356 283.412 179.512C284.036 179.651 284.6 179.85 285.102 180.11C285.622 180.37 286.038 180.734 286.35 181.202C286.68 181.67 286.844 182.294 286.844 183.074C286.844 183.906 286.602 184.625 286.116 185.232C285.631 185.839 284.946 186.315 284.062 186.662C283.178 186.991 282.121 187.156 280.89 187.156ZM295.97 187.156C294.566 187.156 293.309 186.853 292.2 186.246C291.108 185.639 290.25 184.807 289.626 183.75C289.002 182.693 288.69 181.479 288.69 180.11C288.69 178.741 289.002 177.527 289.626 176.47C290.25 175.413 291.108 174.589 292.2 174C293.309 173.393 294.566 173.09 295.97 173.09C297.218 173.09 298.327 173.341 299.298 173.844C300.286 174.329 301.048 175.057 301.586 176.028L299.688 177.25C299.237 176.574 298.682 176.08 298.024 175.768C297.382 175.439 296.689 175.274 295.944 175.274C295.042 175.274 294.236 175.473 293.526 175.872C292.815 176.271 292.252 176.834 291.836 177.562C291.42 178.273 291.212 179.122 291.212 180.11C291.212 181.098 291.42 181.956 291.836 182.684C292.252 183.412 292.815 183.975 293.526 184.374C294.236 184.773 295.042 184.972 295.944 184.972C296.689 184.972 297.382 184.816 298.024 184.504C298.682 184.175 299.237 183.672 299.688 182.996L301.586 184.192C301.048 185.145 300.286 185.882 299.298 186.402C298.327 186.905 297.218 187.156 295.97 187.156ZM304.639 187V173.22H307.135V187H304.639ZM305.887 170.568C305.402 170.568 304.995 170.412 304.665 170.1C304.353 169.788 304.197 169.407 304.197 168.956C304.197 168.488 304.353 168.098 304.665 167.786C304.995 167.474 305.402 167.318 305.887 167.318C306.373 167.318 306.771 167.474 307.083 167.786C307.413 168.081 307.577 168.453 307.577 168.904C307.577 169.372 307.421 169.771 307.109 170.1C306.797 170.412 306.39 170.568 305.887 170.568ZM319.259 173.09C320.386 173.09 321.374 173.307 322.223 173.74C323.09 174.173 323.766 174.832 324.251 175.716C324.736 176.6 324.979 177.718 324.979 179.07V187H322.483V179.356C322.483 178.021 322.154 177.016 321.495 176.34C320.854 175.664 319.944 175.326 318.765 175.326C317.881 175.326 317.11 175.499 316.451 175.846C315.792 176.193 315.281 176.704 314.917 177.38C314.57 178.056 314.397 178.897 314.397 179.902V187H311.901V173.22H314.293V176.938L313.903 175.95C314.354 175.049 315.047 174.347 315.983 173.844C316.919 173.341 318.011 173.09 319.259 173.09ZM335.63 192.2C334.365 192.2 333.134 192.018 331.938 191.654C330.76 191.307 329.798 190.805 329.052 190.146L330.248 188.222C330.89 188.777 331.678 189.21 332.614 189.522C333.55 189.851 334.53 190.016 335.552 190.016C337.182 190.016 338.378 189.635 339.14 188.872C339.903 188.109 340.284 186.948 340.284 185.388V182.476L340.544 179.746L340.414 176.99V173.22H342.78V185.128C342.78 187.555 342.174 189.34 340.96 190.484C339.747 191.628 337.97 192.2 335.63 192.2ZM335.318 186.428C333.984 186.428 332.788 186.151 331.73 185.596C330.69 185.024 329.858 184.235 329.234 183.23C328.628 182.225 328.324 181.063 328.324 179.746C328.324 178.411 328.628 177.25 329.234 176.262C329.858 175.257 330.69 174.477 331.73 173.922C332.788 173.367 333.984 173.09 335.318 173.09C336.497 173.09 337.572 173.333 338.542 173.818C339.513 174.286 340.284 175.014 340.856 176.002C341.446 176.99 341.74 178.238 341.74 179.746C341.74 181.237 341.446 182.476 340.856 183.464C340.284 184.452 339.513 185.197 338.542 185.7C337.572 186.185 336.497 186.428 335.318 186.428ZM335.604 184.244C336.523 184.244 337.338 184.053 338.048 183.672C338.759 183.291 339.314 182.762 339.712 182.086C340.128 181.41 340.336 180.63 340.336 179.746C340.336 178.862 340.128 178.082 339.712 177.406C339.314 176.73 338.759 176.21 338.048 175.846C337.338 175.465 336.523 175.274 335.604 175.274C334.686 175.274 333.862 175.465 333.134 175.846C332.424 176.21 331.86 176.73 331.444 177.406C331.046 178.082 330.846 178.862 330.846 179.746C330.846 180.63 331.046 181.41 331.444 182.086C331.86 182.762 332.424 183.291 333.134 183.672C333.862 184.053 334.686 184.244 335.604 184.244ZM360.668 187.156C359.195 187.156 357.895 186.853 356.768 186.246C355.659 185.639 354.792 184.807 354.168 183.75C353.561 182.693 353.258 181.479 353.258 180.11C353.258 178.741 353.553 177.527 354.142 176.47C354.749 175.413 355.572 174.589 356.612 174C357.669 173.393 358.857 173.09 360.174 173.09C361.509 173.09 362.687 173.385 363.71 173.974C364.733 174.563 365.53 175.395 366.102 176.47C366.691 177.527 366.986 178.767 366.986 180.188C366.986 180.292 366.977 180.413 366.96 180.552C366.96 180.691 366.951 180.821 366.934 180.942H355.208V179.148H365.634L364.62 179.772C364.637 178.888 364.455 178.099 364.074 177.406C363.693 176.713 363.164 176.175 362.488 175.794C361.829 175.395 361.058 175.196 360.174 175.196C359.307 175.196 358.536 175.395 357.86 175.794C357.184 176.175 356.655 176.721 356.274 177.432C355.893 178.125 355.702 178.923 355.702 179.824V180.24C355.702 181.159 355.91 181.982 356.326 182.71C356.759 183.421 357.357 183.975 358.12 184.374C358.883 184.773 359.758 184.972 360.746 184.972C361.561 184.972 362.297 184.833 362.956 184.556C363.632 184.279 364.221 183.863 364.724 183.308L366.102 184.92C365.478 185.648 364.698 186.203 363.762 186.584C362.843 186.965 361.812 187.156 360.668 187.156ZM370.452 187V167.708H372.948V187H370.452ZM377.714 187V173.22H380.21V187H377.714ZM378.962 170.568C378.476 170.568 378.069 170.412 377.74 170.1C377.428 169.788 377.272 169.407 377.272 168.956C377.272 168.488 377.428 168.098 377.74 167.786C378.069 167.474 378.476 167.318 378.962 167.318C379.447 167.318 379.846 167.474 380.158 167.786C380.487 168.081 380.652 168.453 380.652 168.904C380.652 169.372 380.496 169.771 380.184 170.1C379.872 170.412 379.464 170.568 378.962 170.568ZM389.707 187.156C388.321 187.156 387.246 186.783 386.483 186.038C385.721 185.293 385.339 184.227 385.339 182.84V170.204H387.835V182.736C387.835 183.481 388.017 184.053 388.381 184.452C388.763 184.851 389.3 185.05 389.993 185.05C390.773 185.05 391.423 184.833 391.943 184.4L392.723 186.194C392.342 186.523 391.883 186.766 391.345 186.922C390.825 187.078 390.279 187.156 389.707 187.156ZM382.999 175.274V173.22H391.787V175.274H382.999ZM396.593 187.156C396.108 187.156 395.692 186.991 395.345 186.662C394.998 186.315 394.825 185.882 394.825 185.362C394.825 184.842 394.998 184.417 395.345 184.088C395.692 183.759 396.108 183.594 396.593 183.594C397.061 183.594 397.46 183.759 397.789 184.088C398.136 184.417 398.309 184.842 398.309 185.362C398.309 185.882 398.136 186.315 397.789 186.662C397.46 186.991 397.061 187.156 396.593 187.156Z" fill="black"/>
<g filter="url(#filter2_d_90_648)">
<mask id="mask7_90_648" style="mask-type:alpha" maskUnits="userSpaceOnUse" x="468" y="32" width="40" height="40">
<rect x="468" y="32" width="40" height="40" fill="#D9D9D9"/>
</mask>
<g mask="url(#mask7_90_648)">
<path d="M488 60.833L481.833 65.5413C481.528 65.7913 481.194 65.9091 480.833 65.8947C480.472 65.8813 480.153 65.7775 479.875 65.583C479.597 65.3886 479.382 65.1247 479.23 64.7913C479.077 64.458 479.069 64.0969 479.208 63.708L481.583 55.9997L475.542 51.708C475.208 51.4858 475 51.1941 474.917 50.833C474.833 50.4719 474.847 50.1386 474.958 49.833C475.069 49.5275 475.264 49.2563 475.542 49.0197C475.819 48.7841 476.153 48.6663 476.542 48.6663H484L486.417 40.6663C486.555 40.2775 486.771 39.9786 487.063 39.7697C487.354 39.5619 487.667 39.458 488 39.458C488.333 39.458 488.645 39.5619 488.937 39.7697C489.229 39.9786 489.444 40.2775 489.583 40.6663L492 48.6663H499.458C499.847 48.6663 500.18 48.7841 500.458 49.0197C500.736 49.2563 500.93 49.5275 501.042 49.833C501.153 50.1386 501.167 50.4719 501.083 50.833C501 51.1941 500.792 51.4858 500.458 51.708L494.417 55.9997L496.792 63.708C496.93 64.0969 496.924 64.458 496.772 64.7913C496.618 65.1247 496.403 65.3886 496.125 65.583C495.847 65.7775 495.528 65.8813 495.167 65.8947C494.805 65.9091 494.472 65.7913 494.167 65.5413L488 60.833Z" fill="#FDAF4D"/>
</g>
</g>
<path d="M428.76 55.56V54.16L435.92 45H438.08L430.98 54.16L429.96 53.84H441.14V55.56H428.76ZM436.54 59V55.56L436.6 53.84V50.8H438.48V59H436.54ZM444.05 59.12C443.676 59.12 443.356 58.9933 443.09 58.74C442.823 58.4733 442.69 58.14 442.69 57.74C442.69 57.34 442.823 57.0133 443.09 56.76C443.356 56.5067 443.676 56.38 444.05 56.38C444.41 56.38 444.716 56.5067 444.97 56.76C445.236 57.0133 445.37 57.34 445.37 57.74C445.37 58.14 445.236 58.4733 444.97 58.74C444.716 58.9933 444.41 59.12 444.05 59.12ZM452.906 59.16C451.666 59.16 450.606 58.8867 449.726 58.34C448.846 57.7933 448.173 57.0067 447.706 55.98C447.253 54.94 447.026 53.6733 447.026 52.18C447.026 50.5933 447.306 49.2533 447.866 48.16C448.426 47.0667 449.206 46.24 450.206 45.68C451.206 45.12 452.353 44.84 453.646 44.84C454.313 44.84 454.946 44.9067 455.546 45.04C456.16 45.1733 456.686 45.38 457.126 45.66L456.366 47.22C456.006 46.9667 455.593 46.7933 455.126 46.7C454.673 46.6067 454.193 46.56 453.686 46.56C452.26 46.56 451.126 47.0067 450.286 47.9C449.446 48.78 449.026 50.0933 449.026 51.84C449.026 52.12 449.04 52.4533 449.066 52.84C449.093 53.2267 449.16 53.6067 449.266 53.98L448.586 53.3C448.786 52.6867 449.1 52.1733 449.526 51.76C449.966 51.3333 450.486 51.02 451.086 50.82C451.7 50.6067 452.36 50.5 453.066 50.5C454 50.5 454.826 50.6733 455.546 51.02C456.266 51.3667 456.833 51.86 457.246 52.5C457.66 53.1267 457.866 53.8733 457.866 54.74C457.866 55.6333 457.646 56.4133 457.206 57.08C456.766 57.7467 456.173 58.26 455.426 58.62C454.68 58.98 453.84 59.16 452.906 59.16ZM452.826 57.54C453.44 57.54 453.973 57.4267 454.426 57.2C454.893 56.9733 455.26 56.66 455.526 56.26C455.793 55.8467 455.926 55.3667 455.926 54.82C455.926 53.9933 455.64 53.34 455.066 52.86C454.493 52.3667 453.713 52.12 452.726 52.12C452.086 52.12 451.526 52.24 451.046 52.48C450.566 52.72 450.186 53.0467 449.906 53.46C449.64 53.86 449.506 54.32 449.506 54.84C449.506 55.32 449.633 55.7667 449.886 56.18C450.14 56.58 450.513 56.9067 451.006 57.16C451.5 57.4133 452.106 57.54 452.826 57.54Z" fill="black"/>
<g filter="url(#filter3_d_90_648)">
<mask id="mask8_90_648" style="mask-type:alpha" maskUnits="userSpaceOnUse" x="217" y="49" width="24" height="24">
<rect x="217" y="49" width="24" height="24" fill="#D9D9D9"/>
</mask>
<g mask="url(#mask8_90_648)">
<path d="M223.7 68.2987L220.95 67.6987C220.7 67.6487 220.5 67.5194 220.35 67.3107C220.2 67.1027 220.142 66.8737 220.175 66.6237L220.45 63.7987L218.575 61.6487C218.408 61.4654 218.325 61.2487 218.325 60.9987C218.325 60.7487 218.408 60.5321 218.575 60.3487L220.45 58.1987L220.175 55.3737C220.142 55.1237 220.2 54.8947 220.35 54.6867C220.5 54.4781 220.7 54.3487 220.95 54.2987L223.7 53.6987L225.15 51.2487C225.283 51.0321 225.467 50.8904 225.7 50.8237C225.933 50.7571 226.167 50.7654 226.4 50.8487L229 51.9487L231.6 50.8487C231.833 50.7654 232.067 50.7571 232.3 50.8237C232.533 50.8904 232.717 51.0321 232.85 51.2487L234.3 53.6987L237.05 54.2987C237.3 54.3487 237.5 54.4781 237.65 54.6867C237.8 54.8947 237.858 55.1237 237.825 55.3737L237.55 58.1987L239.425 60.3487C239.592 60.5321 239.675 60.7487 239.675 60.9987C239.675 61.2487 239.592 61.4654 239.425 61.6487L237.55 63.7987L237.825 66.6237C237.858 66.8737 237.8 67.1027 237.65 67.3107C237.5 67.5194 237.3 67.6487 237.05 67.6987L234.3 68.2987L232.85 70.7487C232.717 70.9654 232.533 71.1071 232.3 71.1737C232.067 71.2404 231.833 71.2321 231.6 71.1487L229 70.0487L226.4 71.1487C226.167 71.2321 225.933 71.2404 225.7 71.1737C225.467 71.1071 225.283 70.9654 225.15 70.7487L223.7 68.2987ZM227.25 63.8487C227.433 64.0321 227.667 64.1237 227.95 64.1237C228.233 64.1237 228.467 64.0321 228.65 63.8487L232.9 59.5987C233.1 59.3987 233.2 59.1611 233.2 58.8857C233.2 58.6111 233.1 58.3737 232.9 58.1737C232.7 57.9737 232.463 57.8737 232.188 57.8737C231.913 57.8737 231.675 57.9737 231.475 58.1737L227.95 61.6987L226.5 60.2737C226.3 60.0904 226.063 60.0027 225.788 60.0107C225.513 60.0194 225.283 60.1154 225.1 60.2987C224.917 60.4821 224.825 60.7154 224.825 60.9987C224.825 61.2821 224.917 61.5154 225.1 61.6987L227.25 63.8487Z" fill="white" fill-opacity="0.85"/>
</g>
</g>
</g>
<defs>
<filter id="filter0_d_90_648" x="0" y="0" width="560" height="270" filterUnits="userSpaceOnUse" color-interpolation-filters="sRGB">
<feFlood flood-opacity="0" result="BackgroundImageFix"/>
<feColorMatrix in="SourceAlpha" type="matrix" values="0 0 0 0 0 0 0 0 0 0 0 0 0 0 0 0 0 0 127 0" result="hardAlpha"/>
<feOffset dx="20" dy="20"/>
<feComposite in2="hardAlpha" operator="out"/>
<feColorMatrix type="matrix" values="0 0 0 0 0.992157 0 0 0 0 0.686275 0 0 0 0 0.301961 0 0 0 1 0"/>
<feBlend mode="normal" in2="BackgroundImageFix" result="effect1_dropShadow_90_648"/>
<feBlend mode="normal" in="SourceGraphic" in2="effect1_dropShadow_90_648" result="shape"/>
</filter>
<filter id="filter1_d_90_648" x="53.7035" y="45.1611" width="42.5931" height="21.0303" filterUnits="userSpaceOnUse" color-interpolation-filters="sRGB">
<feFlood flood-opacity="0" result="BackgroundImageFix"/>
<feColorMatrix in="SourceAlpha" type="matrix" values="0 0 0 0 0 0 0 0 0 0 0 0 0 0 0 0 0 0 127 0" result="hardAlpha"/>
<feOffset dy="2"/>
<feGaussianBlur stdDeviation="2"/>
<feColorMatrix type="matrix" values="0 0 0 0 0 0 0 0 0 0 0 0 0 0 0 0 0 0 0.16 0"/>
<feBlend mode="normal" in2="BackgroundImageFix" result="effect1_dropShadow_90_648"/>
<feBlend mode="normal" in="SourceGraphic" in2="effect1_dropShadow_90_648" result="shape"/>
</filter>
<filter id="filter2_d_90_648" x="470.863" y="39.458" width="34.2738" height="34.4375" filterUnits="userSpaceOnUse" color-interpolation-filters="sRGB">
<feFlood flood-opacity="0" result="BackgroundImageFix"/>
<feColorMatrix in="SourceAlpha" type="matrix" values="0 0 0 0 0 0 0 0 0 0 0 0 0 0 0 0 0 0 127 0" result="hardAlpha"/>
<feOffset dy="4"/>
<feGaussianBlur stdDeviation="2"/>
<feComposite in2="hardAlpha" operator="out"/>
<feColorMatrix type="matrix" values="0 0 0 0 0 0 0 0 0 0 0 0 0 0 0 0 0 0 0.25 0"/>
<feBlend mode="normal" in2="BackgroundImageFix" result="effect1_dropShadow_90_648"/>
<feBlend mode="normal" in="SourceGraphic" in2="effect1_dropShadow_90_648" result="shape"/>
</filter>
<filter id="filter3_d_90_648" x="210.325" y="46.7793" width="37.35" height="36.4385" filterUnits="userSpaceOnUse" color-interpolation-filters="sRGB">
<feFlood flood-opacity="0" result="BackgroundImageFix"/>
<feColorMatrix in="SourceAlpha" type="matrix" values="0 0 0 0 0 0 0 0 0 0 0 0 0 0 0 0 0 0 127 0" result="hardAlpha"/>
<feOffset dy="4"/>
<feGaussianBlur stdDeviation="4"/>
<feComposite in2="hardAlpha" operator="out"/>
<feColorMatrix type="matrix" values="0 0 0 0 0 0 0 0 0 0 0 0 0 0 0 0 0 0 0.25 0"/>
<feBlend mode="normal" in2="BackgroundImageFix" result="effect1_dropShadow_90_648"/>
<feBlend mode="normal" in="SourceGraphic" in2="effect1_dropShadow_90_648" result="shape"/>
</filter>
<clipPath id="clip0_90_648">
<rect width="70" height="74" fill="white" transform="translate(40 24)"/>
</clipPath>
</defs>
</svg>
