<svg width="19" height="22" viewBox="0 0 19 22" fill="none" xmlns="http://www.w3.org/2000/svg">
<path d="M9.99992 19.9057H14.9999V21.9057H2.99992V19.9057H7.99992V18.8557C6.4144 18.6965 4.88986 18.1608 3.55328 17.2931C2.2167 16.4255 1.10676 15.2511 0.315918 13.8677L2.05292 12.8757C2.6637 13.9429 3.51229 14.855 4.53277 15.5411C5.55325 16.2272 6.71815 16.6688 7.93699 16.8316C9.15583 16.9944 10.3958 16.8741 11.5606 16.4799C12.7254 16.0858 13.7836 15.4284 14.6531 14.5589C15.5226 13.6894 16.18 12.6311 16.5741 11.4663C16.9683 10.3016 17.0886 9.0616 16.9258 7.84276C16.763 6.62391 16.3214 5.45901 15.6353 4.43853C14.9493 3.41805 14.0372 2.56946 12.9699 1.95868L13.9619 0.22168C15.493 1.09623 16.7654 2.36018 17.6502 3.88531C18.535 5.41044 19.0007 7.14247 18.9999 8.90568C18.9999 14.0907 15.0529 18.3547 9.99992 18.8557V19.9057ZM8.99992 15.9057C8.08066 15.9057 7.17041 15.7246 6.32113 15.3728C5.47185 15.0211 4.70018 14.5054 4.05017 13.8554C3.40016 13.2054 2.88454 12.4337 2.53276 11.5845C2.18098 10.7352 1.99992 9.82493 1.99992 8.90568C1.99992 7.98643 2.18098 7.07617 2.53276 6.2269C2.88454 5.37762 3.40016 4.60594 4.05017 3.95593C4.70018 3.30592 5.47185 2.79031 6.32113 2.43852C7.17041 2.08674 8.08066 1.90568 8.99992 1.90568C10.8564 1.90568 12.6369 2.64318 13.9497 3.95593C15.2624 5.26869 15.9999 7.04916 15.9999 8.90568C15.9999 10.7622 15.2624 12.5427 13.9497 13.8554C12.6369 15.1682 10.8564 15.9057 8.99992 15.9057Z" fill="#FDAF4D"/>
</svg>
