<svg width="20" height="21" viewBox="0 0 20 21" fill="none" xmlns="http://www.w3.org/2000/svg">
<path d="M0 17.9053C0 19.6053 1.3 20.9053 3 20.9053H17C18.7 20.9053 20 19.6053 20 17.9053V9.90527H0V17.9053ZM17 2.90527H15V1.90527C15 1.30527 14.6 0.905273 14 0.905273C13.4 0.905273 13 1.30527 13 1.90527V2.90527H7V1.90527C7 1.30527 6.6 0.905273 6 0.905273C5.4 0.905273 5 1.30527 5 1.90527V2.90527H3C1.3 2.90527 0 4.20527 0 5.90527V7.90527H20V5.90527C20 4.20527 18.7 2.90527 17 2.90527Z" fill="#FDAF4D"/>
</svg>
