<svg width="102" height="75" viewBox="0 0 102 75" fill="none" xmlns="http://www.w3.org/2000/svg">
<path d="M30.5 41C32.2875 41 33.8183 40.363 35.0923 39.089C36.3663 37.815 37.0022 36.2853 37 34.5C37 32.7125 36.363 31.1817 35.089 29.9077C33.815 28.6337 32.2853 27.9978 30.5 28C28.7125 28 27.1817 28.637 25.9077 29.911C24.6337 31.185 23.9978 32.7147 24 34.5C24 36.2875 24.637 37.8183 25.911 39.0923C27.185 40.3663 28.7147 41.0022 30.5 41ZM30.5 72.2812C30.0667 72.2812 29.6333 72.2 29.2 72.0375C28.7667 71.875 28.3875 71.6583 28.0625 71.3875C20.1542 64.4 14.25 57.913 10.35 51.9265C6.45 45.94 4.5 40.3478 4.5 35.15C4.5 27.025 7.11408 20.5521 12.3423 15.7312C17.5704 10.9104 23.623 8.5 30.5 8.5C37.3792 8.5 43.4328 10.9104 48.661 15.7312C53.8892 20.5521 56.5022 27.025 56.5 35.15C56.5 40.35 54.55 45.9432 50.65 51.9297C46.75 57.9162 40.8458 64.4022 32.9375 71.3875C32.6125 71.6583 32.2333 71.875 31.8 72.0375C31.3667 72.2 30.9333 72.2812 30.5 72.2812Z" fill="white"/>
<path d="M87.1418 9.64031C85.5574 10.3472 83.0956 11.7122 80.3168 13.2966L67.0081 11.4441C66.2612 11.3363 65.4999 11.3895 64.7753 11.6001L61.8869 12.4191C61.6431 12.4191 61.6431 12.6628 61.8869 12.7603L73.0019 17.6353C69.2481 19.8778 65.9087 21.9253 64.4462 22.8516C64.1853 23.0155 63.8914 23.1197 63.5854 23.1568C63.2795 23.1939 62.9692 23.1629 62.6766 23.0661L59.7663 22.1447C59.3041 21.9799 58.7989 21.9816 58.3379 22.1496L56.5 22.9003L62.6425 28.0191C62.9513 28.2781 63.3269 28.4448 63.7261 28.5C64.1254 28.5552 64.5321 28.4966 64.8996 28.3311C67.8344 27.0197 75.5613 23.4609 81.3138 20.4628C94.0863 13.6866 95.5 12.5166 95.5 11.4441C95.5 9.76219 90.6274 8.03156 87.1418 9.64031Z" fill="white"/>
</svg>
