<svg width="24" height="24" viewBox="0 0 24 24" fill="none" xmlns="http://www.w3.org/2000/svg">
<path d="M5.49821 18.1252C2.21831 14.5988 2.27631 9.07135 5.68381 5.6392C7.01927 4.28823 8.75573 3.40525 10.6341 3.122L10.5341 0.110352C7.89712 0.428741 5.44557 1.63024 3.57841 3.5193C-0.987638 8.1158 -1.04274 15.5384 3.40006 20.2393L0.875613 22.7797L8.86511 23.2161L8.84336 14.7568L5.49821 18.1252ZM15.1364 0.784602L15.1581 9.2439L18.5033 5.877C21.7832 9.4063 21.7252 14.9337 18.3177 18.363C16.9825 19.7143 15.2459 20.5973 13.3674 20.8802L13.4674 23.8904C16.1044 23.5716 18.5561 22.3707 20.4245 20.4829C24.9891 15.8835 25.0442 8.4609 20.6014 3.7629L23.1259 1.2196L15.1364 0.784602Z" fill="#FDFDFF"/>
</svg>
