<svg width="52" height="51" viewBox="0 0 52 51" fill="none" xmlns="http://www.w3.org/2000/svg">
<path d="M26 0.083252C22.6623 0.083252 19.3572 0.740674 16.2735 2.01798C13.1898 3.29529 10.3879 5.16747 8.02774 7.52762C3.26119 12.2942 0.583374 18.759 0.583374 25.4999C0.583374 32.2408 3.26119 38.7057 8.02774 43.4722C10.3879 45.8324 13.1898 47.7045 16.2735 48.9819C19.3572 50.2592 22.6623 50.9166 26 50.9166C32.741 50.9166 39.2058 48.2388 43.9723 43.4722C48.7389 38.7057 51.4167 32.2408 51.4167 25.4999C51.4167 22.1622 50.7593 18.8571 49.482 15.7734C48.2047 12.6897 46.3325 9.88778 43.9723 7.52762C41.6122 5.16747 38.8103 3.29529 35.7266 2.01798C32.6429 0.740674 29.3378 0.083252 26 0.083252ZM26 16.3245C30.1011 18.9889 34.8853 20.41 39.7759 20.4166C41.7584 20.4166 43.6646 20.1878 45.4946 19.7558C46.0284 21.5603 46.3334 23.492 46.3334 25.4999C46.3334 36.7087 37.2088 45.8332 26 45.8332C18.375 45.8332 11.7413 41.6141 8.20837 35.387L12.6563 30.5833V28.0416C12.6563 27.199 12.991 26.3909 13.5868 25.795C14.1827 25.1992 14.9908 24.8645 15.8334 24.8645C16.676 24.8645 17.4841 25.1992 18.0799 25.795C18.6757 26.3909 19.0105 27.199 19.0105 28.0416V30.5833H26M36.1667 24.8645C35.3241 24.8645 34.516 25.1992 33.9202 25.795C33.3243 26.3909 32.9896 27.199 32.9896 28.0416C32.9896 28.8842 33.3243 29.6923 33.9202 30.2881C34.516 30.8839 35.3241 31.2187 36.1667 31.2187C37.0093 31.2187 37.8174 30.8839 38.4132 30.2881C39.0091 29.6923 39.3438 28.8842 39.3438 28.0416C39.3438 27.199 39.0091 26.3909 38.4132 25.795C37.8174 25.1992 37.0093 24.8645 36.1667 24.8645Z" fill="white"/>
</svg>
