<svg width="28" height="34" viewBox="0 0 28 34" fill="none" xmlns="http://www.w3.org/2000/svg">
<path d="M14.0001 14.9998C14.6594 14.9998 15.3038 14.8043 15.852 14.4381C16.4001 14.0718 16.8274 13.5512 17.0797 12.9421C17.332 12.333 17.398 11.6628 17.2694 11.0162C17.1407 10.3696 16.8233 9.77564 16.3571 9.30947C15.8909 8.84329 15.297 8.52582 14.6504 8.3972C14.0038 8.26859 13.3336 8.3346 12.7245 8.58689C12.1154 8.83918 11.5948 9.26642 11.2285 9.81459C10.8622 10.3628 10.6667 11.0072 10.6667 11.6665C10.6667 12.5505 11.0179 13.3984 11.6431 14.0235C12.2682 14.6486 13.116 14.9998 14.0001 14.9998ZM12.8167 26.5165C12.9717 26.6727 13.156 26.7967 13.3591 26.8813C13.5622 26.9659 13.7801 27.0095 14.0001 27.0095C14.2201 27.0095 14.4379 26.9659 14.641 26.8813C14.8441 26.7967 15.0285 26.6727 15.1834 26.5165L22.0001 19.6832C23.5833 18.1007 24.6617 16.0843 25.0989 13.8889C25.536 11.6935 25.3122 9.41783 24.4559 7.34964C23.5995 5.28144 22.149 3.51367 20.2879 2.26992C18.4268 1.02617 16.2386 0.362305 14.0001 0.362305C11.7616 0.362305 9.57341 1.02617 7.71226 2.26992C5.85112 3.51367 4.40064 5.28144 3.54428 7.34964C2.68792 9.41783 2.46416 11.6935 2.90129 13.8889C3.33843 16.0843 4.41683 18.1007 6.00008 19.6832L12.8167 26.5165ZM6.05008 10.8998C6.16396 9.71152 6.54178 8.56364 7.15595 7.54001C7.77013 6.51638 8.60516 5.64283 9.60008 4.98315C10.9071 4.12498 12.4365 3.66775 14.0001 3.66775C15.5636 3.66775 17.0931 4.12498 18.4001 4.98315C19.3884 5.64057 20.2187 6.50882 20.8313 7.52546C21.4439 8.5421 21.8237 9.68187 21.9432 10.8628C22.0627 12.0437 21.9191 13.2365 21.5226 14.3552C21.1261 15.474 20.4866 16.491 19.6501 17.3332L14.0001 22.9832L8.35008 17.3332C7.51262 16.4992 6.87163 15.489 6.47376 14.3762C6.07589 13.2633 5.93115 12.0757 6.05008 10.8998ZM25.6667 30.3332H2.33341C1.89139 30.3332 1.46746 30.5087 1.1549 30.8213C0.842343 31.1339 0.666748 31.5578 0.666748 31.9998C0.666748 32.4418 0.842343 32.8658 1.1549 33.1783C1.46746 33.4909 1.89139 33.6665 2.33341 33.6665H25.6667C26.1088 33.6665 26.5327 33.4909 26.8453 33.1783C27.1578 32.8658 27.3334 32.4418 27.3334 31.9998C27.3334 31.5578 27.1578 31.1339 26.8453 30.8213C26.5327 30.5087 26.1088 30.3332 25.6667 30.3332Z" fill="#B0B0B0"/>
</svg>
