<svg width="40" height="40" viewBox="0 0 40 40" fill="none" xmlns="http://www.w3.org/2000/svg">
<path d="M29.3547 25.8593C31.7754 22.556 32.8596 18.4605 32.3904 14.3921C31.9212 10.3238 29.9332 6.58262 26.8241 3.9171C23.715 1.25158 19.7141 -0.141716 15.6218 0.0159665C11.5295 0.173649 7.64764 1.87068 4.75285 4.76754C1.85806 7.66441 0.163807 11.5475 0.00905286 15.6399C-0.145702 19.7323 1.25045 23.7322 3.9182 26.8394C6.58595 29.9466 10.3285 31.932 14.3972 32.3982C18.4659 32.8645 22.5606 31.7774 25.8622 29.3543H25.8597C25.9347 29.4543 26.0147 29.5493 26.1047 29.6418L35.7297 39.2668C36.1984 39.7359 36.8344 39.9995 37.4975 39.9998C38.1607 40 38.7968 39.7368 39.2659 39.268C39.735 38.7993 39.9987 38.1633 39.9989 37.5002C39.9992 36.837 39.736 36.2009 39.2672 35.7318L29.6422 26.1068C29.5528 26.0163 29.4567 25.9352 29.3547 25.8593ZM29.9997 16.2493C29.9997 18.055 29.644 19.8429 28.953 21.5112C28.262 23.1794 27.2492 24.6952 25.9724 25.972C24.6956 27.2488 23.1798 28.2616 21.5116 28.9526C19.8434 29.6436 18.0554 29.9993 16.2497 29.9993C14.444 29.9993 12.656 29.6436 10.9878 28.9526C9.31956 28.2616 7.80377 27.2488 6.52696 25.972C5.25016 24.6952 4.23734 23.1794 3.54634 21.5112C2.85534 19.8429 2.49968 18.055 2.49968 16.2493C2.49968 12.6025 3.94834 9.10518 6.52696 6.52656C9.10559 3.94793 12.603 2.49928 16.2497 2.49928C19.8964 2.49928 23.3938 3.94793 25.9724 6.52656C28.551 9.10518 29.9997 12.6025 29.9997 16.2493Z" fill="#B0B0B0"/>
</svg>
